<svg width="100" height="100" viewBox="0 0 100 100" fill="none" xmlns="http://www.w3.org/2000/svg">
<path d="M19.3301 56.6758C34.9973 52.3466 58.2835 54.2881 90.8148 66.8296L88.132 63.9875C69.7986 56.0231 40.8498 45.3819 9.18526 51.603C10.5308 52.0492 15.9953 53.0406 19.3301 56.6758Z" fill="#C29F16"/>
<path d="M21.4185 51.9006C23.6555 45.7786 26.9408 43.0852 30.2262 43.0852C35.1541 43.0852 55.4439 48.7611 80.0673 59.8154L81.8585 61.7569C49.3273 50.5539 28.7321 51.2974 21.4185 51.9006Z" fill="#65003D"/>
<path d="M51.6468 23.9675C39.8592 23.9675 29.8795 31.6675 26.4373 42.3087C27.304 41.8461 28.5257 41.3834 29.8299 41.3091C33.4124 32.7911 41.8321 26.8096 51.6468 26.8096C64.7138 26.8096 75.3044 37.4095 75.3044 50.4879C75.3044 52.2146 75.1228 53.9 74.7678 55.5276C75.552 55.8994 76.6416 56.3951 77.4011 56.7338C77.8881 54.7345 78.144 52.636 78.144 50.4879C78.1357 35.8397 66.2739 23.9675 51.6468 23.9675ZM51.6468 74.158C40.7755 74.158 31.6212 66.8215 28.8476 56.8247L25.9833 57.0891C28.9137 68.54 39.2897 77.0001 51.6468 77.0001C61.7009 77.0001 70.4424 71.3903 74.9329 63.1367C74.1818 62.8889 72.9683 62.5419 72.1429 62.3106C68.0569 69.3827 60.4049 74.158 51.6468 74.158Z" fill="#C29F16"/>
</svg>
