<svg width="100" height="100" viewBox="0 0 100 100" fill="none" xmlns="http://www.w3.org/2000/svg">
<path d="M12.892 31.7534V57.0643H2.00635V53.6845H11.741V31.7534H12.892Z" fill="#001C72"/>
<path d="M81.6641 44.719H80.1486V52.7435H26.5672V33.2784H64.7406V31.7534H25.0487V54.2685H81.6641V44.719Z" fill="#001C72"/>
<path d="M62.6768 64.7141V63.646H90.3051C94.5532 63.646 98 60.1875 98 55.9181C98 52.7228 96.7346 49.6577 94.4839 47.3974L77.7172 31.8054H69.037V33.9174L75.4123 33.9386L92.5979 53.5065V56.1753H23.3434V31.76H14.841V58.3085H2V63.646H45.0543V64.7141H46.2053V65.7822H2.00301V67.9154H97.2016V65.7822H61.5289V64.7141H62.6768ZM48.4197 64.7141H49.5707V63.646H51.6074V64.7141H52.7583V65.7822H48.4197V64.7141ZM54.9728 65.7792V64.7111H56.1237V63.646H58.1604V64.7141H59.3114V65.7822H54.9728V65.7792Z" fill="#001C72"/>
<path d="M32.7617 49.1156C32.4755 49.1156 32.4604 48.8433 32.3188 48.4832C32.1591 48.0838 31.9452 47.8811 31.6168 47.8811C31.2311 47.8811 30.9148 48.2533 30.9148 48.6285C30.9148 49.3032 31.5023 49.6633 32.361 49.6633C33.8765 49.6633 34.7502 48.7737 34.7502 46.8039V41.5723C34.7502 40.4648 34.9069 40.3075 36.0669 40.2228V39.9504H31.9603V40.2228C33.1202 40.3226 33.292 40.3952 33.292 41.5602V48.1141C33.289 48.8312 33.2046 49.1156 32.7617 49.1156Z" fill="#001C72"/>
<path d="M36.805 48.6766C36.805 49.1637 37.1816 49.542 37.6667 49.542C38.1367 49.542 38.5434 49.1486 38.5434 48.6947C38.5434 48.2227 38.1367 47.7991 37.6818 47.7991C37.1937 47.7961 36.805 48.1894 36.805 48.6766Z" fill="#001C72"/>
<path d="M47.3471 49.5815C47.8172 49.5815 48.2239 49.1881 48.2239 48.7343C48.2239 48.2622 47.8172 47.8386 47.3622 47.8386C46.8771 47.8386 46.4855 48.232 46.4855 48.7191C46.4855 49.2063 46.8621 49.5815 47.3471 49.5815Z" fill="#001C72"/>
<path d="M57.7537 49.6237C58.2237 49.6237 58.6304 49.2304 58.6304 48.7765C58.6304 48.3045 58.2237 47.8809 57.7688 47.8809C57.2837 47.8809 56.892 48.2742 56.892 48.7614C56.892 49.2455 57.2686 49.6237 57.7537 49.6237Z" fill="#001C72"/>
<path d="M42.9814 45.3C44.521 45.3 45.2261 45.1699 46.0606 44.4195C46.5939 43.9414 46.8801 43.2939 46.8801 42.5284C46.8801 41.8052 46.6361 41.2121 46.1601 40.8097C45.5123 40.262 44.4758 39.8989 43.0387 39.8989H39.3117V40.1743C40.3753 40.262 40.5199 40.4345 40.5199 41.5026V47.6995C40.5199 48.9431 40.4325 49.1004 39.3117 49.1882V49.4635H43.34V49.1882C42.174 49.1307 41.9872 48.9431 41.9872 47.8447V45.2576C42.3759 45.2849 42.6078 45.3 42.9814 45.3ZM41.9902 40.9519C41.9902 40.5616 42.0776 40.4315 42.4934 40.4315C44.4487 40.4315 45.3134 41.0094 45.3134 42.5979C45.3134 43.899 44.4517 44.7221 42.867 44.7221C42.5807 44.7221 42.3216 44.7069 41.9902 44.6797V40.9519Z" fill="#001C72"/>
<path d="M52.6016 40.4041H54.5178C56.2743 40.4041 56.5365 40.6371 56.7534 41.9351H57.1149L57.0426 39.8503H49.3658V40.1287C50.4836 40.2165 50.6282 40.4071 50.6282 41.4691V47.7084C50.6282 48.9762 50.4534 49.1517 49.3507 49.2243V49.5027H53.4302V49.2243C52.3124 49.1668 52.1105 48.9762 52.1105 47.8687V44.734H54.1713C55.4187 44.734 55.6959 44.9518 55.8103 46.147H56.1448V42.7521H55.8103C55.6808 43.8898 55.3885 44.1379 54.1713 44.1379H52.1105V40.9729C52.1075 40.5221 52.1798 40.4041 52.6016 40.4041Z" fill="#001C72"/>
<path d="M58.6998 42.389H59.0402C59.3264 40.8155 59.7091 40.5583 61.2185 40.5583H62.0712V47.6599C62.0712 48.9186 61.9145 49.076 60.7335 49.1456V49.4179H64.8882V49.1456C63.7223 49.0881 63.5234 48.9156 63.5234 47.8294V40.5583H64.364C65.8735 40.5583 66.241 40.8155 66.5544 42.389H66.8948L66.7954 39.9592H58.7992L58.6998 42.389Z" fill="#001C72"/>
</svg>
