<svg width="100" height="100" viewBox="0 0 100 100" fill="none" xmlns="http://www.w3.org/2000/svg">
<g clip-path="url(#clip0)">
<path d="M84.2405 36.0085H26.9321L1.74727 55.804C-1.63815 58.4592 0.218369 63.9485 4.50264 63.9485H64.012V62.0847H17.6411C13.0628 62.0847 10.8871 56.3827 14.2641 53.2593L29.0742 39.583H80.5191L84.2405 36.0085Z" fill="#0E61A8"/>
<path d="M14.2137 55.3359H27.5369C28.377 55.3359 29.175 54.9955 29.7715 54.3998L37.0884 46.9871C37.9368 46.1275 37.332 44.6637 36.1391 44.6637H25.9324L31.292 40.3574H50.5208L31.334 59.8039H16.9691C15.3982 59.8039 14.1129 58.5359 14.0793 56.9444C14.0625 55.9912 14.0793 55.2083 14.2137 55.3359Z" fill="#0B60A3"/>
<path d="M33.2914 59.6846L52.411 40.3147H75.8149L70.1613 46.0423H54.8892C54.1751 46.0423 53.5955 46.6295 53.5955 47.3529C53.5955 48.0763 54.1751 48.6635 54.8892 48.6635H67.9268L63.5585 53.089H47.7739L41.0703 59.8803C41.0703 59.8803 33.5182 59.6846 33.2914 59.6846Z" fill="#0059A0"/>
<path d="M63.8609 55.3359L78.5366 40.4766H85.3914L66.1794 59.9401H43.7836L48.3199 55.3444L63.8609 55.3359Z" fill="#0059A0"/>
<path d="M86.3491 39.5659H83.0645L86.5507 36H89.8269L86.3491 39.5659Z" fill="#0059A0"/>
<path d="M91.4315 39.5659H88.1553L91.6331 36H94.9177L91.4315 39.5659Z" fill="#0059A0"/>
<path d="M96.5222 39.5659H93.2375L96.7154 36H100L96.5222 39.5659Z" fill="#0059A0"/>
</g>
<defs>
<clipPath id="clip0">
<rect width="100" height="100" fill="white"/>
</clipPath>
</defs>
</svg>
