<svg width="100" height="100" viewBox="0 0 100 100" fill="none" xmlns="http://www.w3.org/2000/svg">
<path d="M50 85C69.33 85 85 69.33 85 50C85 30.67 69.33 15 50 15C30.67 15 15 30.67 15 50C15 69.33 30.67 85 50 85Z" fill="#02B2EC"/>
<path d="M55.5241 41.0397H31.4658L27.3226 30.3716H59.6606L55.5241 41.0397Z" fill="#3D127B"/>
<path d="M55.9845 41.7136H31.0055L26.3419 29.6978H60.6481L55.9845 41.7136ZM31.9262 40.3659H55.0571L58.6799 31.0454H28.3101L31.9262 40.3659Z" fill="white"/>
<path d="M45.7301 60.7749H69.7817L73.9249 71.443H41.5869L45.7301 60.7749Z" fill="#3D127B"/>
<path d="M74.9056 72.1169H40.5995L45.263 60.1011H70.2421L74.9056 72.1169ZM42.5677 70.7692H72.9375L69.3147 61.4488H46.1904L42.5677 70.7692Z" fill="white"/>
<path d="M48.7924 49.4398L41.1733 71.3765L28.964 71.3632L39.2185 41.874L48.7924 49.4398Z" fill="#3D127B"/>
<path d="M41.6603 72.0636L27.9966 72.0569L38.8849 40.7397L49.6064 49.2062L41.6603 72.0636ZM29.9314 70.6759L40.6796 70.6826L47.9852 49.6732L39.5521 43.0148L29.9314 70.6759Z" fill="white"/>
<path d="M60.468 30.3916L52.7555 52.2883L62.3028 59.8941L72.6707 30.4516L60.468 30.3916Z" fill="#3D127B"/>
<path d="M62.6297 61.035L51.9415 52.5218L59.981 29.6978L73.6447 29.7645L62.6297 61.035ZM53.5628 52.0615L61.9692 58.7599L71.6966 31.1389L60.9551 31.0788L53.5628 52.0615Z" fill="white"/>
</svg>
