<svg width="100" height="100" viewBox="0 0 100 100" fill="none" xmlns="http://www.w3.org/2000/svg">
<path d="M48.5037 5C43.6017 9.96227 34.7184 20.4412 31.4173 36.0765C24.7584 67.7214 47.0161 92.1446 49.6938 95C46.7044 89.317 34.7467 64.9769 44.5934 38.7101C47.7953 30.1717 52.4566 23.6847 56.5794 19.069C53.9017 14.384 51.1956 9.68505 48.5037 5Z" fill="#00ADEF"/>
<path d="M56.5945 24.6411L61.3833 34.3161C52.6984 44.2823 43.7018 59.5295 52.0891 92.0753C38.6155 63.9234 43.4043 43.9912 56.5945 24.6411Z" fill="#00ADEF"/>
<path d="M63.7918 63.6324C63.7918 70.3273 61.1282 76.4123 56.7787 80.9171C56.5945 81.1112 56.2687 80.8894 56.4104 80.6538C59.1872 75.7331 60.8024 69.8976 60.8024 63.6324C60.8024 57.3672 59.1872 51.5316 56.4104 46.611C56.2828 46.3753 56.5945 46.1535 56.7787 46.3476C61.1282 50.8524 63.7918 56.9375 63.7918 63.6324Z" fill="black"/>
<path d="M69.4165 63.6326C69.4165 71.7968 66.1153 79.1986 60.7599 84.646C60.5615 84.8401 60.2357 84.6044 60.3774 84.3688C63.806 78.3947 65.8037 71.2839 65.8037 63.6326C65.8037 55.9813 63.806 48.8567 60.3774 42.8964C60.2357 42.6608 60.5615 42.4113 60.7599 42.6192C66.1295 48.0666 69.4165 55.4684 69.4165 63.6326Z" fill="black"/>
</svg>
