<svg width="50" height="50" viewBox="0 0 50 50" fill="none" xmlns="http://www.w3.org/2000/svg">
<path d="M25.3478 8.5L25.9632 9.60703L27.2166 9.8449L26.3438 10.7669L26.5028 12.0208L25.3478 11.4836L24.1928 12.0208L24.3517 10.7669L23.479 9.8449L24.7321 9.60703L25.3478 8.5Z" fill="#D3AB66"/>
<path d="M34.5319 9.7417L35.1473 10.849L36.4007 11.0866L35.5279 12.0086L35.6869 13.2628L34.5319 12.7253L33.3768 13.2628L33.5358 12.0086L32.6631 11.0866L33.9164 10.849L34.5319 9.7417Z" fill="#D3AB66"/>
<path d="M16.1452 9.7417L16.7609 10.849L18.0142 11.0866L17.1412 12.0086L17.3002 13.2628L16.1452 12.7253L14.9901 13.2628L15.1491 12.0086L14.2764 11.0866L15.5297 10.849L16.1452 9.7417Z" fill="#D3AB66"/>
<path d="M43.5471 12.5029L44.1629 13.61L45.4162 13.8476L44.5432 14.7696L44.7022 16.0238L43.5471 15.4865L42.3921 16.0238L42.5514 14.7696L41.6783 13.8476L42.9317 13.61L43.5471 12.5029Z" fill="#D3AB66"/>
<path d="M7.07061 12.5029L7.68604 13.61L8.93939 13.8476L8.06637 14.7696L8.22564 16.0238L7.07061 15.4865L5.91557 16.0238L6.07456 14.7696L5.20154 13.8476L6.45489 13.61L7.07061 12.5029Z" fill="#D3AB66"/>
<path d="M44.241 19.5357V28.9909C44.241 36.2042 35.5327 39.9215 30.2384 34.9681L19.1639 24.6062C14.3913 20.1408 6.54059 23.492 6.54059 29.9947V40.1919C6.09734 40.1919 5.73779 39.8361 5.73779 39.3968V30.002C5.73779 22.7986 14.4343 19.0864 19.721 24.0328L30.8109 34.4089C35.5847 38.8754 43.4374 35.5234 43.4374 29.019V18.7397C43.8812 18.7397 44.241 19.0961 44.241 19.5357Z" fill="#D3AB66"/>
<path d="M46.8987 18.3108V28.6546C46.8987 38.2734 35.2894 43.2345 28.2246 36.6344L17.363 26.4879C14.331 23.6553 9.34827 25.7851 9.34827 29.9133V36.1086C9.34827 39.2268 12.1027 41.1187 15.0361 41.1187C18.0158 41.1187 21.2275 39.763 25.1786 35.8201L27.2022 37.71C35.2812 45.2575 48.5574 39.5841 48.5574 28.5845V19.9534C48.5571 19.047 47.8139 18.3108 46.8987 18.3108ZM11.2058 28.4131C12.108 26.6228 14.6383 25.9726 16.3024 27.5267L19.4739 30.49C18.8015 31.2103 16.6712 33.184 15.074 33.184C13.2052 33.184 11.814 32.0789 11.3362 30.2307C11.1957 29.6885 11.1974 29.0753 11.2058 28.4131ZM10.8724 31.7692C11.6845 33.0023 12.974 33.7955 14.5805 33.7955C16.4066 33.7955 17.6579 32.6999 19.6461 30.6503L22.2573 33.0908C21.3076 34.0656 18.5054 36.8862 15.09 36.8862C15.09 36.8862 11.7982 37.0579 10.8727 34.2999V31.7692H10.8724ZM15.09 40.4796C10.4134 40.4796 10.8364 36.5292 10.8707 36.2572C12.4648 37.4045 14.4372 37.5216 15.117 37.5216C15.833 37.5216 19.1666 36.9507 22.4595 33.2788L25.0205 35.6712C22.9902 37.5717 19.7868 40.4796 15.09 40.4796Z" fill="#1B155D"/>
<path d="M3.10127 40.7866V30.4428C3.10127 20.824 14.7106 15.8628 21.7753 22.4629L32.6369 32.6095C35.6689 35.442 40.6517 33.3123 40.6517 29.1841V22.9885C40.6517 19.8702 37.8972 17.9784 34.9639 17.9784C31.9841 17.9784 28.7724 19.3341 24.8214 23.277L22.7978 21.3871C14.719 13.8399 1.44287 19.513 1.44287 30.5126V39.1437C1.44287 40.0504 2.18583 40.7866 3.10127 40.7866ZM38.7941 30.6842C37.8919 32.4746 35.3616 33.1248 33.6976 31.5706L30.526 28.6074C31.1985 27.8871 33.3288 25.9134 34.9259 25.9134C36.7947 25.9134 38.186 27.0185 38.6638 28.8667C38.8042 29.4086 38.8026 30.0221 38.7941 30.6842ZM39.1275 27.3278C38.3155 26.0948 37.0259 25.3016 35.4195 25.3016C33.5934 25.3016 32.342 26.3972 30.3538 28.4468L27.7427 26.0063C28.6924 25.0314 31.4945 22.2109 34.9099 22.2109C34.9099 22.2109 38.2017 22.0392 39.1273 24.7972V27.3278H39.1275ZM34.9099 18.6174C39.5865 18.6174 39.1635 22.5678 39.1292 22.8399C37.5352 21.6926 35.5627 21.5754 34.883 21.5754C34.167 21.5754 30.8333 22.1463 27.5404 25.8182L24.9795 23.4258C27.0098 21.5256 30.2131 18.6174 34.9099 18.6174Z" fill="#1B155D"/>
</svg>
