<svg width="100" height="100" viewBox="0 0 100 100" fill="none" xmlns="http://www.w3.org/2000/svg">
<path d="M53.3494 29.0137C50.6169 28.0838 47.8947 27.1335 45.152 26.3773C42.3991 25.6416 39.6667 25.0694 36.9138 25.1716C34.1813 25.1613 31.5814 25.8562 29.063 26.9291C26.5549 28.0021 24.1997 29.4531 22.1095 31.1494C20.0092 32.8355 18.1332 34.7974 16.7669 36.9842C15.3803 39.1505 14.5239 41.5519 14.5239 43.9328C14.5035 44.505 14.5646 44.8627 14.6972 45.2919C14.8297 45.7006 15.0336 46.0991 15.3395 46.4977C15.9207 47.2947 16.8485 48.0611 17.9292 48.6946C20.0908 50.0026 22.7519 50.8507 25.4435 51.4639C28.1556 52.0361 30.9493 52.404 33.7429 52.5981C35.1499 52.7105 36.4856 52.7105 37.9334 52.6901L42.236 52.6186L59.4771 52.2507L76.7283 51.9033C82.4788 51.7806 88.2292 51.7091 94 52.0157C88.2802 52.8127 82.5399 53.2317 76.7997 53.5791C71.0595 53.947 65.3192 54.3251 59.579 54.6418L42.3481 55.6024L38.0251 55.817C36.5875 55.8885 35.0582 55.9396 33.59 55.8783C30.6434 55.7761 27.707 55.5002 24.7706 54.9893C23.3024 54.744 21.824 54.4477 20.3558 54.0287C18.8877 53.62 17.3991 53.1397 15.9411 52.4244C14.5035 51.6887 13.0251 50.7588 11.8118 49.2873C11.2306 48.5516 10.7004 47.683 10.3946 46.7225C10.0785 45.7824 9.95614 44.689 10.0071 43.8306C10.1295 40.4176 11.4345 37.2397 13.2392 34.6339C15.0744 32.0282 17.3685 29.8925 19.8664 28.1452C22.3848 26.4182 25.1071 25.0489 27.9823 24.0782C29.4199 23.5979 30.8983 23.2198 32.4073 22.995C33.1617 22.8724 33.9366 22.8111 34.7013 22.7804C35.0887 22.7702 35.4864 22.7804 35.8636 22.7804C36.2409 22.8009 36.6079 22.8213 36.9852 22.8622C39.9929 23.0972 42.9191 23.9453 45.5802 25.1C48.2923 26.2138 50.8514 27.5627 53.3494 29.0137Z" fill="#C4332B"/>
<path d="M35.517 29.0647C38.433 31.9872 38.5451 35.3082 37.0871 39.7022C35.6291 44.0962 31.5814 51.0141 52.0239 50.8404C48.9958 45.0976 51.6875 38.6906 50.1683 35.7578C48.6593 32.8353 45.0092 30.1376 35.517 29.0647Z" fill="#C4332B"/>
<path d="M53.1251 37.0047C54.6545 39.3652 52.6357 44.3723 58.0802 44.3723C63.5248 44.3723 62.6276 42.2366 61.8935 40.6834C61.1798 39.1404 58.8959 36.7799 53.1251 37.0047Z" fill="#C4332B"/>
<path d="M54.216 45.3838C54.216 45.3838 59.7319 45.9254 62.3013 45.4962C62.3013 45.4962 62.9742 48.1939 62.7499 48.1428C62.5256 48.0815 55.0011 49.2668 54.216 45.3838Z" fill="#C4332B"/>
<path d="M54.6647 48.531C54.6647 48.531 61.8323 50.1047 62.7907 49.3791C62.9742 50.9528 62.6276 51.852 59.6606 51.852C56.6834 51.852 55.1133 51.6885 54.6647 48.531Z" fill="#C4332B"/>
<path d="M63.382 39.1403C64.1263 40.8672 65.462 41.9504 67.705 41.9504C69.9481 41.9504 69.8971 41.3168 69.9685 41.0103C70.0399 40.7037 67.6541 38.987 63.382 39.1403Z" fill="#C4332B"/>
<path d="M64.2385 42.4919C64.2385 42.4919 69.0713 42.7781 69.7952 42.6657C70.4987 43.3094 70.6924 44.5459 70.6924 44.5459C70.6924 44.5459 65.0032 45.6597 64.2385 42.4919Z" fill="#C4332B"/>
<path d="M64.6565 45.3838C64.6565 45.3838 69.5709 44.8729 70.9473 46.1706C72.3238 47.4684 72.7418 51.096 72.7418 51.096C72.7418 51.096 66.3184 51.8011 65.5843 50.5646C64.8502 49.318 64.6565 45.3838 64.6565 45.3838Z" fill="#C4332B"/>
<path d="M71.5795 40.8673C72.2932 42.9314 73.0375 50.8508 76.4836 51.0347C79.9298 51.2187 79.104 50.6566 78.6961 49.3078C78.2781 47.9589 77.1973 39.8148 71.5795 40.8673Z" fill="#C4332B"/>
<path d="M77.2279 41.9504C78.6859 43.9737 80.2969 50.9529 81.4184 51.0654C82.5399 51.1778 83.5187 51.4434 83.5187 50.207C83.5187 48.9705 81.5713 44.1678 80.9392 43.2992C80.2969 42.4409 79.4812 41.419 77.2279 41.9504Z" fill="#C4332B"/>
<path d="M81.9078 42.8496C82.6929 43.9021 84.6811 50.8405 85.8026 50.8405C86.9241 50.8405 87.1484 50.1252 86.812 48.9194C86.4755 47.7239 85.3132 42.8496 81.9078 42.8496Z" fill="#C4332B"/>
<path d="M85.6497 42.8497C86.3939 44.0453 87.2198 47.2335 87.7092 47.2028C88.1986 47.1619 90.4824 46.3751 90.4824 44.7299C90.4824 43.0847 86.7712 42.6862 85.6497 42.8497Z" fill="#C4332B"/>
<path d="M88.2903 48.531C89.1876 48.1325 91.0432 45.915 91.0432 45.915C92.0016 47.0084 92.9498 50.0535 92.3891 50.1864C91.8283 50.3294 88.9633 50.2681 88.739 50.1864C88.5147 50.1149 88.2903 48.531 88.2903 48.531Z" fill="#C4332B"/>
<path d="M13.6266 52.1895C14.0243 54.4988 14.0753 55.8477 15.9309 56.3484C17.7865 56.8491 41.8689 57.1352 41.8689 57.1352C32.7233 58.4841 11.1797 60.8241 9.81342 56.8491C9.30363 55.3981 11.8832 52.8128 13.6266 52.1895Z" fill="#C4332B"/>
<path d="M93.3984 59.0665C94.2957 62.6532 93.3984 63.8999 93.3984 63.8999L92.5522 62.1014L91.4918 64.6867L90.4824 62.8882C88.8001 65.6983 86.1085 67.6194 83.9673 67.8442C79.369 70.8791 71.5081 73.2498 68.6941 73.9242C65.8902 74.5987 53.4208 75.2731 52.024 75.1607C47.7009 77.5212 32.9884 80.1167 28.3901 75.9475C25.8106 76.1723 21.09 77.184 16.6038 73.6994C12.342 73.6994 11.0981 71.4514 10.5373 69.4281C7.17271 67.6296 5.70452 65.3816 6.05118 64.1349C6.05118 64.1349 5.93902 61.662 15.8187 62.224C25.6984 62.786 45.7943 69.1624 48.9448 68.6208C43.4391 67.2924 21.1002 61.9992 16.6038 61.8357C22.9456 61.4985 38.4942 62.7963 44.6218 62.2853C50.7495 61.7744 64.891 58.6271 68.7043 58.6271C72.5175 58.6271 83.9673 62.2036 83.9673 62.2036C82.285 60.7423 79.1345 57.9833 76.0554 57.4213C80.1541 57.0228 86.0065 54.6725 90.1256 57.9833C89.5852 56.236 86.9547 55.2243 86.9547 55.2243C89.8095 55.1119 92.44 57.0841 93.2251 58.1468C87.3319 61.9175 78.3495 68.6106 48.3739 70.6952C68.0823 70.2558 82.1729 66.2195 93.3984 59.0665Z" fill="#A4C635"/>
</svg>
