<svg width="100" height="100" viewBox="0 0 100 100" fill="none" xmlns="http://www.w3.org/2000/svg">
<path d="M84.9884 66.2736C84.9884 65.9677 84.9767 65.6735 84.9651 65.3794C84.9651 65.3676 84.9651 65.3676 84.9651 65.3559C84.6157 53.767 80.4583 46.9196 84.9884 24.7537C73.7972 30.8246 57.2609 39.8133 67.0313 56.073C63.7356 58.1672 61.5347 61.8733 61.5347 66.1088C61.5347 71.062 64.5392 75.2976 68.813 77.0624C64.7255 78.1683 60.9408 77.1447 58.1459 75.1211C56.9581 74.274 55.9449 73.2386 55.1763 72.1209C54.07 70.5326 53.4412 68.756 53.4412 67.0618V47.4726C57.0745 46.2019 59.6598 43.0017 59.6598 39.2486C59.6598 38.6603 59.6016 38.0721 59.4735 37.5191L59.6831 37.4603C69.3603 33.9777 71.6428 27.1656 69.3138 19.7888C65.0283 18.4004 60.9291 18.6357 57.5753 21.0476C57.4705 16.0591 54.5591 12.3766 49.9942 10C45.4292 12.3766 42.5179 16.0591 42.4131 21.0594C39.0592 18.6357 34.9717 18.4122 30.6746 19.8005C28.3455 27.1656 30.628 33.9777 40.3053 37.472L40.5149 37.5309C40.3868 38.0956 40.3286 38.6721 40.3286 39.2721C40.3286 43.0253 42.9138 46.2254 46.5472 47.4961V67.0971C46.5472 68.7913 45.9183 70.5679 44.8237 72.1445C44.0434 73.2739 43.0419 74.3093 41.8425 75.1564C39.0476 77.1682 35.2629 78.1918 31.187 77.0976C35.4492 75.3329 38.4537 71.0856 38.4537 66.1441C38.4537 61.9204 36.2527 58.2025 32.9571 56.1083C42.7275 39.8251 26.1911 30.8364 15 24.7655C19.53 46.9196 15.3727 53.767 15.0233 65.3559C15.0233 65.3559 15.0233 65.3676 15.0233 65.3794C15.0116 65.6735 15 65.9677 15 66.2736V66.3088C15 66.4971 15 66.6971 15 66.8971C15 79.4625 27.7167 84.2627 33.8538 84.2627C37.9296 84.2627 39.8278 83.4156 40.643 82.8509C41.726 87.0511 45.4991 90.1572 49.9942 90.1572C54.4893 90.1572 58.274 87.0629 59.357 82.8509C60.1722 83.4156 62.0704 84.2627 66.1462 84.2627C72.2717 84.2627 85 79.4625 85 66.8971C85 66.6971 85 66.5089 85 66.3088V66.2736H84.9884ZM59.357 26.3538C61.5929 24.2007 64.3412 24.3302 64.807 24.3537C64.8303 24.8125 64.9584 27.6009 62.8273 29.8481C60.5681 32.2365 57.5753 32.107 57.156 32.0835C57.1211 31.66 56.993 28.6363 59.357 26.3538ZM42.844 32.0835C42.4247 32.107 39.4435 32.2482 37.1727 29.8481C35.0416 27.6009 35.1697 24.8125 35.193 24.3537C35.6471 24.3184 38.4071 24.2007 40.643 26.3538C42.9953 28.6363 42.8672 31.66 42.844 32.0835ZM24.1183 39.178C29.6498 42.3429 30.9308 51.7198 23.2798 54.7788C23.2332 54.7906 23.1867 54.8024 23.1401 54.8259C23.8039 50.3198 24.4211 45.1195 24.1183 39.178ZM26.7268 71.1562C24.7238 71.1562 23.0003 69.9679 22.2085 68.2501C21.9057 67.603 21.7426 66.8736 21.7426 66.1206C21.7426 65.5559 21.8358 65.0147 21.9988 64.5088C22.6626 62.5086 24.5375 61.085 26.7268 61.085C29.4751 61.085 31.711 63.3322 31.711 66.1206C31.711 68.909 29.4751 71.1562 26.7268 71.1562ZM49.9942 16.4474C50.3319 16.7533 52.3815 18.6357 52.4397 21.7536C52.5096 25.0596 50.3086 27.095 49.9942 27.3774C49.6798 27.095 47.4671 25.0596 47.5487 21.7536C47.6185 18.6357 49.6565 16.7533 49.9942 16.4474ZM49.9942 83.1686C48.4686 83.1686 47.2342 81.9214 47.2342 80.3802C47.2342 78.8389 49.9942 76.5564 49.9942 76.5564C49.9942 76.5564 52.7658 78.8389 52.7658 80.3802C52.7658 81.9214 51.5197 83.1686 49.9942 83.1686ZM49.9942 41.7664C48.4686 41.7664 47.2342 40.6369 47.2342 39.2486C47.2342 37.8603 48.4686 36.7308 49.9942 36.7308C51.5197 36.7308 52.7658 37.8603 52.7658 39.2486C52.7658 40.6487 51.5197 41.7664 49.9942 41.7664ZM75.8701 39.178C75.5789 45.1195 76.1961 50.308 76.8366 54.8259C76.7901 54.8141 76.7435 54.7906 76.6969 54.7788C69.0576 51.7198 70.3385 42.3546 75.8701 39.178ZM77.7915 68.2384C76.9997 69.9679 75.2762 71.1562 73.2732 71.1562C70.5132 71.1562 68.289 68.909 68.289 66.1206C68.289 63.3322 70.5249 61.085 73.2732 61.085C75.4741 61.085 77.3374 62.5086 78.0012 64.5088C78.1642 65.0147 78.2574 65.5559 78.2574 66.1206C78.2574 66.8736 78.0943 67.5913 77.7915 68.2384Z" fill="#D1A663"/>
</svg>
