<svg width="100" height="100" viewBox="0 0 100 100" fill="none" xmlns="http://www.w3.org/2000/svg">
<path d="M75.6336 69.366H25.0637C17.4505 69.4768 12.8936 66.3744 10.1984 62.8841C5.41929 56.7624 6.25286 48.8955 11.0876 42.8014C16.8392 35.5439 26.2307 30.7517 34.9554 30.7517H92.9996V52.0256C92.9996 61.6099 85.2196 69.366 75.6336 69.366Z" fill="#DF372F"/>
<path d="M24.6471 70.3356C18.0619 70.3356 12.9215 68.0364 9.39275 63.4659C4.58584 57.3164 4.94705 48.9509 10.3097 42.2197C16.2836 34.6575 25.953 29.7822 34.9555 29.7822H94V52.0533C94 62.1363 85.7755 70.3633 75.6337 70.3633H25.0639C24.8971 70.3356 24.786 70.3356 24.6471 70.3356ZM34.9555 31.7213C26.5365 31.7213 17.4784 36.3195 11.8379 43.4108C7.05876 49.4495 6.72533 56.8455 10.9487 62.2748C14.1719 66.4021 18.8954 68.452 25.0361 68.3689H75.6337C84.664 68.3689 92.0272 61.0283 92.0272 52.0256V31.7213H34.9555Z" fill="black"/>
<path d="M71.9659 52.5519C72.8273 52.6073 73.633 53.2444 73.8831 54.1031C74.022 54.5186 74.022 54.9895 73.8831 55.405C73.7442 55.8205 73.4941 56.236 73.1329 56.513C72.7717 56.79 72.3549 56.9839 71.8825 57.0393H71.7158H71.4658H70.9378L69.9098 57.067L65.7697 57.1224L49.2372 57.3717V58.9784L65.7697 59.2277L69.9098 59.2831L70.9378 59.3108H71.4658H71.7158H72.0493C72.9662 59.2554 73.8553 58.923 74.6055 58.3689C75.328 57.8149 75.9115 57.0393 76.1893 56.1529C76.495 55.2665 76.5227 54.297 76.2727 53.4106C76.0226 52.4965 75.4947 51.6932 74.7722 51.0837C74.411 50.779 74.022 50.5297 73.5775 50.3358C73.1329 50.1419 72.6883 50.0311 72.216 49.9757C72.1048 49.9757 71.9937 49.948 71.8548 49.948H71.688H71.5491H71.0212L69.9931 49.9203L67.937 49.8926L63.8247 49.8095L55.5446 49.6987L39.0121 49.4494H38.2619L37.7062 49.9757L33.0938 54.6294L30.7598 56.9562L29.5928 58.1196L29.0927 58.5628C28.9259 58.7014 28.7314 58.8122 28.5647 58.9507C27.1477 59.9479 25.286 60.3357 23.5633 60.0033C21.8406 59.6986 20.2568 58.6737 19.2565 57.2055C18.2563 55.7651 17.8673 53.9092 18.2007 52.1641C18.3674 51.3054 18.7008 50.4743 19.201 49.7264L19.59 49.2001L20.0345 48.7015L21.2015 47.5381L22.4519 46.2916H31.2599L36.0391 41.5271H27.231L28.2035 40.5576L28.3425 40.4191L28.4536 40.3083C28.5369 40.2529 28.5925 40.1698 28.6759 40.1144C28.8148 40.0036 28.9815 39.8928 29.1482 39.782C29.4817 39.5881 29.8707 39.4496 30.2319 39.3665C30.4264 39.3388 30.6209 39.3111 30.8154 39.2834H30.9543H31.1488H31.5656H33.2049L36.5114 39.2557L43.0966 39.228L56.2948 39.1449L82.6634 39.0064V36.5688L56.3226 36.4302L43.1244 36.3471L36.5392 36.3194L33.2327 36.2917H31.5934H31.1766H30.9821H30.7042C30.343 36.2917 30.0096 36.3471 29.6484 36.4025C28.9537 36.5411 28.2869 36.7904 27.6478 37.1228C27.3422 37.289 27.0365 37.4829 26.7587 37.7045C26.6197 37.8153 26.4808 37.9261 26.3419 38.0369L26.1474 38.2308L26.0085 38.3693L23.6745 40.6684L18.9787 45.3221L17.8117 46.4855L17.1448 47.178C16.9503 47.4273 16.7558 47.7043 16.5613 47.9536C15.8389 49.0339 15.311 50.2804 15.0609 51.5547C14.533 54.1308 15.0887 56.9008 16.5613 59.0615C17.2838 60.1418 18.2285 61.1113 19.3399 61.8315C20.4513 62.5517 21.6739 63.078 22.9798 63.3273C25.5639 63.8536 28.3702 63.2996 30.5653 61.8038C30.8432 61.6099 31.121 61.416 31.3711 61.2221C31.6212 61.0005 31.8712 60.7789 32.0935 60.5573L33.2605 59.3939L35.5945 57.0947L39.7623 52.9951L71.9659 52.5519Z" fill="#010203"/>
<path d="M42.7552 62.267C44.5617 61.7217 45.5828 59.8196 45.0358 58.0186C44.4888 56.2176 42.5809 55.1997 40.7743 55.745C38.9678 56.2904 37.9468 58.1924 38.4938 59.9934C39.0408 61.7944 40.9487 62.8123 42.7552 62.267Z" fill="#010203"/>
<path d="M74.1888 41.4438H41.3462L36.9005 45.8759C37.8174 45.5712 61.3518 45.9867 73.4941 46.236C77.4119 46.3191 80.5795 49.5047 80.5795 53.4381C80.5795 57.427 77.3563 60.6402 73.3552 60.6402H49.0706V61.9421H74.1888C79.857 61.9421 84.4695 57.3716 84.4695 51.693C84.4695 46.0144 79.8848 41.4438 74.1888 41.4438Z" fill="#010203"/>
</svg>
