<svg width="100" height="100" viewBox="0 0 100 100" fill="none" xmlns="http://www.w3.org/2000/svg">
<path d="M80.731 68H83.7298C86.5328 68 88.9756 66.0826 89.6959 63.3182L94.7146 44.0796H91.7159C88.9129 44.0796 86.4701 45.9971 85.7498 48.7614L80.731 68Z" fill="#007421"/>
<path d="M73.3635 60.0905H76.3622C79.1652 60.0905 81.608 58.173 82.3283 55.4086L85.2644 44.0796H82.2657C79.4627 44.0796 77.0199 45.9971 76.2995 48.7614L73.3635 60.0905Z" fill="#007421"/>
<path d="M63.9132 60.0905H66.9119C69.7149 60.0905 72.1577 58.173 72.8781 55.4086L75.8141 44.0796H72.8154C70.0124 44.0796 67.5696 45.9971 66.8493 48.7614L63.9132 60.0905Z" fill="#007421"/>
<path d="M54.4551 60.0905H57.4616C60.2646 60.0905 62.7075 58.173 63.4278 55.4086L66.3639 44.0796H63.3651C60.5622 44.0796 58.1193 45.9971 57.399 48.7614L54.4551 60.0905Z" fill="#007421"/>
<path d="M98.0504 31.7358L97.3457 34.4363H39.7985C36.1734 34.4363 32.7049 35.9623 30.2073 38.6547L15.2137 54.8573C13.3111 56.9106 14.7361 60.2822 17.5077 60.2822H44.6685L49.4523 41.9783C50.1961 39.1261 52.7329 37.1367 55.622 37.1367H96.6489L96.2731 38.5748C95.725 40.684 93.8459 42.1541 91.7085 42.1541H57.3367L51.762 63.5179C51.073 66.1624 48.7242 68 46.0465 68H8.01829C2.70985 68 -0.0304935 61.5205 3.61808 57.5817L21.5243 38.2313C25.3686 34.0847 30.7084 31.7358 36.2987 31.7358H98.0504Z" fill="#007421"/>
<path d="M54.5334 64.6924L54.2202 65.9467H53.265H53.1867L53.4999 64.6924H52.4742L51.8557 67.2091H51.3389L51.1588 67.9441H52.1845C52.3333 67.9441 52.4664 67.8962 52.5838 67.7923C52.7091 67.6884 52.7874 67.5686 52.8265 67.4168L53.0066 66.6818H53.0849H54.549C54.69 66.6818 54.8231 66.6338 54.9484 66.53C55.0736 66.4261 55.1519 66.3063 55.1911 66.1624L55.5512 64.6924H54.5334Z" fill="#007421"/>
<path d="M55.4024 63.2303C55.5199 63.2303 55.6217 63.1904 55.7235 63.1105C55.8252 63.0306 55.8879 62.9267 55.9192 62.8149C55.9505 62.703 55.9349 62.5992 55.8722 62.5193C55.8096 62.4394 55.7235 62.3994 55.6138 62.3994C55.5042 62.3994 55.3946 62.4394 55.2928 62.5193C55.191 62.5992 55.1284 62.703 55.0971 62.8149C55.0658 62.9267 55.0814 63.0306 55.1441 63.1105C55.2067 63.1904 55.2928 63.2303 55.4024 63.2303Z" fill="#007421"/>
<path d="M54.7604 64.1729C54.8701 64.1729 54.9797 64.133 55.0815 64.0531C55.1832 63.9732 55.2459 63.8693 55.2772 63.7575C55.3085 63.6376 55.2929 63.5418 55.2302 63.4619C55.1676 63.382 55.0815 63.342 54.9718 63.342C54.8544 63.342 54.7526 63.382 54.6508 63.4619C54.549 63.5418 54.4864 63.6456 54.4551 63.7575C54.4238 63.8693 54.4394 63.9732 54.5021 64.0531C54.5647 64.133 54.6508 64.1729 54.7604 64.1729Z" fill="#007421"/>
<path d="M55.4729 63.4539C55.3711 63.5338 55.3085 63.6377 55.2772 63.7495C55.2459 63.8614 55.2615 63.9652 55.3242 64.0451C55.3868 64.125 55.4729 64.173 55.5825 64.173C55.7 64.173 55.8018 64.133 55.9035 64.0531C56.0053 63.9732 56.068 63.8694 56.0993 63.7575C56.1306 63.6377 56.1149 63.5418 56.0523 63.4619C55.9897 63.382 55.9036 63.3421 55.7939 63.3421C55.6765 63.3341 55.5747 63.374 55.4729 63.4539Z" fill="#007421"/>
<path d="M59.5208 63.5897C59.3956 63.6936 59.3173 63.8134 59.2781 63.9572L58.9179 65.4273H60.9693L60.8362 65.9546H58.2759L58.456 65.2196C58.4952 65.0678 58.4795 64.94 58.4012 64.8441C58.3307 64.7482 58.2211 64.7003 58.0724 64.7003H56.5299C56.3812 64.7003 56.2481 64.7482 56.1228 64.8441C56.0054 64.94 55.9192 65.0678 55.8879 65.2196L55.5278 66.6896H57.0702L56.9371 67.2169H55.3946L55.2146 67.952H57.2659C57.4147 67.952 57.5478 67.904 57.6652 67.8002C57.7905 67.6963 57.8688 67.5765 57.9001 67.4247L58.0802 66.6896H58.1585H61.1572C61.2981 66.6896 61.4312 66.6417 61.5565 66.5378C61.6818 66.434 61.7601 66.3141 61.7992 66.1703L62.0341 65.2276C62.0733 65.0758 62.0576 64.9479 61.9793 64.8521C61.9088 64.7562 61.7992 64.7083 61.6426 64.7083H60.1237L60.2568 64.181H62.5195L62.6996 63.4459H59.928C59.7792 63.4379 59.6461 63.4859 59.5208 63.5897ZM57.2503 65.9546H56.7335L56.8666 65.4273H57.3834L57.2503 65.9546Z" fill="#007421"/>
<path d="M65.6905 67.113C65.6279 67.0331 65.5418 66.9932 65.4321 66.9932C65.3225 66.9932 65.2129 67.0331 65.1111 67.121C65.0093 67.2089 64.9467 67.3048 64.9154 67.4166C64.8841 67.5365 64.8997 67.6323 64.9624 67.7122C65.025 67.7921 65.1111 67.8321 65.2207 67.8321C65.3382 67.8321 65.44 67.7921 65.5418 67.7122C65.6435 67.6323 65.7062 67.5285 65.7375 67.4166C65.761 67.2968 65.7453 67.1929 65.6905 67.113Z" fill="#007421"/>
<path d="M66.2542 66.9932C66.1368 66.9932 66.035 67.0331 65.9332 67.113C65.8314 67.1929 65.7688 67.2968 65.7375 67.4086C65.7062 67.5285 65.7218 67.6243 65.7845 67.7042C65.8471 67.7841 65.9332 67.8241 66.0428 67.8241C66.1525 67.8241 66.2621 67.7841 66.3639 67.7042C66.4657 67.6243 66.5283 67.5205 66.5596 67.4086C66.5909 67.2888 66.5753 67.1929 66.5126 67.113C66.45 67.0331 66.3639 66.9932 66.2542 66.9932Z" fill="#007421"/>
<path d="M70.5292 65.9545H70.0124L70.3256 64.7002H69.3L68.9868 65.9545H68.47L68.7832 64.7002H67.7575L67.4444 65.9545H67.0059H66.9276L67.2408 64.7002H66.2151L65.9019 65.9545H64.9467H64.8684L65.1816 64.7002H64.1559L63.5374 67.2169H63.0207L62.8406 67.9519H63.8662C64.015 67.9519 64.1481 67.904 64.2656 67.8001C64.3908 67.6962 64.4691 67.5764 64.5083 67.4246L64.6883 66.6896H64.7666H66.2308C66.3717 66.6896 66.5048 66.6416 66.6301 66.5378C66.6692 66.5058 66.7005 66.4739 66.7319 66.4339L66.6692 66.6896H66.7397H66.818H70.8502C71.0068 66.6896 71.1477 66.6257 71.2808 66.5058C71.3904 66.402 71.4609 66.2901 71.4922 66.1623L71.8524 64.7002H70.8267L70.5292 65.9545Z" fill="#007421"/>
<path d="M77.1138 67.113C77.0512 67.0331 76.9651 66.9932 76.8555 66.9932C76.7458 66.9932 76.6362 67.0331 76.5345 67.121C76.4327 67.2009 76.37 67.3048 76.3387 67.4166C76.3074 67.5365 76.3231 67.6323 76.3857 67.7122C76.4483 67.7921 76.5345 67.8321 76.6441 67.8321C76.7537 67.8321 76.8633 67.7921 76.9651 67.7122C77.0669 67.6323 77.1295 67.5285 77.1608 67.4166C77.1921 67.2968 77.1765 67.1929 77.1138 67.113Z" fill="#007421"/>
<path d="M77.6776 66.9932C77.5601 66.9932 77.4584 67.0331 77.3566 67.113C77.2548 67.1929 77.1921 67.2968 77.1608 67.4086C77.1295 67.5285 77.1452 67.6243 77.2078 67.7042C77.2704 67.7841 77.3566 67.8241 77.4662 67.8241C77.5836 67.8241 77.6854 67.7841 77.7872 67.7042C77.889 67.6243 77.9516 67.5205 77.9829 67.4086C78.0143 67.2888 77.9986 67.1929 77.936 67.113C77.8812 67.0331 77.795 66.9932 77.6776 66.9932Z" fill="#007421"/>
<path d="M77.6384 64.6923L77.3252 65.9466H76.37H76.2917L77.0903 62.7029H76.0647L74.9607 67.2089H73.7315L74.2482 65.1157H73.2226L72.651 67.4167C72.6119 67.5685 72.6353 67.6883 72.7058 67.7922C72.7763 67.896 72.8859 67.944 73.0346 67.944H75.2896C75.4383 67.944 75.5714 67.896 75.6889 67.7922C75.8141 67.6883 75.8924 67.5685 75.9316 67.4167L76.1117 66.6816H76.19H77.6619C77.8028 66.6816 77.9359 66.6337 78.0612 66.5298C78.1865 66.426 78.2648 66.3061 78.3039 66.1623L78.6641 64.6923H77.6384Z" fill="#007421"/>
<path d="M79.6428 64.6924L79.0243 67.2091H78.5075L78.3274 67.9441H79.3531C79.5019 67.9441 79.635 67.8962 79.7524 67.7923C79.8777 67.6884 79.956 67.5686 79.9951 67.4168L80.6685 64.6924H79.6428Z" fill="#007421"/>
</svg>
