<svg width="100" height="100" viewBox="0 0 100 100" fill="none" xmlns="http://www.w3.org/2000/svg">
<path d="M24.0992 50.337C23.4227 51.4095 24.1994 52.7871 25.4773 52.7871H38.7405C38.8825 52.7871 39.0245 52.7294 39.1247 52.6304C39.4672 52.2922 39.225 51.7064 38.7405 51.7064H26.9139C26.4461 51.7064 26.1622 51.2032 26.4127 50.8072L30.973 43.6054C31.1818 43.2671 31.5577 43.0691 31.9586 43.0691H54.2756C55.7873 43.0691 56.7729 44.6366 56.088 45.973L48.3706 61.2182C47.3015 63.3384 45.1132 64.6665 42.7245 64.6665H35.6586V64.6418C35.9175 61.7544 34.2137 58.9908 31.4407 58.0421C26.8387 56.4747 22.554 59.8075 22.554 64.1303C22.554 64.3118 22.5624 64.4933 22.5791 64.6665H8.39712C2.30839 64.6665 -0.322541 57.0604 4.47995 53.3729L25.5024 37.2614C26.0787 36.8159 26.7802 36.585 27.5069 36.585H97.356C97.8739 36.585 98.1746 37.1542 97.8906 37.5749L95.4685 41.1635C95.3515 41.3367 95.1511 41.444 94.9339 41.444H31.2069C30.9229 41.444 30.6556 41.576 30.4886 41.7987L24.0992 50.337Z" fill="#2E3094"/>
<path d="M34.0389 64.1303C34.0389 64.3118 34.0306 64.4932 34.0055 64.6665H24.2335C24.2085 64.485 24.2001 64.3118 24.2001 64.1303C24.2001 61.4492 26.4051 59.2713 29.1195 59.2713C31.834 59.263 34.0389 61.4409 34.0389 64.1303Z" fill="#2E3094"/>
<path d="M82.6986 44.1582L72.5257 64.246C72.4004 64.5017 72.1332 64.6667 71.8408 64.6667H69.1765C68.6085 64.6667 68.241 64.0727 68.4916 63.5777L78.6645 43.4818C78.7898 43.226 79.0571 43.061 79.3494 43.061H82.0138C82.5817 43.0693 82.9492 43.655 82.6986 44.1582Z" fill="#2E3094"/>
<path d="M76.6851 44.1582L66.5122 64.246C66.3869 64.5017 66.1197 64.6667 65.8273 64.6667H62.0689C61.5009 64.6667 61.1334 64.0727 61.384 63.5777L71.5569 43.4818C71.6822 43.226 71.9495 43.061 72.2418 43.061H76.0003C76.5682 43.0693 76.9357 43.655 76.6851 44.1582Z" fill="#2E3094"/>
<path d="M69.5774 44.1582L59.4045 64.246C59.2792 64.5017 59.0119 64.6667 58.7196 64.6667H50.5846C50.0166 64.6667 49.6491 64.0727 49.8997 63.5777L60.0726 43.4818C60.1979 43.226 60.4652 43.061 60.7575 43.061H68.8925C69.4605 43.0693 69.828 43.655 69.5774 44.1582Z" fill="#2E3094"/>
</svg>
