<svg width="100" height="100" viewBox="0 0 100 100" fill="none" xmlns="http://www.w3.org/2000/svg">
<path d="M55.8519 28.8486C55.8519 29.1408 55.9704 29.4056 56.162 29.5973C56.3536 29.7891 56.6181 29.9077 56.91 29.9077H96.5639L96.1443 31.0764H55.5235C54.9396 31.0764 54.4653 31.5512 54.4653 32.1355C54.4653 32.4277 54.5839 32.6925 54.7754 32.8842C54.967 33.0759 55.2316 33.1946 55.5235 33.1946H95.3781L94.7304 34.9933C94.7304 34.9933 54.8849 34.9933 52.2577 34.9933C47.9156 34.9933 40.1162 38.4628 40.1162 45.347C40.1162 52.2312 43.9019 52.3682 45.1972 52.3682C46.4925 52.3682 49.8677 51.8477 55.4687 46.5248C55.934 46.0865 56.8735 46.6161 56.2715 47.52C55.6694 48.4239 54.9123 49.8482 54.9123 51.0808C54.9123 52.3134 55.788 53.1625 57.4756 53.1625C61.8816 53.1625 64.1712 48.0313 66.8258 48.0313C69.4803 48.0313 69.7357 51.9847 70.7757 51.9847C72.1166 51.9847 72.892 49.2182 76.2672 48.4513C76.9878 48.2869 77.2615 47.6935 77.2615 47.2735C77.2615 46.8626 76.2489 46.4152 75.6925 46.6983C75.136 46.9722 73.9867 46.9083 73.9867 45.7761C73.9867 44.644 75.5557 42.1971 75.5557 42.1971C76.4314 40.791 76.8054 40.0058 79.5968 40.2341C79.5968 40.2341 85.9458 40.5354 86.5935 40.581C87.2411 40.6267 88.4817 40.6267 88.4817 42.1971C88.4817 43.7675 86.6573 46.8444 86.3563 47.2552C86.0553 47.6752 85.0883 48.0678 84.2764 48.57C79.0859 51.8295 73.6765 51.8295 69.0607 63.7079H40.3716C40.0979 62.9501 39.7239 62.2288 39.2587 61.5806H65.0743C65.0743 61.5806 66.2237 59.5445 66.5247 58.878C66.8258 58.2115 66.9626 56.8876 66.8258 56.1755C66.6889 55.4633 66.1325 54.2764 64.5361 54.2764C63.5509 54.2764 62.6935 54.5959 62.6935 54.5959C60.3673 56.7233 57.43 58.6406 55.5143 58.6406C53.5987 58.6406 53.0696 57.0428 53.0696 55.6642C53.0696 54.2764 53.9727 52.7516 53.1882 52.7516C51.756 52.7516 50.0684 58.248 43.7924 58.248C37.5164 58.248 37.8174 51.9208 37.8174 50.7156C37.8174 49.5104 38.7661 41.7953 42.0409 35.8333C42.2599 35.4407 42.9896 34.3816 41.2108 34.3816C25.4022 34.3816 9.93102 51.8934 9.03705 58.7593C9.03705 58.7593 8.69041 61.6536 11.3632 61.6536H24.5903C23.5869 63.1053 23.003 64.8583 23.003 66.7483C23.003 67.0496 23.0213 67.3509 23.0487 67.6522H5.8443C2.79751 67.6613 2.03125 66.0179 2.03125 63.7992C2.03125 61.2793 3.55465 57.2894 16.9916 43.6031C30.0545 30.3003 37.5346 26 50.6431 26H97.9688L97.3302 27.7895H56.91C56.3262 27.7895 55.8519 28.2643 55.8519 28.8486Z" fill="#01288F"/>
<path d="M67.6377 65.5339L66.7254 67.6613H40.8642C40.8916 67.3691 40.9098 67.0678 40.9098 66.7574C40.9098 66.3374 40.8824 65.9357 40.8277 65.5339H67.6377Z" fill="#01288F"/>
<path d="M31.9519 73.2309C35.5239 73.2309 38.4195 70.3327 38.4195 66.7575C38.4195 63.1824 35.5239 60.2842 31.9519 60.2842C28.38 60.2842 25.4843 63.1824 25.4843 66.7575C25.4843 70.3327 28.38 73.2309 31.9519 73.2309Z" fill="#EB5401"/>
</svg>
