<svg width="100" height="100" viewBox="0 0 100 100" fill="none" xmlns="http://www.w3.org/2000/svg">
<path d="M84.4174 57.8657C84.4174 57.5745 84.4174 57.2833 84.3932 56.9921V56.9678C84.0534 45.6841 79.9514 39.0109 84.4174 17.4383C73.4223 23.3593 57.1359 32.0951 66.7475 47.9166C63.4951 49.9549 61.3349 53.5706 61.3349 57.6958C61.3349 62.5248 64.2961 66.65 68.4951 68.3486C64.4902 69.4163 60.7524 68.4214 58.0097 66.4559C56.8446 65.6308 55.8495 64.6359 55.0728 63.5197C53.9805 61.9666 53.3737 60.2437 53.3737 58.5936V39.5205C56.9417 38.2829 59.4902 35.1769 59.4902 31.5127C59.4902 30.9303 59.4174 30.3722 59.2961 29.814L59.4902 29.7412C69.0048 26.344 71.2621 19.7193 68.9563 12.5366C64.733 11.1777 60.7038 11.4203 57.4029 13.7499C57.3058 8.89666 54.4417 5.30528 49.9514 3C45.4611 5.30528 42.597 8.89666 42.4999 13.7499C39.199 11.3961 35.1698 11.1777 30.9465 12.5123C28.665 19.6951 30.898 26.3197 40.4126 29.717L40.631 29.7655C40.5097 30.3236 40.4368 30.8818 40.4368 31.4641C40.4368 35.1283 42.9854 38.2344 46.5533 39.472V58.5451C46.5533 60.1952 45.9465 61.9181 44.8543 63.4711C44.1019 64.5631 43.1067 65.5823 41.9174 66.4073C39.1747 68.3729 35.4611 69.3678 31.432 68.3001C35.631 66.5772 38.5679 62.452 38.5679 57.6473C38.5679 53.522 36.4077 49.9064 33.1553 47.868C42.864 32.1193 26.5776 23.3835 15.5825 17.4626C20.0485 39.0352 15.9465 45.7083 15.6067 56.9921C15.6067 56.9921 15.6067 56.9921 15.6067 57.0163C15.6067 57.3075 15.5825 57.5987 15.5825 57.8899V57.9142C15.5825 58.1083 15.5825 58.3025 15.5825 58.4966C15.5825 70.7267 28.0825 75.3858 34.1262 75.3858C38.131 75.3858 39.9999 74.5607 40.8009 74.0026C41.8689 78.1036 45.5825 81.1126 49.9999 81.1126C54.4174 81.1126 58.131 78.1036 59.199 74.0026C60 74.5607 61.8689 75.3858 65.8737 75.3858C71.8932 75.3858 84.4174 70.7024 84.4174 58.4966C84.4174 58.3025 84.4174 58.1083 84.4174 57.9142V57.8657ZM59.199 19.0156C61.3834 16.9287 64.1019 17.0501 64.5631 17.0743C64.5873 17.5111 64.7087 20.2289 62.6213 22.4129C60.3883 24.7424 57.4514 24.5968 57.0388 24.5726C57.0145 24.1843 56.8932 21.2481 59.199 19.0156ZM42.9611 24.5968C42.5485 24.6211 39.6116 24.7667 37.3786 22.4371C35.2669 20.2532 35.4126 17.5354 35.4368 17.0986C35.8737 17.0743 38.5922 16.953 40.8009 19.0399C43.131 21.2481 42.9854 24.1843 42.9611 24.5968ZM24.563 31.5127C29.9999 34.5945 31.2621 43.7185 23.7378 46.7033C23.6893 46.7033 23.6407 46.7275 23.6164 46.7518C24.2475 42.3354 24.8543 37.288 24.563 31.5127ZM27.1116 62.6218C25.1456 62.6218 23.4465 61.457 22.6698 59.7827C22.3786 59.1518 22.2087 58.448 22.2087 57.7201C22.2087 57.1619 22.3058 56.6524 22.4514 56.167C23.1067 54.2257 24.9514 52.8426 27.1116 52.8426C29.8058 52.8426 32.0145 55.0265 32.0145 57.7443C32.0145 60.4379 29.83 62.6218 27.1116 62.6218ZM49.9999 9.38199C50.3398 9.67318 52.3543 11.5174 52.4029 14.5507C52.4757 17.7781 50.2912 19.7436 49.9999 20.0348C49.6844 19.7679 47.5242 17.7781 47.597 14.5507C47.6698 11.4931 49.6601 9.67318 49.9999 9.38199ZM49.9999 74.3181C48.4951 74.3181 47.2815 73.1048 47.2815 71.6003C47.2815 70.0958 49.9999 67.8876 49.9999 67.8876C49.9999 67.8876 52.7184 70.12 52.7184 71.6003C52.7184 73.1048 51.5048 74.3181 49.9999 74.3181ZM49.9999 34.0121C48.4951 34.0121 47.2815 32.9201 47.2815 31.5612C47.2815 30.2023 48.4951 29.1103 49.9999 29.1103C51.5048 29.1103 52.7184 30.2023 52.7184 31.5612C52.7184 32.9201 51.5048 34.0121 49.9999 34.0121ZM75.4611 31.5127C75.1699 37.288 75.7767 42.3596 76.4077 46.7518C76.3592 46.7275 76.3106 46.7275 76.2864 46.7033C68.7621 43.6943 70.0242 34.5945 75.4611 31.5127ZM77.3543 59.7827C76.5776 61.457 74.8786 62.6218 72.9126 62.6218C70.1941 62.6218 68.0097 60.4379 68.0097 57.7201C68.0097 55.0023 70.1941 52.8183 72.9126 52.8183C75.0728 52.8183 76.9174 54.2015 77.5728 56.1428C77.7427 56.6281 77.8155 57.1619 77.8155 57.6958C77.7912 58.448 77.6456 59.1518 77.3543 59.7827Z" fill="#6DABC7"/>
<path d="M21.9175 83.1509L23.6651 87.9798L28.8107 88.1497L24.7573 91.3286L26.1893 96.2789L21.9175 93.3912L17.6456 96.2789L19.0534 91.3286L15 88.1497L20.1456 87.9798L21.9175 83.1509Z" fill="#6DABC7"/>
<path d="M35.9466 83.1509L37.7185 87.9798L42.8641 88.1497L38.8107 91.3286L40.2185 96.2789L35.9466 93.3912L31.6748 96.2789L33.1068 91.3286L29.0534 88.1497L34.199 87.9798L35.9466 83.1509Z" fill="#6DABC7"/>
<path d="M50 83.1509L51.7718 87.9798L56.9175 88.1497L52.8398 91.3286L54.2718 96.2789L50 93.3912L45.7282 96.2789L47.1602 91.3286L43.0825 88.1497L48.2524 87.9798L50 83.1509Z" fill="#6DABC7"/>
<path d="M64.0533 83.1509L65.8009 87.9798L70.9708 88.1497L66.8932 91.3286L68.3252 96.2789L64.0533 93.3912L59.7815 96.2789L61.2135 91.3286L57.1359 88.1497L62.2815 87.9798L64.0533 83.1509Z" fill="#6DABC7"/>
<path d="M78.1068 83.1509L79.8544 87.9798L85 88.1497L80.9466 91.3286L82.3787 96.2789L78.1068 93.3912L73.835 96.2789L75.2427 91.3286L71.1893 88.1497L76.335 87.9798L78.1068 83.1509Z" fill="#6DABC7"/>
</svg>
