<svg width="100" height="100" viewBox="0 0 100 100" fill="none" xmlns="http://www.w3.org/2000/svg">
<path d="M75.6485 31.4203C75.2594 30.4767 76.055 30.733 76.293 31.0184C79.0396 34.3737 80.5725 36.9425 81.2519 42.9657C81.3475 44.492 81.1504 46.0225 80.6712 47.4743C79.1954 52.9614 76.0066 57.8302 71.5722 61.3672C67.9497 64.1391 64.0219 66.4845 59.866 68.3574C59.6105 68.4797 59.506 68.9399 59.3318 69.2195C59.5815 69.3243 59.8544 69.5573 60.0808 69.5224C60.7283 69.4199 61.3616 69.242 61.968 68.9923C67.8314 66.5445 73.0129 62.702 77.0653 57.7964C79.5912 54.68 81.5248 51.1791 82.0416 47.0724C82.0765 46.8278 82.0416 46.4025 82.2913 46.4142C82.4249 46.4724 82.4423 46.6413 82.5062 46.8744C83.3469 50.4003 83.1101 54.0985 81.8268 57.4877C80.6337 60.6162 78.9456 63.5313 76.8272 66.1205C74.8356 68.637 72.0716 70.233 69.3192 71.7942C66.0036 73.6757 62.2932 74.532 58.7569 75.8718C57.0149 76.5183 57.642 77.1533 58.0485 77.1183C60.5789 76.812 63.0571 76.1674 65.4171 75.2019C68.4192 74.0368 71.4793 72.8718 73.8252 70.5068C73.9239 70.4078 74.1213 70.4136 74.2781 70.367C74.2781 70.5418 74.4175 70.7864 74.342 70.8913C73.0065 72.7611 71.6825 74.6019 69.6967 75.9533C66.2344 78.4474 62.3424 80.2782 58.2169 81.3532C54.518 82.2386 50.7785 82.6697 46.9055 81.9765C42.3937 81.1668 38.2594 79.3901 34.0089 77.8348C31.0533 76.7455 28.0106 75.662 24.7821 75.2601C22.1982 74.9397 20.0497 73.4252 18.0116 71.8524C17.4309 71.3806 17.7909 71.4097 18.18 71.2699C21.7685 70.0525 25.3454 69.3768 28.8816 71.4505C30.6151 72.4246 32.5523 72.9773 34.5373 73.0641C36.0612 73.1089 37.5751 72.802 38.962 72.167C43.0963 70.5243 47.1958 68.8292 51.3766 67.3088C51.6925 67.2504 51.9735 67.0716 52.1608 66.8099C52.348 66.5482 52.427 66.2239 52.3812 65.905C52.416 64.2623 52.2476 62.5672 52.6018 60.9944C53.2754 58.0294 55.389 56.2295 58.002 54.7499C61.5349 52.7931 64.5462 50.0119 66.7817 46.6413C69.8418 41.9813 69.4063 34.4086 68.6398 32.032C68.0592 30.1563 65.7772 24.4593 58.7163 18.4769C58.5479 18.3313 58.1356 17.8537 58.4085 17.8362C58.5885 17.7954 58.7685 17.7371 58.9543 17.7138C60.3421 17.5333 61.5789 18.11 62.7925 18.6167C69.987 21.5934 74.4407 30.267 74.9865 34.8921C76.2233 46.0006 69.1799 54.4936 65.8004 57.2139C64.3519 58.2922 62.8286 59.2655 61.2422 60.1265C60.7834 60.3886 60.3073 60.6041 60.6615 61.14C60.7889 61.2835 60.961 61.3795 61.1498 61.4123C61.3385 61.4451 61.5328 61.4128 61.7009 61.3206C63.4273 60.5267 65.0643 59.5503 66.5843 58.4081C80.2474 47.9695 76.4963 33.4708 75.6485 31.4203Z" fill="#165BA4"/>
<path d="M29.8455 54.9013C32.8186 57.9421 36.1748 60.3944 40.2511 61.74C40.5075 61.8484 40.7768 61.9229 41.0524 61.9614C42.0163 61.9614 41.5866 60.9187 41.3834 60.7964C39.833 60.0915 38.1723 59.5847 36.7381 58.7168C30.8791 55.2217 26.6228 50.4277 25.0609 43.5249C23.7718 37.8163 25.0028 32.7077 27.8945 27.7155C30.5365 23.172 34.5838 20.5565 39.1827 18.4944C39.4323 18.3837 40.344 18.1274 40.5588 18.4944C40.5676 18.5757 40.5557 18.6578 40.5242 18.7332C40.4927 18.8086 40.4427 18.8747 40.3788 18.9255C39.6298 19.6594 38.8575 20.3934 38.1258 21.1739C35.338 24.0503 33.2114 27.5038 31.8953 31.2922C30.3391 35.8358 30.6701 40.1463 32.296 44.6317C33.9218 49.117 37.2316 51.7092 41.064 53.9227C42.7787 54.9448 44.5529 55.863 46.3771 56.6722C48.5604 57.6042 50.6798 62.6546 49.9714 65.4681C49.9076 65.7302 49.4721 65.9574 49.1585 66.0972C45.3551 67.7748 41.5808 69.5224 37.7136 71.0078C33.3353 72.7029 26.6809 70.5709 23.6905 66.5865C21.0659 63.0507 18.2206 58.1343 18.4819 49.3209C18.929 50.2413 19.44 51.15 19.8116 52.0936C21.6349 56.4508 24.6137 59.9401 28.15 62.9458C29.2943 63.964 30.6426 64.7247 32.1043 65.1768C32.2434 65.1993 32.386 65.1832 32.5166 65.1302C32.7024 65.0254 32.656 64.6584 32.5631 64.5943C31.0685 63.7099 29.6828 62.6522 28.4345 61.4429C24.3582 57.2896 20.793 52.3732 19.8 46.7578C19.0393 42.4531 21.3097 36.7969 23.0924 34.694C23.1621 34.9678 21.2343 45.9715 29.8455 54.9013Z" fill="#165BA4"/>
</svg>
