<svg width="100" height="100" viewBox="0 0 100 100" fill="none" xmlns="http://www.w3.org/2000/svg">
<path d="M74.4078 50.159C72.0642 55.3546 67.8375 58.2375 63.2809 60.0749C64.7598 59.3204 66.0636 58.483 67.0914 57.6191C72.1445 53.3752 76.8522 40.8146 68.8042 28.651C70.1979 27.017 71.5628 25.4179 72.8318 23.9295C74.9691 28.3647 78.9823 40.0192 74.4078 50.159Z" fill="#98999B"/>
<path d="M22.3058 83.5068C20.3796 83.7066 18.4654 83.8678 16.5715 83.9857C17.6762 80.601 20.0785 75.9072 24.6327 72.419C31.2294 67.3653 40.7046 64.7182 45.0225 62.3117C45.3487 62.4489 45.6845 62.5704 46.03 62.6763C34.3178 67.3678 25.3427 70.9354 22.3058 83.5068Z" fill="#B0B3B2"/>
<path d="M51.0194 63.3947C49.82 63.7556 49.2311 63.9542 48.1409 64.3572C44.8089 65.5894 27.8206 71.0388 27.2845 82.9112C26.1247 83.0676 24.9661 83.212 23.8098 83.3432C27.1922 70.4601 36.3664 67.8587 47.2785 62.9952C48.731 63.29 49.4098 63.4933 51.0194 63.3947Z" fill="#98999B"/>
<path d="M51.859 59.1832C50.4198 60.1458 49.1004 60.9881 48.1409 61.7101C48.1409 61.7101 47.3313 61.2793 46.9619 61.159C47.5844 60.7342 48.737 59.8125 49.8201 58.8223C50.5445 58.963 51.1526 59.0966 51.859 59.1832Z" fill="#CCAF62"/>
<path d="M52.8186 58.4613C52.0498 58.4012 51.4573 58.3422 50.6597 58.2207C57.0165 51.3622 57.976 46.4289 55.8171 44.1427C56.9374 42.7217 58.7844 40.4933 60.9686 37.8943C62.7533 46.2857 57.8273 53.9347 52.8186 58.4613Z" fill="#C9C9C7"/>
<path d="M54.1379 58.8223C60.2584 53.5713 63.6719 44.991 61.8824 36.809C62.2447 36.3782 62.6153 35.9402 62.9907 35.4962C65.1172 37.8967 69.5274 43.9213 67.2114 50.5199C65.1556 56.3761 59.9466 58.9161 54.1379 58.8223Z" fill="#B0B3B2"/>
<path d="M70.5697 50.3996C66.7952 61.218 54.2951 62.9903 49.3703 62.0133C50.7952 61.2793 52.1242 60.419 53.3451 59.4528C57.7577 59.744 61.7433 58.8115 65.0525 55.9345C70.3095 51.3634 70.6741 42.1129 63.8171 34.5192C65.0705 33.0416 66.3706 31.5099 67.6648 29.989C69.3643 32.4256 74.0516 40.4187 70.5697 50.3996Z" fill="#CCB169"/>
<path d="M87.2858 27.5092C84.2729 39.9868 81.9604 49.0002 80.466 54.9382V54.9394C62.5073 63.7857 45.4315 65.7157 38.1859 74.1035C35.8855 76.7662 35.4129 79.5602 35.516 81.6153C33.2576 82.0196 30.9847 82.3878 28.713 82.7126C28.851 80.5288 30.1559 74.1492 40.2249 69.0498C52.009 63.0818 65.7721 61.7101 71.2894 56.4158C77.0033 50.9326 81.3199 37.4431 73.6618 22.9573C74.9487 21.446 76.1121 20.0804 77.0693 18.9493C78.5949 19.1117 80.7814 19.6063 82.8036 21.0405C85.8933 23.2328 86.9187 25.5647 87.2858 27.5092Z" fill="#73777D"/>
<path d="M79.3253 59.5442C80.6447 59.6645 84.9625 60.0255 86.6417 60.6271C86.6417 61.4694 86.5217 63.7556 86.4018 64.1165C85.6821 64.7182 84.6027 65.4401 83.7631 66.0417C83.7631 66.7637 83.7631 67.245 83.6432 67.6059C80.1673 69.6478 59.7871 77.0405 37.5466 81.2411C36.7142 73.2046 44.725 70.0028 53.7781 66.2824C63.0387 62.4765 70.6393 61.2745 80.0558 56.571C79.7751 57.6948 79.5316 58.6851 79.3253 59.5442Z" fill="#52565C"/>
<path d="M90 16.1072C89.212 19.4643 88.436 22.9982 87.7212 25.9738C87.3614 24.6503 86.5793 23.3207 85.4423 22.1235C82.7017 19.2357 79.257 18.5234 77.591 18.332C77.9473 17.9109 78.2663 17.5319 78.5434 17.1998C79.1527 16.4706 80.0438 16.0423 80.9913 16.0158C83.3182 15.9508 86.4258 16.1072 90 16.1072Z" fill="#52565C"/>
<path d="M48.4264 58.5793C48.3904 58.6094 48.3544 58.6394 48.3184 58.6707C47.4153 59.4252 46.4078 60.2518 45.6426 60.8281C42.8636 60.3865 38.6513 60.6308 36.1469 61.2288C31.1094 62.432 20.9145 66.5231 15.167 84.0639H15.1658C13.4207 84.1541 11.696 84.2035 10 84.2107C10.9595 80.8416 22.2855 58.1088 47.8819 58.566C47.8819 58.566 47.8819 58.566 47.8831 58.566C48.063 58.5696 48.2441 58.5745 48.4264 58.5793Z" fill="#CCB169"/>
</svg>
