<svg width="100" height="100" viewBox="0 0 100 100" fill="none" xmlns="http://www.w3.org/2000/svg">
<path d="M64.4559 78.0476C81.325 78.0476 95 64.3032 95 47.3488C95 30.3943 81.325 16.65 64.4559 16.65C47.5869 16.65 33.9119 30.3943 33.9119 47.3488C33.9119 64.3032 47.5869 78.0476 64.4559 78.0476Z" fill="#F78526"/>
<path fill-rule="evenodd" clip-rule="evenodd" d="M56.6131 40.1212C52.564 47.0057 47.6375 52.2488 38.7294 56.9967C30.7392 60.8799 22.4186 64.0352 13.8676 66.4247C10.3111 67.7813 10.2369 68.2154 14.3063 68.039C21.4328 66.479 28.7212 64.8104 35.787 62.8909C46.5847 59.547 51.8014 55.05 57.315 47.2499C60.1089 43.7839 61.0402 32.7212 56.6131 40.1212Z" fill="#282E67"/>
<path fill-rule="evenodd" clip-rule="evenodd" d="M66.4863 33.4334C64.7046 41.4303 61.8972 47.4669 55.1352 53.7817C45.8363 61.878 35.3694 68.5101 24.0917 73.4517C17.6536 75.9274 11.9443 78.5116 5 80.7974C5 81.1908 5.61412 81.5232 6.60616 81.2315C12.2952 79.1967 11.8093 80.5532 17.1609 79.6647C27.2973 75.4865 48.2179 67.9034 59.0156 58.0955C68.8618 49.3186 69.4017 40.7791 69.9213 33.9828C70.2047 31.2697 70.2857 30.5032 69.2464 30.4354C67.5458 30.3269 66.8709 31.29 66.4863 33.4334Z" fill="#282E67"/>
<path fill-rule="evenodd" clip-rule="evenodd" d="M68.8618 49.3186C66.0679 57.4037 53.2456 65.5972 48.0289 69.382C42.8123 73.1668 42.9337 74.0621 39.8227 76.0698C36.7116 78.0775 34.7612 78.7829 30.8808 80.2344C27.0004 81.686 26.8316 83.4088 32.136 81.5164C39.1883 78.8915 44 77.0533 50.7284 73.2211C58.5769 68.2493 67.7078 63.1826 70.9741 53.3951C71.5882 51.0686 72.398 46.3071 70.5557 46.341C69.3072 46.2053 69.2329 47.8535 68.8618 49.3186Z" fill="#282E67"/>
</svg>
