<svg width="100" height="100" viewBox="0 0 100 100" fill="none" xmlns="http://www.w3.org/2000/svg">
<path d="M21 41.0723C21.311 40.4804 21.7122 39.9403 22.1892 39.4712C23.2003 38.3287 24.5616 37.5522 26.061 37.2627C27.2359 37.0699 28.4375 37.1131 29.5955 37.3897C31.5697 37.7602 33.3836 38.7233 34.7948 40.1503C35.5925 41.0468 36.2865 42.0303 36.8634 43.082C37.1222 43.5178 37.4405 43.9155 37.8093 44.2635C38.0479 44.4964 38.3513 44.6521 38.6799 44.7102C39.0084 44.7683 39.3469 44.7262 39.6512 44.5893C39.9662 44.4451 40.2312 44.2106 40.4124 43.9156C40.5936 43.6207 40.6829 43.2786 40.6689 42.9329C40.698 42.2104 40.4838 41.499 40.0605 40.9122C39.3603 39.8398 38.5622 38.8344 37.6765 37.9087C36.5154 36.7617 35.1808 35.8041 33.7217 35.0708C32.9474 34.6843 32.1564 34.3365 31.3212 33.9666C32.0785 33.0577 33.0179 32.317 34.0791 31.7922C35.1403 31.2673 36.2997 30.9698 37.4829 30.9189C37.4166 30.6428 37.3723 30.4275 37.317 30.2122C36.8408 28.5206 36.8255 26.7328 37.2728 25.0333C37.4221 24.4812 37.4276 24.4812 37.9918 24.426C39.6216 24.2176 41.2764 24.3264 42.8648 24.7462C42.9371 24.7653 43.0113 24.7765 43.086 24.7793C43.1376 24.7837 43.1894 24.7837 43.2409 24.7793C43.3183 24.3377 43.3958 23.8794 43.4787 23.4211C43.747 21.725 44.4544 20.1283 45.5308 18.7889C46.7747 17.234 48.4747 16.1066 50.3927 15.5645C50.5199 15.5314 50.6472 15.4983 50.7799 15.4762C50.8469 15.4801 50.9135 15.4893 50.979 15.5038C51.0575 16.6894 51.4507 17.8328 52.1185 18.8165C52.4156 19.2465 52.737 19.6594 53.0809 20.0532L53.9769 19.3962C55.7612 18.1512 57.8843 17.4807 60.0612 17.4748C63.0471 17.4237 65.9738 18.308 68.4299 20.0035C68.9222 20.3403 69.3647 20.7489 69.8514 21.1464C69.5085 21.5992 69.2098 22.0077 68.9056 22.4108C68.6255 22.7676 68.446 23.1927 68.3857 23.642C68.3575 23.7793 68.3734 23.9219 68.431 24.0498C68.4885 24.1776 68.5849 24.2841 68.7065 24.3542C69.5417 24.9615 70.3658 25.5689 71.1568 26.2535C72.8637 27.7658 74.0807 29.7513 74.6525 31.9569C75.1532 34.0474 75.2415 36.2152 74.9125 38.3393C74.9125 38.3725 74.8738 38.3945 74.8184 38.4718L73.5463 37.8093C71.7444 36.8207 69.8396 36.032 67.8657 35.4573C66.4701 35.0562 65.0259 34.8481 63.5735 34.8389C61.3806 34.8457 59.2135 35.3122 57.2127 36.2082C56.4162 36.556 55.6474 36.9646 54.8896 37.3731C53.5933 38.1503 52.4514 39.1591 51.5211 40.349C49.2357 43.033 47.759 46.3084 47.2621 49.7958C47.0687 50.9653 46.9799 52.1496 46.9966 53.3348C47.0705 56.5221 47.799 59.6603 49.1371 62.5552C50.3232 65.2047 51.9067 67.6585 53.8331 69.8321C55.657 71.876 57.8388 73.5711 60.2714 74.8343C63.8417 76.6732 67.6183 78.0818 71.5219 79.0303C73.7772 79.6472 76.1086 79.9428 78.4469 79.9082H79C78.8768 80.0325 78.7456 80.1487 78.6073 80.256C76.1668 81.905 73.4421 83.0898 70.5705 83.7509C67.9093 84.3708 65.1748 84.6198 62.4452 84.4908C59.4377 84.3748 56.4602 83.8491 53.5953 82.9283C51.1105 82.1523 48.7194 81.1043 46.4656 79.8033C44.0379 78.3897 41.7521 76.746 39.6401 74.895C37.6366 73.1206 35.8488 71.1174 34.3136 68.9266C32.594 66.4492 31.1754 63.7766 30.0877 60.9651C29.3641 59.2884 28.8083 57.5444 28.4284 55.7586C28.1518 54.2458 27.9306 52.7165 27.6927 51.1981C27.4747 49.6151 27.1475 48.0489 26.7137 46.5107C26.415 45.4197 25.9545 44.3794 25.3475 43.4243C24.9341 42.745 24.3551 42.1812 23.6646 41.7854C22.9741 41.3896 22.1944 41.1747 21.3982 41.1607C21.3219 41.1554 21.2461 41.1444 21.1715 41.1275C21.1131 41.1131 21.0558 41.0946 21 41.0723V41.0723ZM44.5573 26.8332C42.6648 25.8686 40.5286 25.4844 38.4177 25.729C38.1696 26.7891 38.147 27.8895 38.3513 28.9589C38.5179 30.0434 38.8208 31.1026 39.2529 32.1115C37.2728 32.0783 35.4475 32.382 33.8766 33.7181L34.3523 33.9997C36.6783 35.2274 38.6901 36.973 40.2319 39.1013C40.8688 39.9869 41.4049 40.9406 41.8304 41.9447C42.0213 42.4077 42.0913 42.9115 42.0339 43.4089C41.9766 43.9063 41.7937 44.3811 41.5025 44.7887C41.2112 45.1964 40.8211 45.5236 40.3687 45.7398C39.9163 45.956 39.4163 46.054 38.9155 46.0248C38.2634 45.9496 37.645 45.6954 37.1289 45.2905C36.5559 44.8377 36.08 44.2744 35.7295 43.6341C35.0807 42.4104 34.2127 41.3157 33.1686 40.4043C32.161 39.5315 30.9455 38.9319 29.6388 38.6631C28.3322 38.3943 26.9783 38.4654 25.707 38.8694C24.8799 39.0914 24.1358 39.5501 23.5665 40.1889C23.8264 40.3656 24.0698 40.5092 24.2911 40.6803C24.7594 41.0185 25.2047 41.3874 25.6241 41.7845C26.5705 42.8407 27.2829 44.0843 27.7149 45.434C28.3772 47.4136 28.7842 49.4693 28.9262 51.5515C29.038 52.9565 29.2618 54.3504 29.5955 55.72C30.4232 58.8908 31.6537 61.943 33.2571 64.8023C35.2307 68.5087 37.8793 71.8153 41.0671 74.5527C44.8637 77.8058 49.2873 80.2484 54.0654 81.7302C56.5704 82.4929 59.1564 82.9599 61.7704 83.1215C63.8562 83.2544 65.9503 83.1582 68.0151 82.8344C69.8798 82.5519 71.7035 82.0459 73.4467 81.3271C73.6505 81.2678 73.8317 81.1485 73.9666 80.9848C73.5629 80.9351 73.231 80.8965 72.8991 80.8468C71.251 80.5436 69.6318 80.1003 68.0593 79.5217C65.4249 78.6013 62.8702 77.4675 60.4208 76.1317C56.7866 74.1434 53.5892 71.4474 51.0177 68.2033C48.6722 65.3305 47.0624 61.931 46.3273 58.2984C46.0142 56.9833 45.7833 55.6502 45.6359 54.3066C45.4473 51.7489 45.7361 49.1784 46.4877 46.726C47.5671 43.0664 49.6979 39.8032 52.6163 37.34C54.3484 35.8474 56.3777 34.7381 58.5705 34.0853C60.7633 33.4325 63.0698 33.2509 65.338 33.5525C68.1316 33.9097 70.8312 34.7961 73.2918 36.164C73.4025 36.2247 73.5186 36.2689 73.6292 36.3186C73.7942 35.7102 73.8226 35.073 73.7122 34.4524C73.6358 32.8458 73.2012 31.2765 72.44 29.8588C71.321 27.7966 69.579 26.139 67.462 25.1217C66.8757 24.8235 66.8701 24.8235 66.9476 24.172C67.0216 23.118 67.4216 22.1128 68.0925 21.2955C67.91 21.1519 67.7607 21.0139 67.5947 20.9035C65.6951 19.6367 63.4877 18.906 61.2062 18.7889C58.6716 18.6182 56.1656 19.4067 54.1871 20.9973C53.894 21.2292 53.634 21.4722 53.2689 21.7482C51.7965 20.5795 50.6199 19.0816 49.8341 17.3755C49.7699 17.3657 49.7046 17.3657 49.6405 17.3755C48.6216 17.7969 47.716 18.4513 46.9966 19.2858C45.6151 20.9018 44.7994 22.9236 44.6735 25.0444C44.6237 25.6241 44.596 26.1983 44.5573 26.8332Z" fill="#D3010A"/>
<path d="M72.5008 34.3641C72.3681 34.3089 72.2243 34.2647 72.0971 34.1985C70.2992 33.2815 68.3574 32.6784 66.3557 32.4151C64.4358 32.1108 62.4823 32.0792 60.5535 32.3213C57.9604 32.5934 55.4826 33.5332 53.3629 35.0487C51.6673 36.2408 50.1528 37.6708 48.8661 39.2945C47.6655 40.8714 46.7159 42.6239 46.0507 44.4899C45.3922 46.3342 44.9378 48.2448 44.6956 50.1878C44.6882 50.38 44.6391 50.5684 44.5518 50.7399C43.699 52.2121 42.5902 53.5209 41.2773 54.6047C40.4715 55.3018 39.4452 55.6928 38.379 55.7089C37.7117 55.691 37.0546 55.5419 36.4452 55.2699C35.8359 54.998 35.2863 54.6087 34.8279 54.1244C34.3567 53.7015 33.9867 53.1783 33.7454 52.5934C33.5041 52.0085 33.3977 51.3769 33.4341 50.7454C33.4715 49.7388 33.9012 48.7865 34.6316 48.0914C35.3621 47.3963 36.3355 47.0134 37.3446 47.0241C37.7398 47.0399 38.13 47.1182 38.5006 47.256C39.0943 47.4936 39.7472 47.5415 40.3693 47.3932C40.9914 47.2448 41.5522 46.9076 41.9742 46.4279C42.5844 45.8408 43.0106 45.0895 43.2011 44.2652C43.3916 43.4409 43.3382 42.5791 43.0473 41.7846C42.2541 39.4188 40.8225 37.3173 38.91 35.7113C38.213 35.115 37.4829 34.5463 36.6975 33.9224C38.5947 33.304 40.3923 33.5746 42.2287 34.215C40.3591 32.1225 39.2529 29.8312 39.6733 26.9381C42.472 26.8388 44.6513 28.1473 46.7255 29.8864L46.3771 28.8374C45.8036 27.2056 45.6982 25.4463 46.0728 23.7579C46.4585 22.0665 47.44 20.5696 48.8384 19.5398C48.9712 19.4404 49.1205 19.3631 49.3141 19.2416C50.4949 20.9352 51.9986 22.3798 53.7391 23.4929C54.1207 23.0788 54.4636 22.6592 54.8453 22.2783C56.16 21.002 57.8881 20.2364 59.7183 20.1195C61.4917 19.9631 63.2766 20.2417 64.9176 20.9311C65.3546 21.1078 65.7583 21.3452 66.2008 21.566C66.0625 22.1182 65.9298 22.6151 65.8026 23.1175C65.6448 23.8424 65.5963 24.5868 65.6588 25.326C65.6588 25.6241 65.8468 25.7345 66.0957 25.8394C66.9901 26.1927 67.8329 26.6644 68.6014 27.2418C69.6879 28.0442 70.5984 29.0602 71.2766 30.2272C71.9549 31.3942 72.3866 32.6875 72.5451 34.0273C72.5506 34.1027 72.5506 34.1783 72.5451 34.2537C72.5329 34.2915 72.5181 34.3284 72.5008 34.3641Z" fill="#D3010A"/>
<path d="M25.6352 40.1668C26.7834 39.8962 27.97 39.827 29.142 39.9626C29.9583 40.0617 30.7455 40.3276 31.4545 40.7436C32.1634 41.1597 32.7789 41.717 33.2627 42.3808C33.9979 43.4524 34.6225 44.5956 35.1267 45.7929C34.5183 46.3119 33.9043 46.7536 33.3844 47.2891C32.6475 48.0326 32.192 49.0083 32.0956 50.0497C31.9802 51.255 32.2472 52.466 32.8589 53.5115C33.5868 55.0039 34.8685 56.1545 36.4321 56.7193C38.6777 57.4812 40.6634 56.9236 42.4002 55.3777C43.052 54.827 43.6121 54.1766 44.0596 53.4508C44.1259 53.3403 44.2144 53.241 44.3472 53.0588C44.3914 53.6827 44.4357 54.2127 44.4634 54.7151C44.6267 57.3469 45.2462 59.9304 46.2942 62.3509C47.4196 65.0499 48.9427 67.5659 50.8132 69.8155C53.1524 72.6589 55.9806 75.0632 59.1652 76.9157C62.1131 78.5957 65.2536 79.9138 68.5185 80.8413C68.7509 80.9006 68.969 81.0057 69.1601 81.1505C68.2419 81.294 67.3293 81.4596 66.3945 81.5811C64.9564 81.7814 63.5035 81.8553 62.0525 81.802C58.2583 81.6686 54.522 80.8317 51.0344 79.334C47.8773 77.9822 44.9453 76.1576 42.3394 73.9233C39.6709 71.6503 37.3458 69.0041 35.4365 66.0666C33.5219 63.1295 32.0584 59.9231 31.0945 56.5537C30.729 55.1552 30.4756 53.7299 30.3367 52.2913C30.1392 50.2395 29.7691 48.2079 29.2305 46.218C28.6282 44.1083 27.5107 42.1808 25.9781 40.6085C25.8841 40.5147 25.7901 40.4208 25.7016 40.3214C25.6751 40.2719 25.6529 40.2201 25.6352 40.1668Z" fill="#D3010A"/>
</svg>
