<svg width="100" height="100" viewBox="0 0 100 100" fill="none" xmlns="http://www.w3.org/2000/svg">
<path d="M74.3393 24.6654L74.3153 24.8187L74.2865 24.9769L74.253 25.1493L74.2098 25.3027L74.1571 25.4272L74.1139 25.5374L74.0804 25.5662V25.5997H74.0468H74.0132H73.9797V25.5662V25.5231L73.9365 25.4081L73.9029 25.2691V25.1062V24.9337V24.7756V24.6127V24.4738L73.9365 24.3348L73.9797 24.215L74.0228 24.1192L74.066 24.0329L74.1187 23.9707H74.1523H74.181H74.205H74.2578H74.2913L74.3345 24.0473L74.3633 24.1336L74.3872 24.2486V24.3683V24.5073V24.6558L74.3393 24.6654Z" fill="#1F2C51"/>
<path d="M73.2652 24.6127V24.766V24.9337L73.2364 25.0966L73.2029 25.2452L73.1597 25.3841L73.107 25.4943L73.083 25.5231V25.5566L73.0494 25.5806H73.0159H72.9823V25.547V25.5039L72.9296 25.3985L72.896 25.2595L72.8672 25.0966V24.9385V24.766V24.584V24.4306V24.3013L72.9008 24.1719L72.9439 24.0665L72.9871 23.9802L73.0398 23.918H73.0734L73.0159 23.8748H73.0686L73.1022 23.8988V23.9275L73.1453 23.9946L73.1741 24.0904V24.1959V24.3156V24.6031L73.2652 24.6127Z" fill="#1F2C51"/>
<path d="M72.2439 24.6654V24.8331V24.996V25.1446V25.2931L72.2007 25.4321L72.1576 25.5423L72.1288 25.5854L72.1048 25.6141L72.0713 25.6381H72.0329H71.9994H71.9658L71.9322 25.6045V25.5614L71.8891 25.456L71.774 25.3123L71.7308 24.9912V24.7038V24.5936V24.4642V24.3348V24.215L71.7596 24.1192L71.8028 24.033L71.8363 24.0042H71.8699H71.9035H71.937H71.9658H71.9994H72.0329L72.0761 24.0665L72.1192 24.1527L72.1528 24.2629V24.3779L72.1768 24.5169V24.6558L72.2439 24.6654Z" fill="#1F2C51"/>
<path d="M71.1842 24.7517V24.905V25.0535V25.4081V25.4608V25.5231L71.1602 25.5662V25.6237L71.1267 25.6524L71.0835 25.686L71.0403 25.7195H70.9876H70.9445H70.9013L70.8677 25.686V25.6429L70.8342 25.5902V25.5231V25.4608L70.7814 25.1589L70.6568 24.8331V24.7085V24.5888V24.4738L70.6184 24.354V24.2581L70.6615 24.1815V24.1479L70.6903 24.1192H70.7239H70.767H70.8438H70.8725H70.9061L70.9588 24.1815L71.002 24.2581L71.0451 24.354L71.0787 24.4738V24.5888V24.7277L71.1842 24.7517Z" fill="#1F2C51"/>
<path d="M70.0574 24.9337V25.0727V25.226V25.3745V25.5135V25.5806V25.6429V25.6956V25.7531L70.0334 25.7914L69.9998 25.8345L69.9567 25.8681L69.9135 25.892H69.8608H69.8176L69.7841 25.8681L69.7553 25.8393L69.7217 25.7962L69.6594 25.7531V25.6956V25.6237L69.5731 25.3122L69.5299 25.0248V24.8954V24.766V24.6558V24.5408V24.445L69.5635 24.3683L69.5971 24.3348H69.6306H69.6738H69.7073H69.7505H69.7793L69.8128 24.3588L69.8656 24.4115L69.9231 24.4881L69.9519 24.584L69.9855 24.7037L70.0094 24.8283V24.9673L70.0574 24.9337Z" fill="#1F2C51"/>
<path d="M69.06 25.1398V25.2883V25.4416V25.5806V25.7195V25.7818V25.8489V25.9112V25.9543L69.0313 26.007V26.0501L68.9881 26.0837H68.9449H68.8922H68.849H68.8155L68.7723 26.0549L68.7388 26.0214V25.9687V25.9016L68.7052 25.8393L68.6381 25.5375L68.5757 25.25V25.1206V24.9912V24.8714V24.7852V24.6894L68.6045 24.6031L68.6381 24.5696H68.6716H68.7148H68.7915H68.8251H68.8538L68.9114 24.6223L68.9641 24.699L69.0073 24.7948L69.0504 24.9002L69.0792 25.0296V25.1589L69.06 25.1398Z" fill="#1F2C51"/>
<path d="M68.1346 25.4512L68.1586 25.5997V25.7531V25.892V26.031V26.0933V26.1603V26.213V26.2657L68.125 26.3185V26.3616L68.0818 26.3951H68.0387H67.9812H67.938H67.9092L67.8661 26.3664L67.8325 26.3232V26.2801L67.7989 26.213L67.775 26.1508L67.7126 25.8489L67.6455 25.5614V25.432V25.3027V25.1829V25.0871V24.9864L67.6791 24.9146L67.7126 24.881L67.7462 24.8571L67.7414 24.8331H67.8133H67.8469L67.8805 24.8571L67.9332 24.9098L67.986 24.9816L68.0291 25.0679L68.0723 25.1877L68.0962 25.317L68.125 25.4464L68.1346 25.4512Z" fill="#1F2C51"/>
<path d="M67.1708 25.7627L67.214 25.9016L67.2475 26.0406L67.2763 26.1795V26.3185V26.3807V26.4478V26.5101V26.5676V26.6107L67.2475 26.6634L67.214 26.6922L67.1708 26.7257L67.1277 26.7497H67.0845H67.0413L67.0078 26.7161L66.9646 26.6826L66.9359 26.6395L66.9023 26.5868L66.8687 26.5245L66.7632 26.2322L66.6769 25.9543L66.6338 25.8345L66.6002 25.7099V25.5902V25.48V25.3745V25.2883V25.2596V25.2356L66.6338 25.2021H66.6625H66.6961H66.7824H66.816H66.8495L66.9119 25.2452L66.9742 25.3123L67.0317 25.3985L67.0845 25.5039L67.1277 25.6237L67.1708 25.7627Z" fill="#1F2C51"/>
<path d="M66.1638 26.146L66.2166 26.2753L66.2597 26.4143L66.3029 26.5532L66.3461 26.6922V26.812V26.9317V26.9844V27.0276L66.3125 27.0707L66.2837 27.1138H66.2406H66.1974H66.1638H66.1207L66.0871 27.0803L66.044 27.0372L66.0152 26.9844L65.9816 26.9317L65.8522 26.6538L65.7467 26.3951L65.6891 26.2753L65.646 26.1603L65.6172 26.0405V25.9351V25.8249V25.7435V25.7099V25.6764L65.6508 25.6524H65.6796H65.7563H65.7898L65.8522 25.686L65.9049 25.7483L65.972 25.8249L66.0248 25.9303L66.0775 26.0405L66.1351 26.1651L66.1638 26.146Z" fill="#1F2C51"/>
<path d="M65.2049 26.5532L65.3008 26.8215L65.3775 27.0803L65.4015 27.2001V27.3151V27.3678V27.4109V27.454L65.3727 27.4971H65.3391H65.296H65.2624H65.2336L65.1905 27.4636L65.1569 27.4301L65.1233 27.3774L65.0898 27.3246L64.9747 27.0659L64.8644 26.8072L64.8117 26.6922L64.7685 26.582L64.735 26.467V26.3568V26.261V26.1891V26.146V26.1124H64.7685H64.7973H64.8644H64.898L64.9603 26.1412L65.0131 26.1987L65.0706 26.2705L65.1233 26.3664L65.1761 26.4766L65.2288 26.5916L65.2049 26.5532Z" fill="#1F2C51"/>
<path d="M64.2507 27.1234L64.4041 27.3582L64.5288 27.593L64.5719 27.7128V27.8182V27.8757V27.9188V27.9715V28.0146L64.5384 28.0434L64.5048 28.0673H64.4712H64.4425L64.3993 28.0434H64.3562L64.313 28.0002L64.2699 27.9571L64.0972 27.7223L63.9054 27.4684L63.8431 27.3678L63.7808 27.2719L63.7232 27.1665L63.6801 27.0707V26.9749V26.8886V26.8551V26.8215V26.7928L63.7136 26.7593H63.7376H63.7664H63.7999H63.8335H63.8958L63.963 26.8024L64.0349 26.8695L64.102 26.9413L64.174 27.042L64.2507 27.1474V27.1234Z" fill="#1F2C51"/>
<path d="M63.426 27.708L63.5746 27.9427L63.7041 28.1823L63.7472 28.2973V28.4075V28.4602V28.5129V28.556L63.7232 28.5992L63.6945 28.6327H63.6609H63.5842H63.541L63.5075 28.5992L63.4643 28.556L63.4212 28.5129L63.2533 28.2781L63.0903 28.0625L63.0136 27.9523L62.9608 27.8565L62.9081 27.7511L62.8649 27.6553V27.5594V27.4828V27.4396V27.4061V27.3774V27.3438L62.8985 27.3199H62.9608H63.028L63.0999 27.363L63.167 27.4301L63.239 27.5019L63.3157 27.6025L63.426 27.708Z" fill="#1F2C51"/>
<path d="M62.6108 28.3787L62.769 28.6039L62.9081 28.8291L62.9656 28.9441L62.9944 29.0543V29.1454V29.1981V29.2412V29.2747H62.9608H62.9273H62.8841H62.8457L62.8026 29.2412L62.7594 29.2125L62.7163 29.1693L62.4669 28.9585L62.2943 28.7525L62.2176 28.6567L62.1409 28.5608L62.0881 28.465L62.0354 28.3692V28.2685L61.9874 28.1871V28.1536V28.12V28.0865V28.0577L62.0114 28.0338H62.0402H62.0738H62.1073H62.1696L62.2368 28.0673L62.3087 28.1296L62.4669 28.1871L62.5532 28.2829L62.63 28.3787H62.6108Z" fill="#1F2C51"/>
<path d="M61.8916 28.9681L62.0738 29.1693L62.232 29.385L62.2895 29.4952L62.3327 29.6006V29.6533V29.6964V29.7491V29.7922V29.8353H62.2991H62.2656H62.1793H62.1361L62.093 29.8018L62.0498 29.7683L61.9875 29.7587L61.7861 29.567L61.5895 29.3658L61.508 29.2795L61.4312 29.1933L61.3545 29.1071L61.3018 29.0112L61.2682 28.925V28.8387V28.7669V28.7333V28.6998L61.3018 28.6758H61.3353L61.508 28.6662L61.5703 28.6902L61.6566 28.7429L61.7429 28.8052L61.8292 28.8914L61.9155 28.9777L61.8916 28.9681Z" fill="#1F2C51"/>
<path d="M61.1627 29.6533L61.3305 29.8449L61.4936 30.0509L61.5559 30.1564L61.5894 30.2522V30.3097V30.3528V30.3959V30.4486L61.5655 30.4774H61.5367H61.5031H61.46H61.4168H61.3737L61.3209 30.4486L61.2778 30.4151L61.0764 30.233L60.8942 30.0414L60.8175 29.9647L60.7407 29.8785L60.6784 29.7922L60.6257 29.706L60.5825 29.6245V29.5526V29.5095V29.476V29.4424V29.4137V29.3897H60.6161H60.6448H60.712H60.7839L60.8606 29.4329L60.9373 29.4999L61.0236 29.5718L61.11 29.6581L61.1627 29.6533Z" fill="#1F2C51"/>
<path d="M60.3667 30.4247L60.5489 30.5828L60.7311 30.7745L60.8079 30.8751L60.8606 30.9709V31.0236V31.0763V31.1194V31.1721V31.2153L60.827 31.2488H60.7983H60.7216H60.6688H60.6161L60.5489 31.1961L60.3236 31.0284L60.1078 30.8655L60.0119 30.7888L59.9256 30.717L59.8537 30.6307L59.7865 30.5445L59.7338 30.4678L59.7002 30.3816V30.3097V30.2762V30.2426V30.2139V30.1899H59.7338H59.8105H59.8824L59.9687 30.2235L60.0551 30.2762L60.151 30.3384L60.2612 30.4247H60.3667Z" fill="#1F2C51"/>
<path d="M59.6907 31.2106L59.9256 31.3496L60.1414 31.5079L60.2277 31.5846L60.29 31.6805L60.314 31.7236V31.7668V31.8195V31.8723V31.9154L60.29 31.949H60.2613H60.2277H60.1845H60.1318H60.0743H60.0119L59.7674 31.8291L59.5276 31.6997L59.4317 31.6469L59.3262 31.5846L59.2399 31.5175L59.1632 31.4407L59.1105 31.3592L59.0673 31.2825V31.2393V31.177V31.1339L59.1105 31.0619H59.1728H59.2591H59.3454L59.4413 31.1051L59.5468 31.1578L59.6571 31.2154L59.6907 31.2106Z" fill="#1F2C51"/>
<path d="M59.1344 32.097L59.3598 32.2361L59.5708 32.3895L59.6571 32.4758L59.7242 32.5621V32.6053L59.7482 32.658V32.7539V32.7971V32.8306H59.7146H59.6715H59.6283H59.5756H59.5228L59.4701 32.8067L59.2207 32.682L58.9858 32.5525L58.8611 32.4998L58.7652 32.4374L58.6789 32.3751L58.5974 32.308L58.5399 32.2313L58.4967 32.1593V32.1258V32.0826V32.0491V32.0203V31.9867V31.9627L58.5255 31.9388H58.5926H58.6645L58.7652 31.9627L58.8611 31.9963L58.9666 32.0491L59.0769 32.1114L59.1344 32.097Z" fill="#1F2C51"/>
<path d="M58.631 32.8923L58.7604 32.9547L58.8899 33.0218L59.0146 33.0841L59.1344 33.1609L59.2303 33.2472L59.3071 33.3335L59.3406 33.3862V33.4294V33.4821V33.5349V33.5876V33.6212L59.3071 33.6452H59.2639H59.168H59.1009H59.0385L58.7604 33.5397L58.5015 33.4198L58.3816 33.367L58.2761 33.3143L58.1515 33.2376L58.0652 33.1705L57.9884 33.0937L57.9453 33.0218V32.9882V32.8684V32.8396V32.806H57.9788V32.7821H58.0556H58.1515H58.2474L58.3577 32.8156L58.4727 32.8684L58.5926 32.9211L58.631 32.8923Z" fill="#1F2C51"/>
<path d="M58.1755 33.9369L58.4152 34.0664L58.6262 34.215L58.7125 34.2917L58.7796 34.378V34.4212V34.4644V34.5171V34.5603V34.6034V34.6322H58.7461H58.7125H58.6693H58.6166H58.5639L58.5111 34.6082L58.2522 34.4883L58.0172 34.3637L57.9213 34.3061L57.8206 34.2534L57.7247 34.191L57.672 34.1239L57.6049 34.052L57.5617 33.9849V33.9417V33.8794V33.8458V33.8122L57.5953 33.7883H57.6576H57.7439H57.8302L57.9261 33.8314L58.0364 33.8746L58.1419 33.9417L58.1755 33.9369Z" fill="#1F2C51"/>
<path d="M57.7583 34.8951L58.0076 35.0006L58.2426 35.1205L58.3385 35.1828L58.4152 35.2595L58.444 35.3027V35.3458V35.3986V35.4945V35.528H58.4104L58.3768 35.552H58.3337H58.2809H58.2282H58.1755L57.9069 35.4657L57.672 35.4034L57.5521 35.3746L57.4466 35.3314L57.3507 35.2787L57.2644 35.226L57.1925 35.1444L57.1349 35.0821V35.0485V35.015V34.9718V34.943V34.9095V34.8759V34.8519H57.2021H57.3747H57.4802L57.5857 34.8855L57.7056 34.9287L57.7583 34.8951Z" fill="#1F2C51"/>
<path d="M57.3507 36.0354L57.6192 36.0978L57.8877 36.1841L57.9932 36.2368L58.0939 36.304L58.1227 36.3327L58.1563 36.3759V36.419V36.4766V36.5197V36.5629H58.1227H58.0795H57.8973L57.6096 36.5197L57.3267 36.467H57.2117H57.0918L56.9863 36.4238L56.876 36.3807L56.7945 36.3327L56.713 36.2944V36.2608V36.2272V36.1217V36.0882H56.7465L56.8089 36.0546H56.8856H56.9815H57.1014H57.2165L57.3459 36.0786L57.3507 36.0354Z" fill="#1F2C51"/>
<path d="M57.0054 37.0656L57.2979 37.1183L57.5665 37.1951L57.6815 37.2478L57.7822 37.3006L57.811 37.3437L57.8446 37.3869V37.43V37.4732V37.5259V37.5595L57.811 37.5882L57.7774 37.6122H57.7343H57.6815H57.5521L57.2548 37.5835L56.9719 37.5499H56.8472H56.7273L56.6075 37.5163L56.502 37.4732L56.4157 37.4204L56.3533 37.3677V37.3341V37.3006V37.2718V37.2382V37.2047V37.1711V37.1423L56.4157 37.1135L56.502 37.0896H56.5979H56.7082H56.8376L56.9623 37.1135L57.0054 37.0656Z" fill="#1F2C51"/>
<path d="M56.8041 38.0095L57.0822 38.0622L57.3507 38.1389L57.4706 38.1917L57.5665 38.2444L57.6096 38.2876L57.6432 38.3307V38.3739V38.417V38.4698V38.5034V38.5321H57.6H57.5569H57.4993H57.437H57.3747L57.0726 38.4986L56.7945 38.4698H56.665H56.5451L56.4301 38.4362L56.3342 38.3931L56.2335 38.3403L56.1567 38.2876V38.254V38.2205V38.1917V38.1246V38.091V38.0622L56.2239 38.0287H56.3102H56.4061H56.5212H56.641H56.7801L56.8041 38.0095Z" fill="#1F2C51"/>
<path d="M56.5691 39.0684L56.8568 39.102L57.1253 39.1547L57.2452 39.1979L57.3507 39.2602L57.3843 39.2938L57.4178 39.3273L57.4466 39.3705V39.4232V39.4664V39.5095V39.5431H57.4035H57.3603H57.3076H57.2548H57.1781H56.876H56.5979H56.4684H56.3534L56.2335 39.5191L56.128 39.476L56.0417 39.4472L55.965 39.3897V39.3609V39.3273V39.2938V39.2074V39.1739V39.1499L56.0177 39.1068L56.104 39.0732H56.2047H56.3198H56.4397H56.5787L56.5691 39.0684Z" fill="#1F2C51"/>
<path d="M56.3869 40.1177H56.5116H56.665H56.7945L56.9239 40.1513L57.039 40.1944L57.1349 40.2472L57.1781 40.2807L57.2116 40.3239V40.367V40.4102V40.4965V40.5301L57.1829 40.5588H57.1397H57.0822H57.0198H56.665H56.3869H56.267L56.1519 40.5349H56.0321L55.9362 40.5013L55.8498 40.4581L55.7731 40.415V40.3814V40.3527V40.3191V40.2424V40.2136V40.18V40.1561L55.8498 40.1656L55.9218 40.1369H56.0225H56.2574H56.3869V40.1177Z" fill="#1F2C51"/>
<path d="M56.3006 41.1479L56.5883 41.1718L56.8664 41.215L56.9863 41.2486L57.0822 41.3013L57.1254 41.3349L57.1685 41.3636V41.4068L57.1925 41.4499V41.5027V41.5363L57.1685 41.5698L57.1397 41.6034H57.0966H57.0438H56.9767H56.9144H56.3438H56.2239H56.0944H55.9794H55.8691L55.7828 41.5746L55.7108 41.5171H55.6773V41.4835V41.4499V41.378V41.3445V41.3109L55.7444 41.2677L55.8163 41.2342H55.9122H56.0321H56.291L56.3006 41.1479Z" fill="#1F2C51"/>
<path d="M56.2574 42.3074L56.5451 42.3314L56.8232 42.3745L56.9431 42.4129L57.0486 42.4704L57.0821 42.4992L57.1253 42.5327V42.5759V42.6191V42.7054V42.7389L57.0821 42.7677H57.039H56.9814H56.9287H56.5643H56.2766H56.1471H56.0272H55.9122L55.8019 42.7389L55.7539 42.7054L55.6916 42.6526H55.658V42.6191V42.5903V42.5136V42.48V42.4512L55.7251 42.4081L55.7971 42.3745H55.9074H56.0128H56.2718L56.2574 42.3074Z" fill="#1F2C51"/>
<path d="M56.2334 43.3471H56.5115L56.78 43.3807L56.8903 43.4142L56.9862 43.467L57.0294 43.5005L57.0629 43.5341L57.0917 43.5725V43.6156V43.6732V43.7019V43.7355L57.0582 43.7691H57.0294H56.9718H56.9191H56.8568H56.5643H56.1711H56.0512H55.9409H55.8354L55.7539 43.7451L55.6916 43.7019H55.658V43.6684V43.6348V43.5197V43.491V43.4574L55.7108 43.419L55.7875 43.3855L55.8834 43.3615H55.9937H56.1087H56.2382L56.2334 43.3471Z" fill="#1F2C51"/>
<path d="M56.2047 44.3246H56.4588L56.7082 44.3581L56.8137 44.3917L56.9096 44.4348L56.9431 44.4636L56.9767 44.4972L57.0103 44.5403V44.5835V44.6362V44.6698V44.7034L56.9767 44.7321L56.9335 44.7561H56.8904L56.8376 44.7801H56.7705H56.502H56.1376H56.0321H55.9218L55.8259 44.7561L55.754 44.7417L55.6917 44.689V44.6554V44.6218V44.5883V44.5499V44.478V44.4492L55.7492 44.4061L55.8211 44.3725L55.9074 44.3485H56.0033H56.2431L56.2047 44.3246Z" fill="#1F2C51"/>
<path d="M56.1807 45.3308H56.4396L56.6842 45.3643L56.7945 45.3979L56.8904 45.4506L56.9239 45.4746L56.9527 45.5178V45.5561V45.5993V45.6424V45.6856V45.7192H56.9095H56.8664H56.8136H56.7513H56.4828H56.2334H56.128H56.0081H55.9122L55.8163 45.6856L55.73 45.652L55.6628 45.6137V45.5801V45.5513V45.5082V45.4746V45.4411V45.4075L55.7156 45.3643L55.7923 45.3212H55.8786H55.9745H56.08L56.1807 45.3308Z" fill="#1F2C51"/>
<path d="M56.2335 46.3178H56.4924L56.737 46.3514L56.8424 46.3849L56.9431 46.4281L56.9863 46.4568L57.0151 46.5V46.5336V46.5863V46.6295V46.6726V46.7062H56.9815H56.9383H56.8952H56.8424H56.7897H56.5212H56.0417H55.9362H55.8355L55.754 46.735L55.6917 46.6918V46.663V46.6295V46.5959V46.5336V46.5V46.4664L55.7444 46.4137L55.8163 46.3801H55.9026H56.0033H56.1184L56.2335 46.3178Z" fill="#1F2C51"/>
<path d="M56.2335 47.4246H56.4924H56.737L56.8568 47.4582L56.9431 47.5013L56.9815 47.5349L57.0151 47.5685V47.6068V47.6644V47.7075V47.7507V47.7794H56.9719L56.9287 47.8034H56.876H56.8137H56.5452H56.0657H55.9698H55.8739L55.754 47.8322H55.6964V47.8034V47.7698V47.7363V47.7027V47.6739V47.6404V47.6068V47.5732L55.7492 47.5301L55.8115 47.5013H55.8978H55.9985H56.1136L56.2335 47.4246Z" fill="#1F2C51"/>
<path d="M56.2575 48.4548H56.526L56.7945 48.4883L56.9096 48.5171L57.0103 48.5602L57.0486 48.5938L57.0822 48.6274L57.1158 48.6705V48.7137V48.7904V48.8192H57.0822L57.0391 48.8479H56.9959H56.9336H56.8808H56.5883H56.3198H56.1903H56.0753H55.965H55.8595L55.754 48.8815L55.6917 48.8383L55.6773 48.7904V48.7568V48.7233V48.6897V48.6609V48.6274V48.5938L55.73 48.5411L55.8067 48.5075H55.9026H56.0081H56.128L56.2575 48.4548Z" fill="#1F2C51"/>
<path d="M56.3629 49.4514H56.641L56.9 49.4801L57.0198 49.5137L57.1157 49.5569L57.1589 49.5904L57.1877 49.6192L57.2212 49.6624V49.7055V49.7487V49.7918V49.8254L57.1877 49.8589H57.1589H57.1061H57.0486H56.9863H56.6986H56.4301H56.3102H56.1903H56.0752H55.9793L55.8786 49.8254L55.8163 49.7822L55.7827 49.7487H55.754V49.6432L55.7779 49.6096L55.8451 49.5521L55.917 49.5233H56.0033H56.1136H56.3581L56.3629 49.4514Z" fill="#1F2C51"/>
<path d="M56.4157 50.3953H56.6986L56.9527 50.4288H57.0726L57.1685 50.472L57.2116 50.5056L57.2452 50.5343L57.274 50.5679V50.611V50.6542V50.6878V50.7213H57.2452H57.2116H57.1589H57.1061H57.039H56.7513H56.2718H56.1759H56.0992L56.0225 50.6878L55.9697 50.6446L55.9218 50.7069V50.6782V50.5631V50.5104L55.9506 50.4816L56.0177 50.448L56.08 50.424H56.1759H56.2862L56.4157 50.3953Z" fill="#1F2C51"/>
<path d="M56.5547 51.3248H56.8041L57.0486 51.3584H57.1589L57.2548 51.3872L57.2884 51.4111H57.3171L57.3507 51.4447V51.4783V51.507V51.5406V51.5646H57.3171H57.2452H57.1253H56.8664H56.502H56.4157H56.3437H56.2766H56.2239L56.1903 51.531V51.4879V51.4447V51.392V51.3488V51.3152H56.2239H56.2766H56.3533H56.5547V51.3248Z" fill="#1F2C51"/>
<path d="M57.2644 52.1441H57.3507H57.4274H57.4562V52.1777V52.2209V52.2832V52.3407V52.3839L57.4274 52.4127H57.3938H57.3171H57.2308H57.1972H57.1924H57.1589H57.1253V52.3695V52.2736V52.2304V52.1969H57.1541L57.1924 52.1441H57.2548H57.2644Z" fill="#1F2C51"/>
<path d="M56.1376 51.895L55.7204 51.665L55.3224 51.3967L54.934 51.1044L54.5696 50.7834L54.2292 50.4384L53.9079 50.0743L53.5819 49.6814L53.2942 49.2741L53.016 48.8333L52.7475 48.3829L52.4982 47.9037L52.2632 47.4246L52.0475 46.9215L51.8461 46.4424L51.6639 45.9153L51.4912 45.3883L51.3282 44.8516L51.1892 44.3198L51.0645 43.7688L50.959 43.2273L50.8535 42.6811L50.7672 42.1349L50.6761 41.603L50.6138 41.0664L50.5562 40.5441L50.5131 40.0075V39.49V38.9869V38.0287V37.5495V37.0991V36.7541V36.4427L50.4795 36.1408L50.4364 35.9061V35.8006L50.4028 35.7L50.374 35.6186L50.3309 35.5419L50.2973 35.4748L50.2446 35.4221L50.1726 35.3742L50.1151 35.3311L49.1561 34.713L48.1971 34.0997L47.2381 33.5199L46.2791 32.9402L45.3009 32.3987L44.3132 31.8621L43.287 31.359L42.2897 30.8799L41.2732 30.4007L40.2518 29.9503L39.2209 29.5239L38.2044 29.0975L37.1639 28.6998L36.1234 28.3356L35.0733 27.9811L34.0184 27.66L32.9683 27.3486L31.9038 27.0707L30.8537 26.812L29.7892 26.5772L28.7295 26.3616L27.665 26.1699L26.5957 25.9974L25.5456 25.8585L24.4812 25.7387L23.4215 25.6429L22.3714 25.5662L21.3069 25.5231H20.2568H19.1875L18.1374 25.5566L17.0969 25.6093H16.9483H16.8188H16.766H16.7229H16.6797L16.6462 25.5039L16.5838 25.4368L16.5167 25.341L16.464 25.2356L16.4016 25.0871L16.2386 24.6798L16.09 24.2581L15.9557 23.8221L15.8214 23.3957L15.7112 22.9165L15.6153 22.4662L15.5385 22.0301L15.4762 21.5893V21.5031V21.4312L15.5098 21.3545L15.5385 21.2875L15.5817 21.2348L15.6488 21.1916L15.7112 21.1485H15.7975L16.4975 21.0527L17.2599 21H18.0751H18.9526L19.8876 21.0623L20.8753 21.1389L21.9063 21.2491L22.9755 21.3881L24.1071 21.5558L25.2579 21.7522L26.4231 21.9583L27.6363 22.2026L28.8686 22.4949L30.1248 22.8063L31.4003 23.1465L32.6902 23.5203L33.98 23.918L35.289 24.3492L36.5741 24.8331L37.8831 25.3123L39.1825 25.8249L40.4724 26.3712L41.7479 26.9509L43.0137 27.5546L44.27 28.1871L45.4831 28.8483L46.6723 29.5383L47.8423 30.2522L48.9691 31.0044L50.0528 31.7759L51.0933 32.5904L52.105 33.4193L52.2968 33.6349L52.455 33.8266L52.5989 33.9991L52.7044 34.1476L52.7811 34.2866L52.8338 34.4159V34.5357V34.6507V34.7705V34.8855L52.8003 35.0292L52.7571 35.1682L52.6516 35.5084L52.5318 35.9396L52.4454 36.3229L52.3831 36.7446L52.3208 37.171L52.2632 37.6214L52.2201 38.1005L52.1913 38.5797V39.0588V39.5715V40.1656V40.7023V41.2485L52.2345 41.8091L52.2872 42.3745L52.3495 42.9446L52.4263 43.51L52.5222 44.0802L52.6325 44.6504L52.7475 45.2062L52.8866 45.7764L53.04 46.3322L53.2174 46.8736L53.3996 47.4102L53.5962 47.9373L53.8072 48.45L54.047 48.9291L54.2915 49.4082L54.5504 49.8874L54.8285 50.3378L55.1306 50.769L55.4519 51.1667L55.7827 51.55L56.1376 51.9046V51.895Z" fill="#1F2C51"/>
<path d="M49.2712 76.1395L49.6788 75.7993L50.0768 75.4352L50.47 75.0662L50.8679 74.6925L51.2563 74.2948L51.6303 73.9019L52.0043 73.4899L52.3592 73.0634L52.714 72.6322L53.0592 72.1962L53.3901 71.7554L53.7114 71.2762L54.023 70.7971L54.3251 70.318L54.6032 69.8388L54.8717 69.3597L55.1307 68.8805L55.3752 68.4014L55.6006 67.8983L55.8068 67.3712L55.9986 66.8586L56.1712 66.3219L56.3294 65.7949L56.4685 65.2486L56.5883 64.7024L56.6842 64.1562L56.761 63.6004L56.8137 63.0398L56.8473 62.4744V61.9042V61.3341L56.8137 60.7543L56.7705 60.4572L56.713 60.141L56.6507 59.8391L56.5835 59.5517L56.5116 59.2738L56.4253 58.9959L56.3294 58.7371L56.2431 58.488L56.0609 58.052L55.8883 57.6878L55.754 57.4147L55.6581 57.2422L55.5047 56.9356L55.3225 56.6481L55.1307 56.3558L54.9341 56.0779L54.7327 55.8L54.5313 55.5221L54.3155 55.2729L54.0902 55.019L53.8744 54.7603L53.6394 54.5159L53.4141 54.2667L53.1743 54.0224L52.9298 53.7876L52.6948 53.548L52.4359 53.3228L52.1913 53.0881L51.6735 52.6233L51.146 52.2064L50.6138 51.7992L50.0624 51.3919L49.5205 51.0182L48.9643 50.6396L48.3937 50.2755L47.8375 49.9209L47.2238 49.5472L46.6148 49.1926L46.0154 48.8477L45.4113 48.5266L44.8023 48.2152L44.1885 47.9181L43.546 47.6163L42.8747 47.3527L41.9972 46.9982L41.1054 46.6436L40.6259 46.4807L40.1751 46.3082L39.6956 46.1597L39.2161 46.0111L38.7367 45.8578L38.2572 45.7332L37.7777 45.6039L37.2982 45.4841L36.8187 45.3643L36.3392 45.2685L35.8597 45.1726L35.3802 45.096L34.824 44.957L34.1095 44.8277L33.3903 44.6887L32.671 44.5593L32.3066 44.4779L31.9518 44.4204L31.5873 44.3773L31.2229 44.3485L30.8681 44.315L30.5037 44.291H29.7748H29.4392H28.9981H28.5809H28.3028H28.1973H28.0439H27.8856H27.7226H27.574L27.4637 44.2479H27.4109H27.3774L27.1184 44.085L26.8691 43.9173L26.6341 43.7448L26.38 43.5196L25.9389 43.1746L25.5457 42.8105L25.1477 42.4559L24.7497 42.1061L24.3661 41.7372L23.9777 41.3731L23.9058 41.2437L23.8243 41.1239V41.0712V41.0185L23.8531 40.9754L23.9298 40.9227L24.0353 40.8556L24.1647 40.7933L24.3469 40.7262L24.6155 40.6639L25.1429 40.5681L25.6799 40.4914L26.217 40.4292L26.7636 40.3717H27.3102L27.8664 40.3477H28.4131H28.9741L29.5303 40.3812L30.0913 40.4244L30.6475 40.4866L31.2037 40.5633L31.7648 40.6496L32.3114 40.7454L32.8676 40.8508L33.4142 40.9802L33.9609 41.1095L34.4979 41.2485L35.0349 41.397L35.572 41.5599L36.0994 41.7324L36.6125 41.9145L37.1303 42.1061L37.6098 42.2978L38.1133 42.4943L38.5928 42.7051L39.0723 42.9207L39.5518 43.1363L40.0073 43.3615L40.4533 43.5867L40.8848 43.8215L41.302 44.0562L41.7431 44.3054L42.1938 44.5498L42.3856 44.6695L42.5678 44.775L42.7309 44.8708L42.8364 44.957L42.8939 45.0002L42.9466 45.0337L42.9898 45.0672H43.0425H43.0953H43.148H43.2871H43.3398L43.383 45.0433H43.4357L43.4789 45.0097L43.5316 44.9762L43.5748 44.9331L43.6179 44.8804L43.6611 44.8277L43.6947 44.7606V44.7079V44.6456V44.5162V44.4396V44.3773L43.6611 44.3102L43.6275 44.2575L43.5844 44.1952L43.5412 44.1377L43.4885 44.085L43.4357 44.0323L43.3734 43.9892L43.2871 43.9988L43.2247 43.97L42.5582 43.5723L41.8917 43.1986L41.2396 42.844L40.5827 42.5086L39.9306 42.178L39.2833 41.881L38.636 41.603L38.0126 41.3299L37.3653 41.0856L36.7324 40.8604L36.0946 40.6448L35.4617 40.4531L34.8383 40.2806L34.2294 40.1177L33.6156 39.9692L33.0162 39.8398L32.4265 39.7248L31.8463 39.629L31.2517 39.5427L30.6811 39.4661L30.1249 39.4134L29.5783 39.3703L29.0316 39.3367H28.5042H27.9911H27.4876H26.9794L26.4999 39.3703L26.0204 39.4134L25.5409 39.4757L25.0997 39.5427L24.673 39.6194L24.299 39.6913L23.9106 39.7584L23.7188 39.7871L23.5462 39.8111H23.3975H23.2441H23.2009L23.1578 39.7679L23.1482 39.7248L23.0091 39.5954L22.8365 39.4325L22.4529 39.0157L22.0022 38.5365L21.5515 38.0334L21.1439 37.5543L20.7987 37.1902L20.5829 36.965L20.3911 36.7925L20.2952 36.7062V36.6631V36.62V36.5769V36.505V36.4379L20.3383 36.3612L20.3959 36.299L20.4678 36.2463L20.5637 36.1935L20.6932 36.1265L20.8466 36.0642L21.0384 35.9971L21.2302 35.9252L21.422 35.8677L21.6186 35.815L21.8104 35.7719L22.1988 35.7L22.592 35.633L22.8317 35.5994L23.0859 35.5707L23.3784 35.5275L23.6996 35.494L24.0305 35.4605H24.3853H24.7497H25.1285L25.608 35.494L26.0875 35.5227L26.591 35.5659L27.1184 35.6234L27.6555 35.6857L28.1925 35.7527L28.7391 35.8246L29.2953 35.9204L29.866 36.0163L30.4366 36.1169L31.0024 36.2319L31.5826 36.3612L32.1627 36.5002L32.7333 36.6487L33.3087 36.8021L33.8793 36.9745L34.4499 37.1566L35.0158 37.3387L35.5768 37.5208L36.133 37.7124L36.694 37.8945L37.2406 38.0862L37.7777 38.2922L38.3099 38.4934L38.8373 38.6995L39.3552 38.9055L39.8347 39.1163L40.3142 39.3319L40.7937 39.5475L41.2732 39.7727L41.7239 39.9883L42.1555 40.2231L42.261 40.2662L42.3712 40.3094L42.4671 40.3381L42.5726 40.3621H42.7021H42.8076H42.8507H42.8939H42.9275L42.961 40.3333L43.0138 40.2806L43.0473 40.1656V40.0794V39.9931V39.9069L43.0138 39.8111L42.9802 39.6865L42.9275 39.5907L42.8651 39.5044L42.8076 39.4469L42.7117 39.3703L42.6158 39.3175L42.3808 39.2073L42.1459 39.1019L41.8869 38.9821L41.628 38.8672L41.1054 38.618L40.5875 38.3736L40.0744 38.1389L39.547 37.9089L39.0339 37.6837L38.4921 37.4824L38.0126 37.2908L37.4948 37.0991L36.9673 36.9075L36.4542 36.711L35.9268 36.5433L35.385 36.3325L34.8671 36.16L34.3397 36.0115L33.817 35.8534L33.28 35.7048L32.7381 35.5946L32.2155 35.4653L31.6785 35.3359L31.1558 35.2305L30.6188 35.1251L30.0817 35.0292L29.5447 34.9286L28.9981 34.8424L28.4514 34.7705L27.9048 34.6938L27.3582 34.6315L26.7972 34.5741L26.241 34.5309L25.6847 34.4926L25.1141 34.4591L24.5435 34.4159H24.1072H23.6277L23.1482 34.4495L22.6687 34.4926L22.1892 34.5693L21.7097 34.6555L21.259 34.7609L20.8178 34.8807L20.5589 34.9765L20.324 35.0724H20.2712H20.2041H20.2089H20.1465H20.089L20.0267 35.0484H19.9643L19.8972 35.0053L19.7917 34.8951L19.6622 34.7418L19.4992 34.5405L19.3122 34.3201L19.13 34.0518L18.943 33.7499L18.7704 33.4577L18.5882 33.1366L18.406 32.8252L18.2333 32.4994L18.0847 32.2071L17.9552 31.9532L17.8737 31.7567L17.797 31.5746V31.498V31.4453V31.3686H17.8306L17.8833 31.3351L17.9696 31.3015L18.0655 31.2728L18.3245 31.1961L18.6026 31.1194L18.8903 31.0476L19.1492 30.9901L19.3314 30.947H19.4273H19.6622H19.9212L20.1897 30.9134L20.4918 30.8895L20.813 30.8607L21.187 30.8272L21.6042 30.7936H22.0837L22.5968 30.7697H23.1482L23.7476 30.7936L24.3901 30.8272L25.0902 30.8895L25.8382 30.9661L26.6677 31.0619L27.5692 31.1817L27.9863 31.244L28.4131 31.3063L28.8542 31.383L29.2953 31.4596L30.1728 31.6321L31.0647 31.8334L31.9566 32.0586L32.8484 32.2933L33.6971 32.4994L34.5842 32.7773L35.4761 33.0791L36.3583 33.3906L37.2262 33.7212L38.0845 34.0757L38.9237 34.4303L39.7484 34.804L40.5539 35.1921L41.3259 35.5898L41.465 35.6521L41.604 35.7048L41.6664 35.7288H41.7335H41.7863H41.8534H41.9061H41.9589H42.0116L42.0548 35.6857L42.0979 35.6425L42.1411 35.5755L42.1746 35.5036V35.4078V35.3646V35.3071V35.264V35.2113L42.1075 35.1059L42.0116 35.0101L41.8774 34.8951L41.7575 34.8088L41.6376 34.7322L41.5081 34.6699L41.23 34.5405L40.8896 34.3824L40.5348 34.2003L40.2135 34.0518L39.5134 33.7595L38.8182 33.4577L38.1085 33.1798L37.3893 32.8971L36.67 32.6431L35.9604 32.3844L35.2411 32.1352L34.5363 31.9004L34.2438 31.8046L33.817 31.6752L33.3375 31.5459L32.9827 31.4405L32.8292 31.3973L32.6374 31.3351L32.4121 31.2776L32.1532 31.2057L31.8846 31.1386L31.6257 31.0619L31.338 30.9949L31.0455 30.9422L30.7147 30.8799L30.2975 30.7936L29.818 30.7074L29.3385 30.6116L28.859 30.5157L28.4323 30.4391L28.0966 30.3624L27.8712 30.3193L27.6363 30.2905L27.291 30.233L26.8547 30.1899L26.3752 30.1372L25.8957 30.0845L25.4162 30.0318L25.0182 29.9983L24.7161 29.9647L24.3517 29.936L23.9777 29.912H23.5797H23.1818H22.3666H21.5323H21.1103H20.7028H20.2856L19.878 29.9456L19.48 29.9791L19.0964 30.0222L18.7368 30.1037L18.3532 30.1468L18.2046 30.1707H18.0847H17.9888L17.9361 30.1468L17.8737 30.1037L17.7778 29.9983L17.6723 29.8689L17.562 29.706L17.3271 29.3418L17.0921 28.9154L16.8524 28.4746L16.6414 28.0529L16.4352 27.6792L16.2962 27.4109L16.2338 27.2959L16.1811 27.1761L16.1236 27.0707L16.0948 26.9509V26.8982V26.8455V26.8024V26.7497L16.1379 26.7066L16.2003 26.673L16.277 26.6395L16.4352 26.6059L16.5647 26.5772L16.7133 26.5437H16.886H17.0682L17.4566 26.5101L17.8737 26.4382H18.2477H18.5786H18.8375H18.9766H19.4081H19.9212H20.5014H21.1007H21.6809H22.218H22.6975H23.0331H23.3448L23.738 26.4718L24.2175 26.5245L24.7305 26.5772L25.2772 26.6443L25.8478 26.7209L26.428 26.7928L26.9842 26.879L27.5883 26.9749L28.2069 27.0851L28.8302 27.2001L29.4536 27.3294L30.0769 27.4684L30.7003 27.6217L31.3332 27.7798L31.9566 27.9427L32.5895 28.1104L33.2128 28.2973L33.8218 28.4794L34.4452 28.671L35.0589 28.8627L35.6583 29.0543L36.2577 29.2604L36.8474 29.4616L37.4276 29.6772L38.0845 29.9264L38.7798 30.1947L39.4895 30.4822L40.1847 30.7745L40.8321 31.0524L41.3979 31.3207L41.8774 31.5459L42.3569 31.7902L42.8076 32.0202L43.2871 32.279L43.7666 32.5329L44.2461 32.8012L44.7256 33.0791L45.2051 33.3618L45.6846 33.6397L46.1641 33.9272L46.6436 34.2195L47.1231 34.5166L47.6026 34.8184L48.0821 35.1203L48.5616 35.4317L49.0123 35.7527L49.463 36.0738L49.5158 36.1169L49.5589 36.16L49.6021 36.2031L49.6356 36.2463L49.6788 36.3325V36.414V36.5673V36.6631V36.8116V37.0512V37.286V37.4345V37.6933V38.1724V38.6515V38.9917V39.399V39.8063V40.2279L49.7076 40.6448L49.7411 41.0616L49.7843 41.4928L49.837 41.9097L49.9041 42.3409L49.9665 42.7578L50.0528 43.1746L50.1391 43.5915L50.235 43.9988L50.3309 44.3964L50.4508 44.7941L50.5563 45.1822L50.6857 45.556L50.7385 45.7189L50.8248 45.9632L50.9351 46.2507L51.0501 46.5622L51.17 46.888L51.2755 47.1659L51.3618 47.3911L51.4289 47.5204L51.4913 47.645L51.5968 47.851L51.7358 48.1098L51.8749 48.3877L52.0283 48.6752L52.177 48.9435L52.3064 49.1687L52.4023 49.3316L52.5414 49.5472L52.6948 49.758L52.8435 49.9641L53.0065 50.1653L53.1647 50.3617L53.3373 50.563L53.51 50.7546L53.6826 50.9415L54.0374 51.3057L54.4114 51.6554L54.795 52.0004L55.1834 52.3214L55.4088 52.4939L55.6437 52.6664L55.9027 52.8389L56.1616 52.997L56.4301 53.1503L56.6986 53.2989L56.9863 53.4474L57.274 53.5768L57.5665 53.7157L57.8686 53.8355L58.1755 53.9649L58.4871 54.0703L58.8084 54.1757L59.1345 54.2763L59.4557 54.3722L59.777 54.4584L60.1078 54.5303L60.4291 54.6069L60.7648 54.6692L61.0956 54.7363L61.4313 54.789L61.7525 54.8321L62.0834 54.8657L62.4046 54.8992H62.7259H63.0472H63.3684H63.6801H63.9822H64.2843L64.5816 54.8657L64.8741 54.8321L65.2481 54.8034L65.6125 54.7507L65.9577 54.6932L66.2982 54.6405L66.6194 54.5638L66.9311 54.5015L67.2332 54.4249L67.5353 54.3434L67.8134 54.2572L68.0915 54.1565L68.3696 54.0607L68.6381 53.9649L69.156 53.7636L69.6786 53.5576L69.8752 53.4714L70.0862 53.3755L70.302 53.2701L70.5273 53.1503L71.0068 52.8916L71.4863 52.6041L71.937 52.3166L72.3638 52.0244L72.57 51.8758L72.7522 51.7369L72.9248 51.5979L73.0735 51.4686L73.1358 51.4015L73.2029 51.3727L73.2461 51.3392H73.2892H73.3228H73.3516L73.3851 51.3631L73.4187 51.4159L73.4906 51.5548L73.5769 51.7273L73.6536 51.9094L73.716 52.101L73.8454 52.4987L73.9413 52.8389L74.0804 53.318L74.1907 53.7684L74.2866 54.2476L74.3633 54.698L74.416 55.1771L74.4592 55.6275V56.0779V56.5283V56.9787L74.4256 57.4195L74.3825 57.8699L74.3201 58.3107L74.2434 58.7515L74.1571 59.1779L74.0516 59.6187L73.9318 60.0452L73.7927 60.4764L73.6536 60.8933L73.4954 61.3101L73.3228 61.7318L73.1406 62.139L72.944 62.5463L72.733 62.9536L72.5172 63.3512L72.2919 63.7441L72.0569 64.1322L71.8076 64.5156L71.5534 64.8941L71.2801 65.2678L71.002 65.6415L70.7239 66.0105L70.4362 66.3603L70.0286 66.8394L69.6067 67.3185L69.1703 67.7689L68.7196 68.2002L68.2401 68.6266L67.7606 69.0482L67.2811 69.4459L66.8016 69.8292L66.2838 70.203L65.7611 70.5671L65.2337 70.9217L64.6966 71.2571L64.15 71.5877L63.5938 71.8991L63.0328 72.2106L62.4766 72.4981L61.906 72.776L61.3402 73.0586L60.76 73.3126L60.1894 73.5617L59.6092 73.7965L59.029 74.0313L58.4488 74.2469L57.883 74.4529L57.3028 74.6446L56.7322 74.8363L56.1664 75.0088L55.5958 75.1717L55.0396 75.3298L54.4929 75.4687L53.9415 75.6077L53.3949 75.737L53.0976 75.8041L52.5893 75.9L51.9564 76.0293L51.2707 76.1443L50.585 76.2641L49.9809 76.3599L49.7267 76.3935H49.511H49.3623H49.2664H49.2328V76.3695V76.3408V76.2976V76.2545V76.221L49.2664 76.1779L49.3096 76.1347L49.2712 76.1395Z" fill="#1F2C51"/>
<path d="M73.9749 30.6834H73.8742H73.7927L73.7159 30.7122L73.6488 30.7553L73.5961 30.8225L73.5529 30.8848L73.5241 30.9615L73.4954 31.0622V31.115V31.1581V31.2013V31.2444L73.5385 31.3307L73.5913 31.4122L73.668 31.4794L73.7639 31.5417L73.8598 31.5849L73.9701 31.6088H74.066H74.1715H74.2722L74.3537 31.5753H74.3872L74.4208 31.5513H74.4544V31.5177V31.4842V31.441V31.3979V31.2396V31.1869L74.4304 31.1341L74.3776 31.0239L74.3009 30.928L74.2194 30.8416L74.1091 30.7793L74.066 30.7457H74.0132H73.9605H73.9077L73.9749 30.6834Z" fill="#1F2C51"/>
<path d="M72.7282 44.751H72.6419H72.5364H72.4405L72.335 44.7079L72.2391 44.6552L72.1288 44.5929L72.0569 44.4779L71.937 44.3821L71.8219 44.2719L71.7116 44.1425L71.5966 44.0179L71.4767 43.8646L71.2417 43.5627L71.0164 43.2321L70.791 42.8872L70.5704 42.5613L70.3786 42.2259L70.206 41.9193L70.0574 41.627L69.9375 41.3683L69.8512 41.1575L69.7984 41.0041L69.7025 40.7166L69.6066 40.4244L69.5299 40.1273L69.4676 39.835L69.4005 39.5571L69.3573 39.2696L69.3141 38.9774V38.6995V38.4216V38.1532V37.8849V37.6262V37.3866V37.1375V36.9027L69.3477 36.6775L69.3813 36.4619L69.41 36.2606L69.4532 36.069L69.4964 35.8869L69.5395 35.7144L69.5923 35.5611L69.6498 35.4221L69.7025 35.2976L69.7553 35.1874L69.808 35.1011L69.8752 35.0292L69.9279 34.9717L69.9806 34.943L70.0334 34.919H70.1005L70.1437 34.943L70.2492 35.1586L70.4745 35.7767L71.7212 39.5236L71.7836 39.6913L71.9322 40.1704L72.1624 40.8125L72.4165 41.5743L72.6754 42.3361L72.9008 43.0117L73.0734 43.4909L73.1453 43.7256V43.7879V43.8646V43.9413V44.0275V44.176V44.2815V44.3389V44.3917L73.1118 44.4539L73.0686 44.521L73.0063 44.5833L72.9391 44.6504L72.8528 44.7031L72.7569 44.7414L72.7282 44.751Z" fill="#1F2C51"/>
<path d="M80.3906 40.2279H80.3043H80.2419L80.1892 40.2519H80.1556V40.2806V40.3141V40.3477L80.3282 40.5058L80.5104 40.6687L80.5344 40.7118V40.755L80.5584 40.7981V40.8604V40.9802V41.0856V41.2581V41.5072V41.7516V41.9432V42.0966V42.2355V42.3745V42.4799V42.523V42.5661V42.5996H80.592H80.6687H80.7022L80.779 42.5709L80.8605 42.5038L80.9468 42.4319L81.0427 42.3457L81.2153 42.1636L81.3687 41.9672L81.4742 41.8186L81.5174 41.7516L81.6373 41.5312L81.7427 41.3156L81.8291 41.1191L81.9058 40.9274L81.9777 40.7358L82.0544 40.5298L82.1168 40.3046L82.1839 40.0602V40.0267V39.9835V39.9548V39.9213L82.1503 39.8781L82.1072 39.8446H82.0544H82.0017H81.9441L81.8914 39.8733L81.8291 39.9069L81.7523 39.9404L81.666 39.974L81.5605 40.0027L81.3256 40.0554L81.0667 40.089L80.8173 40.1225L80.5824 40.156H80.4002H80.2611L80.3906 40.2279Z" fill="#1F2C51"/>
<path d="M84.5238 23.1897V23.0938L84.4711 22.998L84.332 22.9166H84.2649L84.193 22.883L84.0443 22.8159L83.8525 22.7728L83.6367 22.7393H83.421H82.9702H82.5531H82.2078H81.9969L81.4358 22.8016L80.9324 22.8638L80.4817 22.9309L80.0741 22.9932L79.7097 23.0603L79.398 23.1226L79.1295 23.1897L78.9041 23.252L78.6979 23.319L78.4965 23.3622L78.2903 23.3957L78.0794 23.4724L77.9595 23.5155L77.854 23.5778L77.7245 23.6448L77.6047 23.7263L77.4752 23.8269L77.3361 23.9323L77.1971 24.0617L77.0485 24.2007L76.7464 24.5121L76.4491 24.8331L76.1566 25.1541L75.8689 25.4656L75.586 25.7674L75.3223 26.0549L75.0633 26.3328L74.814 26.582L74.5359 26.8503L74.205 27.1617L73.8598 27.4828L73.5145 27.8038L73.2077 28.0817L72.9487 28.3165L72.7761 28.4794L72.7138 28.5321L72.6275 28.6087L72.5604 28.7142L72.5076 28.8435L72.4645 28.9825L72.4309 29.131V29.2939V29.452V29.6245V29.7874V29.9264L72.474 30.051L72.5268 30.1707L72.5987 30.257L72.685 30.3097L72.7857 30.3337H72.8912L72.9967 30.2714L73.0207 30.1947L73.083 30.1085L73.1501 30.0558L73.2988 29.9695L73.4378 29.9072L73.5769 29.8306L73.6105 29.7683L73.6536 29.6485L73.7064 29.476L73.7495 29.337L73.8262 29.2077L73.9125 29.0927L74.0084 28.9825L74.0708 28.9394L74.1379 28.8962L74.2002 28.8675L74.277 28.8339H74.3489H74.4256H74.5119H74.5982L74.8332 28.8771L75.0346 28.9298L75.2168 29.0016L75.3894 29.0783L75.725 29.2604L76.0895 29.4568L76.2477 29.5287L76.4011 29.5814L76.5162 29.6054H76.6361H76.7416L76.8614 29.5622L76.9813 29.4952L77.106 29.3993L77.4608 29.1118L77.8396 28.81L78.2232 28.5225L78.6212 28.2302L79.4268 27.6409L80.2515 27.0515L81.0666 26.4622L81.8626 25.892L82.251 25.6045L82.6154 25.3266L82.9654 25.0439L83.3107 24.766L84.2121 24.0377L84.2985 23.9323L84.4087 23.803L84.4902 23.6736V23.6113V23.5442V23.4724V23.2903L84.5238 23.1897ZM83.9197 23.4819L83.8333 23.5874L83.7087 23.7071L83.5456 23.8317L83.3442 23.985L83.1141 24.1336L82.5818 24.4977L81.9777 24.905L81.666 25.1302L81.3352 25.3554L81.0139 25.6045L80.6926 25.8489L80.2851 26.1699L79.8631 26.4814L79.4363 26.7928L79.0192 27.0707L78.813 27.2097L78.6116 27.3294L78.415 27.4349L78.2232 27.5307L78.041 27.6073L77.8588 27.6744L77.6958 27.7175H77.5471H77.4608H77.3745H77.293H77.2163L77.1396 27.6744L77.0628 27.6313L77.0005 27.5882L76.9382 27.5355L76.8183 27.4301L76.7224 27.3103L76.6361 27.2049L76.5737 27.1186L76.5306 26.9988V26.9365V26.8695V26.8072V26.7305L76.5546 26.6586L76.5977 26.5724L76.7032 26.4095L76.8327 26.2274L76.9957 26.0358L77.1875 25.8393L77.4033 25.6477L77.6478 25.4464L77.9067 25.2404L78.1849 25.0391L78.4726 24.8331L78.7746 24.6319L79.0959 24.4354L79.4172 24.2534L79.7288 24.0809L80.0597 23.9323L80.4049 23.803L80.7454 23.6736L81.0906 23.5778L81.4215 23.4819L81.7571 23.4053L82.088 23.343L82.3996 23.2903L82.6921 23.2567H82.9607H83.2052H83.421H83.6032L83.7518 23.2903L83.8621 23.3238L83.9244 23.3765V23.4436L83.9197 23.4819ZM75.4757 29.9887L75.3798 29.9024L75.2935 29.8497L75.188 29.8066L75.0681 29.7731L74.953 29.7443L74.8332 29.7204H74.7277H74.6414H74.5023L74.416 29.7826L74.3633 29.9216V29.9983L74.4592 30.0845H74.5455H74.6414L74.7469 30.1085H74.8571L74.9387 30.1516L75.0394 30.1947L75.1257 30.2282H75.2216H75.2935H75.3702L75.4325 30.1851L75.4997 30.1085V30.0366L75.4757 29.9887ZM79.6857 34.6843L79.6425 34.5884L79.5754 34.4926L79.4891 34.3968L79.3836 34.3105L79.2541 34.2339L79.1151 34.1812L78.9664 34.138H78.8274H78.6835H78.5685L78.463 34.1812L78.3767 34.2387L78.2999 34.3105L78.2568 34.4064V34.5022V34.6124L78.2999 34.7082L78.3767 34.804L78.463 34.8999L78.5685 34.9861L78.6979 35.0532L78.837 35.1155L78.976 35.149H79.1247H79.2493H79.3788L79.4843 35.1059L79.5706 35.0532L79.6377 34.9765L79.6809 34.8807V34.7849L79.6857 34.6843ZM79.6857 34.6843L79.6425 34.5884L79.5754 34.4926L79.4891 34.3968L79.3836 34.3105L79.2541 34.2339L79.1151 34.1812L78.9664 34.138H78.8274H78.6835H78.5685L78.463 34.1812L78.3767 34.2387L78.2999 34.3105L78.2568 34.4064V34.5022V34.6124L78.2999 34.7082L78.3767 34.804L78.463 34.8999L78.5685 34.9861L78.6979 35.0532L78.837 35.1155L78.976 35.149H79.1247H79.2493H79.3788L79.4843 35.1059L79.5706 35.0532L79.6377 34.9765L79.6809 34.8807V34.7849L79.6857 34.6843ZM81.0139 34.622V34.5261V34.4399L80.9707 34.2578L80.9036 34.0949L80.8173 33.9368L80.7118 33.7835L80.5919 33.6445L80.4673 33.5152L80.3138 33.4002L80.1556 33.29L79.983 33.1941L79.8008 33.1223L79.609 33.0552L79.4028 33.0025L79.2014 32.9689H78.9712H78.7603H78.5541H78.3527L77.9883 33.0552L77.8156 33.1127L77.6622 33.1845L77.5136 33.2708L77.3841 33.357L77.269 33.4624L77.1683 33.5822L77.0868 33.7116L77.0197 33.8505L76.9669 33.9895L76.9238 34.1524V34.3201V34.4926V34.6747L76.9669 34.8472L77.0197 35.0197L77.0964 35.2017L77.1923 35.3646L77.3026 35.5323L77.4177 35.6857L77.5567 35.8342L77.6958 35.9731L77.8588 36.1025L78.0314 36.2223L78.2232 36.3181L78.415 36.4044L78.6212 36.4667L78.8322 36.5194H78.9425H79.048H79.2493H79.3596H79.4555H79.5514H79.6473L79.8391 36.4571L80.0213 36.3708L80.1844 36.275L80.3426 36.1552L80.4817 36.0259L80.6111 35.8869L80.731 35.7288L80.8269 35.5659L80.9036 35.3934L80.9564 35.2113L80.9899 35.1251V34.9334V34.8376V34.7418L81.0139 34.622ZM80.357 34.8472V34.9861L80.3234 35.1251L80.2803 35.2544L80.2083 35.3742L80.146 35.4796L80.0597 35.5755L79.9734 35.6713L79.8775 35.7479L79.772 35.8246L79.6521 35.8773L79.5322 35.9204L79.4028 35.9636H79.2637H79H78.8466L78.7075 35.93L78.5685 35.8773L78.4294 35.8102L78.2999 35.7384L78.1609 35.6521L78.041 35.5563L77.9259 35.4461L77.8156 35.3407L77.7102 35.2209L77.6143 35.0915L77.5375 34.9669L77.4656 34.8472L77.3985 34.7178L77.3553 34.5884L77.3218 34.4591V34.277V34.2147L77.3553 34.1045L77.3985 33.9991L77.4512 33.9033L77.5231 33.817L77.6238 33.7403L77.7293 33.6685L77.8492 33.611L77.9643 33.5583L78.1033 33.5152L78.2328 33.472H78.3862H78.5253H78.6739H78.8226H78.9616H79.1007L79.2397 33.5056L79.3788 33.5583L79.5083 33.6014L79.6281 33.6637L79.748 33.7403L79.8535 33.817L79.959 33.8985L80.0597 33.9847L80.1316 34.0949L80.2083 34.2003L80.2707 34.3057L80.3138 34.4351L80.3474 34.5645V34.6938L80.357 34.8472ZM79.6425 34.5884L79.5754 34.4926L79.4891 34.3968L79.3836 34.3105L79.2541 34.2339L79.1151 34.1812L78.9664 34.138H78.8274H78.6835H78.5685L78.463 34.1812L78.3767 34.2387L78.2999 34.3105L78.2568 34.4064V34.5022V34.6124L78.2999 34.7082L78.3767 34.804L78.463 34.8999L78.5685 34.9861L78.6979 35.0532L78.837 35.1155L78.976 35.149H79.1247H79.2493H79.3788L79.4843 35.1059L79.5706 35.0532L79.6377 34.9765L79.6809 34.8807V34.7849V34.6747L79.6425 34.5884ZM82.8408 33.8074L82.8168 33.5583L82.7737 33.3139L82.7305 33.0791L82.6777 32.8396L82.601 32.6048L82.5291 32.37L82.4428 32.1352L82.3469 31.8957L82.2462 31.6609L82.1311 31.4261L82.064 31.2967L81.9681 31.1338L81.853 30.9517L81.714 30.7601L81.5509 30.5828L81.3879 30.3576L81.0235 29.9264L80.8317 29.7108L80.6303 29.5095L80.4337 29.3179L80.2323 29.1454L80.0405 28.9921L79.8535 28.8627L79.772 28.81L79.6857 28.7669L79.5994 28.7237H79.5227H79.4507L79.3405 28.7764L79.211 28.8723L79.0623 28.9825L78.7938 29.1981L78.6308 29.337L78.439 29.4952L78.2136 29.6677L77.9979 29.8306L77.8061 30.003L77.6862 30.0845L77.5375 30.2043L77.3457 30.3241L77.1539 30.4487L76.8183 30.6547L76.6696 30.7409L76.5594 30.784L76.4443 30.8272L76.2813 30.8895L76.2045 30.923L76.1326 30.9997V31.0619L76.2045 31.1578L76.2908 31.2009L76.358 31.2249H76.4443H76.5162H76.5833L76.6457 31.2584L76.756 31.3446L76.8375 31.4501L76.9238 31.6465L76.9669 31.7855L77.0101 31.9148V32.0538L77.0389 32.1256L77.082 32.1927L77.2019 32.2886L77.2642 32.3221H77.3409H77.4177H77.48L77.7054 32.2454L77.9403 32.1831L78.1657 32.1256L78.391 32.0825H78.6164H78.8418H79.0671H79.2925L79.5179 32.1161L79.7432 32.1688L79.8535 32.2023L79.959 32.2454L80.0789 32.2981L80.1844 32.3508L80.2946 32.4035L80.4097 32.4802L80.52 32.5521L80.6255 32.6287L80.7454 32.715L80.8509 32.8108L80.9564 32.9162L81.0762 33.0264L81.1961 33.1558L81.3016 33.2852L81.3879 33.4097L81.4742 33.5391L81.5509 33.6685L81.6133 33.7978L81.666 33.9272L81.7092 34.0566L81.7427 34.1859V34.3105L81.7667 34.4399V34.689V34.8184V34.9334V35.0628L81.7236 35.1826L81.69 35.3119L81.6372 35.4269L81.5845 35.5467L81.5174 35.6617L81.455 35.7815L81.3783 35.8869L81.292 36.0067L81.1194 36.2223L80.9276 36.4379L80.7118 36.6296L80.4769 36.8212L80.4001 36.8883L80.3474 36.9506L80.2946 37.056V37.1566L80.3618 37.2285L80.4433 37.2956H80.5104L80.6926 37.3387H80.8125H80.894H80.9803L81.0666 37.3052H81.1529L81.316 37.2285L81.4742 37.1422L81.6277 37.0368L81.7667 36.9075L81.9058 36.7781L82.0352 36.6391L82.1503 36.4762L82.2606 36.3181L82.3565 36.1552L82.4524 35.9827L82.5291 35.815L82.601 35.6425L82.6538 35.47L82.7113 35.3071L82.7641 35.0388L82.8072 34.7945L82.8408 34.5357V34.2914V34.0422V33.8074ZM82.2078 38.5126V38.3736L82.1791 38.2682L82.1359 38.1724L82.0784 38.1053L81.9537 38.0191H81.877H81.7907H81.7044H81.5989L81.3735 38.0622L81.1242 38.1293H80.9947H80.87H80.7502H80.6447L80.5344 38.0957L80.4289 38.067L80.333 38.0239L80.2371 37.9712L80.0501 37.861L79.8679 37.746L79.6761 37.5926L79.4747 37.4345L79.2589 37.3052H78.9568L78.7698 37.195H78.5876L78.415 37.1614L78.2472 37.1183L78.0746 37.0752L77.9115 37.0225L77.7629 36.9554L77.6095 36.8931L77.4704 36.8164L77.3314 36.7302L77.2019 36.6439L77.0868 36.5481L76.9669 36.4427L76.8519 36.3325L76.7416 36.2127L76.6457 36.0929L76.5594 35.9636L76.473 35.8246L76.4011 35.6857L76.334 35.5371L76.2717 35.3886L76.2285 35.2257L76.1758 35.0532L76.1422 34.8807V34.6986V34.5166V34.3249V34.1189V33.9176V33.7116L76.1758 33.4864L76.2093 33.2756V33.0264L76.2429 32.7725V32.6431V32.4994V32.37L76.2189 32.2502L76.1901 32.1352L76.1326 32.0346L76.0607 31.9388L75.9648 31.8669L75.8449 31.8094H75.7826H75.7059L75.6195 31.7855H75.5236H75.4277H75.3175L75.2455 31.819L75.1688 31.8909L75.0921 31.9771L75.0202 32.0442L74.977 32.1065L74.9003 32.2023L74.8044 32.2886L74.7085 32.3413L74.6414 32.3652L74.5263 32.4083H74.4064H74.277H73.9461L73.7543 32.3844L73.5481 32.3508L73.3467 32.2886L73.246 32.255L73.1645 32.2119L73.0782 32.1688L72.9919 32.1161L72.9152 32.0634L72.7857 31.934L72.7426 31.8621L72.6275 31.6992L72.5172 31.5698L72.4021 31.474L72.2918 31.3782L72.1863 31.2919L72.0904 31.2153L71.9802 31.1194L71.8986 30.9997L71.8123 30.8751L71.7356 30.7457L71.6733 30.5924L71.6062 30.4343L71.5534 30.2714L71.5103 30.0989L71.4767 29.9312V29.7491V29.5622V29.3945V29.2125L71.5103 29.04L71.5534 28.8771L71.6157 28.719L71.6925 28.556L71.7884 28.4171L72.1 28.0194L72.6658 27.4636L72.9056 27.2576L73.3228 26.9174L73.5817 26.6395L73.6536 26.5532L73.6872 26.4766V26.4143L73.5913 26.3137H73.505H73.4091H73.3084L73.0159 26.2705H72.7569H72.5124H72.2631L71.75 26.3041L71.2705 26.3712L70.7526 26.443L70.2732 26.5389L69.7553 26.6586L69.2758 26.788L68.7723 26.9365L68.2928 27.109L67.8133 27.2911L67.3338 27.4828L66.8543 27.6984L66.3748 27.9236L65.9241 28.1584L65.4878 28.4171L65.2624 28.556L64.9795 28.7285L64.6582 28.9441L64.3082 29.1981L63.9102 29.4904L63.5026 29.8306L63.2869 30.0174L63.0615 30.1995L62.8361 30.4007L62.6204 30.6163L62.2464 30.9901L61.9011 31.3686L61.5703 31.7759L61.2586 32.1831L60.9565 32.6L60.6784 33.0264L60.4195 33.4768L60.0694 33.9368L59.8345 34.4159L59.6187 34.8951L59.4221 35.3742L59.2399 35.8534L59.0721 36.3325L58.9187 36.8116L58.7796 37.2908L58.631 37.837L58.5111 38.3545L58.4056 38.8767L58.3097 39.4038L58.2234 39.9308L58.1515 40.4531L58.0891 40.9897L58.0364 41.5168L57.9932 42.0534L57.9645 42.5613V43.098V43.625V44.1521V45.2014V45.7285V46.2076L58.1275 50.4528L58.2665 51.9525L58.3624 52.5323L58.4583 52.9204L58.5446 53.0354L58.6453 53.136L58.7508 53.1983L59.2303 53.3803L59.7098 53.5289L60.1893 53.6726L60.6688 53.778L61.1483 53.8739L61.6278 53.9505L62.1073 53.9936L62.5868 54.0272H63.0663H63.5458L64.0253 54.0032L64.5048 53.9601L64.9843 53.8978L65.4638 53.8211L65.9433 53.7253L66.4228 53.6151L66.9023 53.4905L67.3818 53.3516L67.8613 53.1983L68.3408 53.0258L68.7915 52.8437L69.2326 52.652L69.6642 52.4508L70.0813 52.2352L70.4889 52.01L70.8869 51.7704L71.2705 51.5261L71.6349 51.2673L71.9898 51.0134L72.3254 50.7307L72.6467 50.4528L72.9583 50.1653L73.1405 49.9832L73.2364 49.8874L73.3228 49.8107L73.4282 49.7772H73.5385L73.6009 49.8299L73.6776 49.8922L73.7399 49.9593L73.8023 50.0311L73.9461 50.218L74.0612 50.4097L74.1811 50.6349L74.2961 50.8696L74.4064 51.1284L74.5119 51.3871L74.6941 51.8998L74.8571 52.3789L74.9866 52.8293L75.0825 53.1839L75.1784 53.572L75.2647 53.9457L75.327 54.3338L75.3942 54.7171L75.4373 55.1052L75.4661 55.4886V55.8862V56.2743V56.672V57.0649L75.4373 57.453L75.4038 57.8507L75.351 58.234L75.2839 58.6317L75.212 59.0198L75.1353 59.4031L74.9435 60.1793L74.8236 60.5531L74.7037 60.9268L74.579 61.3053L74.44 61.6695L74.2865 62.0336L74.1379 62.3882L73.9749 62.7523V63.1644L73.7927 63.5094L73.6105 63.8544L73.4187 64.1754L73.2173 64.506L73.0111 64.8174L72.7953 65.1289L72.2391 65.8811L71.6493 66.6094L71.026 67.3042L70.3834 67.9798L69.7073 68.6218L69.0073 69.2447L68.288 69.8484L67.5496 70.4138L66.7824 70.9744L65.996 71.5014L65.1953 71.9806L64.3801 72.4597L63.541 72.9389L62.6923 73.3653L61.8244 73.7774L60.9565 74.1511L60.0742 74.5152L59.1824 74.8602L58.2809 75.1812L57.3795 75.4783L56.4684 75.761L55.5574 76.0054L54.6463 76.2497L53.7305 76.4653L52.8194 76.6618L51.9084 76.8391L51.0069 77.002L50.1055 77.1409L49.204 77.2607L48.3218 77.3661L47.4443 77.4524L46.5716 77.5195H46.5093L46.4038 77.4667L46.3462 77.3709V77.2511L46.3798 77.1457L46.4757 77.0259L46.5524 76.9637L46.725 76.8247L46.9504 76.6618L47.4299 76.2976L47.9334 75.9095L48.4464 75.4831L48.9739 75.0327L49.4917 74.5536L50 74.0217L50.5179 73.4755L51.0213 72.9149L51.5008 72.3256L51.9803 71.7171L52.4598 71.0846L52.9106 70.4282L53.3421 69.7526L53.7353 69.0674L54.1141 68.3583L54.4545 67.6396L54.795 66.9113L55.0635 66.159L55.2745 65.4116L55.4711 64.6401L55.6101 63.8687L55.706 63.0829L55.754 62.3019V61.5161L55.6868 60.7256L55.5574 59.9302L55.3656 59.1396L55.0971 58.3442L54.795 57.5632L54.3874 56.7774L53.9079 55.9964L53.3565 55.225L53.088 54.8896L52.8099 54.5686L52.5317 54.2572L52.2297 53.9601L51.918 53.6678L51.6063 53.3899L51.2563 53.1024L50.9206 52.8437L50.8247 52.7814L50.7288 52.7479H50.6425H50.5802L50.5466 52.8197V52.9299L50.6329 53.0689L50.9542 53.433L51.8365 54.5399L52.2345 55.1292L52.5893 55.7185L52.877 56.2935L53.1599 56.8924L53.3948 57.4962L53.5962 58.1047L53.7593 58.7084L53.9079 59.3313L54.0038 59.9446L54.0565 60.5531L54.0901 61.152V61.7653L54.0565 62.3642L53.9894 62.9679L53.8839 63.5669L53.7641 64.1658L53.6058 64.7551L53.4236 65.3349L53.2174 65.9147L52.9825 66.4944L52.714 67.0502L52.4358 67.6108L52.1242 68.157L51.7933 68.7033L51.4385 69.2303L51.0741 69.743L50.6761 70.2557L50.2589 70.7348L49.8274 71.214L49.3767 71.6931L48.8972 72.1722L48.4177 72.6083L48.0724 72.9101L47.732 73.188L47.3772 73.4659L47.0223 73.7342L46.6675 73.993L46.3031 74.2517L45.5742 74.7309L45.2098 74.9561L44.8358 75.1717L44.457 75.3873L44.083 75.5885L43.6946 75.7945L43.311 75.9766L42.9226 76.1683L42.539 76.3408L42.141 76.5133L41.7526 76.681L41.3547 76.8439L40.9471 77.0068L40.1415 77.3038L39.3264 77.5961L38.4921 77.8261L37.6673 78.08L36.8282 78.3388L35.9795 78.5736L35.5 78.8227L35.6151 78.976L36.4063 79H37.2022H38.0078H38.8229H39.6381H40.4676H42.1075H42.9322H43.7617L44.5769 78.9665L45.392 78.9233L46.2072 78.8706L47.0031 78.794L47.7943 78.7077L48.5903 78.6023L49.0314 78.54L49.4678 78.4729L49.8993 78.4202L50.3069 78.3675L50.6713 78.31L50.9926 78.2573L51.2611 78.2142L51.4529 78.1855L52.666 77.9603L53.86 77.7111L54.4354 77.5817L55.0155 77.4428L55.5861 77.3038L56.1567 77.1553L56.713 77.0595L57.2692 76.9109L57.8302 76.7385L58.3768 76.566L58.9234 76.3983L59.4701 76.2018L60.0071 76.0102L60.5441 75.8089L61.0812 75.6029L61.6086 75.3777L62.1313 75.1525L62.6587 74.9081L63.1862 74.659L63.7088 74.4002L64.2267 74.1223L64.7493 73.8444L65.2672 73.557L65.7803 73.2455L66.3077 72.9341L66.8208 72.5987L67.3386 72.2585L67.8613 71.8943L68.3791 71.5302L68.8922 71.1421L69.7649 70.4665L70.58 69.7574L71.352 69.0434L72.0569 68.2912L72.733 67.5389L73.3755 66.7675L73.9749 65.977L74.5119 65.172L74.9914 64.3575L75.4325 63.519L75.8305 62.6853L76.171 61.8372L76.473 60.9795L76.708 60.1218L76.9046 59.2498L77.0293 58.3826L77.1156 57.5057L77.1491 56.6337L77.1156 55.7665L77.0293 54.8848L76.8902 54.0272L76.6984 53.1599L76.4395 52.3023L76.1278 51.4542L75.7538 50.6205L75.3127 49.782L74.8332 48.9674L74.2722 48.1529L73.6776 47.3527L72.9871 46.5669L72.2487 45.8051L71.4335 45.0672L71.2178 44.8612L71.002 44.6696L70.8102 44.4779L70.6184 44.2814L70.4362 44.0802L70.2636 43.8886L70.0909 43.6825L69.9423 43.4909L69.7889 43.2848L69.6498 43.0836L69.5108 42.8776L69.3813 42.6763L69.2662 42.4607L69.1559 42.2451L69.0504 42.0343L68.9545 41.8187L68.8442 41.5264L68.7483 41.2293L68.6524 40.9275L68.5661 40.6256L68.5038 40.319L68.4367 39.9931L68.3743 39.6817L68.3312 39.3607L68.2976 39.0396L68.2641 38.7186V38.3976V38.0766V37.7699V37.4489V37.1375L68.2976 36.826L68.3408 36.5242L68.3839 36.2223L68.4463 35.9348L68.523 35.6473L68.6093 35.3646L68.6956 35.1107L68.8011 34.852L68.921 34.6076L69.036 34.368L69.1799 34.1428L69.3285 33.9416L69.4916 33.7451L69.6594 33.5631L69.8416 33.4049L70.0478 33.2564L70.2492 33.127L70.3259 33.1031L70.4026 33.127L70.4985 33.2133L70.5608 33.3187L70.767 33.908L71.3472 35.4509L72.0569 37.4729L72.2295 38.0095L72.4021 38.5365L72.5747 39.0588L72.7474 39.5859L72.92 40.1129L73.0878 40.6448L73.2604 41.1718L73.4426 41.6989L73.5721 42.0534L73.692 42.3745L73.7447 42.5134L73.7879 42.6428L73.8214 42.7386V42.8153L73.855 42.9207L73.9749 43.0405L74.042 43.0932L74.1043 43.1507L74.1811 43.189L74.2674 43.2465L74.4592 43.3423L74.6749 43.4286L74.9003 43.5148L75.1448 43.5963L75.6243 43.7496L76.0751 43.8646L76.4491 43.9652L76.6888 44.0275L76.8998 44.0898L77.3074 44.2096L77.5231 44.2527H77.7054H77.7821L77.8588 44.224V44.0706V43.9556L77.8252 43.8167L77.7917 43.6777L77.7389 43.5388L77.6862 43.3759L77.6238 43.2273L77.5471 43.074L77.4704 42.9255L77.3985 42.7769L77.3122 42.638L77.2355 42.5086L77.1491 42.3888L77.0628 42.2834L76.9909 42.1972L76.9142 42.1301L76.6265 41.9193L76.1854 41.5743L75.7682 41.2437L75.586 41.1047L75.4469 40.961L75.2839 40.846L74.766 40.4579L74.6078 40.3285L74.4688 40.204L74.3297 40.0602L74.2865 39.9979L74.253 39.9356L74.2098 39.8254V39.7536L74.2722 39.6577L74.3489 39.605L74.4352 39.5715L74.5311 39.538H74.6414H74.7469H74.9722L75.2072 39.5715L75.4325 39.605L75.6483 39.6577L75.8209 39.7009L76.1326 39.7775L76.4107 39.8494L76.6696 39.9165L76.9238 40.0027L77.1731 40.089L77.4177 40.1944L77.6862 40.3237L77.9643 40.4819L78.2664 40.6448L78.5253 40.8077L78.6308 40.8795L78.7411 40.9562L78.837 41.0281L78.9089 41.1143L78.9856 41.2102L79.048 41.3204L79.1055 41.4401L79.1486 41.5647V41.7037V41.8762V42.0582V42.2643V42.4463V42.6045L79.1151 42.7578L79.0863 42.9303V43.0117V43.1123V43.1938V43.28L79.1199 43.4621L79.163 43.625L79.1966 43.7017L79.2925 43.7544H79.3548L79.5083 43.7209L79.6905 43.6777H79.7528H79.8199L79.9158 43.6154L79.9878 43.5484L80.0309 43.4765V43.3759V43.2705V43.1507L79.9782 43.0357V42.959L79.9542 42.8871V42.8009V42.7003L79.9302 42.5086V42.317V41.9193V41.5743V41.5024L79.8631 41.3299L79.7288 41.1718L79.6665 41.0856L79.5994 41.0137L79.5275 40.9275L79.4507 40.8508L79.1199 40.5633L78.8274 40.3381L78.6883 40.2279L78.5493 40.089L78.4869 40.0171L78.4534 39.9404V39.8446V39.7488L78.5061 39.6625L78.5828 39.6098L78.7027 39.5667H78.7746H78.8514H79.2685H79.7001H80.1268L80.544 39.5332H80.7502L80.9516 39.4996L81.1577 39.4565L81.3495 39.4038L81.5461 39.3415L81.7379 39.2648L81.9201 39.1882L82.0928 39.0924L82.1887 38.9007V38.7186L82.2078 38.5126ZM83.5265 31.3926L83.4737 31.3063H83.3874H83.3011L83.2052 31.3399L83.0853 31.383L82.9798 31.4357L82.8935 31.4884L82.8264 31.5555L82.7737 31.6178L82.7305 31.7136L82.7545 31.7902L82.8072 31.8957L82.9271 32.0586L82.999 32.0921H83.0757L83.1812 32.0681L83.3011 32.0154L83.3874 31.9388L83.4497 31.8525L83.4929 31.7567L83.5265 31.6609V31.565V31.4884V31.3926ZM83.6655 30.2474L83.6032 30.1947L83.536 30.1707H83.4641H83.3634H83.2579L83.1381 30.1947L83.023 30.2235L82.9031 30.2666L82.7737 30.3193L82.6442 30.3959L82.5291 30.463L82.4332 30.5349L82.3565 30.6116L82.3037 30.6978L82.3373 30.7601L82.3996 30.784H82.4955H82.6154L82.7449 30.7601H82.8839L83.023 30.7266L83.1525 30.6834L83.2675 30.6499L83.3634 30.5972L83.4641 30.5541L83.6032 30.4391L83.6751 30.3289L83.6655 30.2474ZM83.234 29.2891L83.1716 29.2364H83.0949H83.0134H82.9127H82.7976L82.6777 29.2795L82.5579 29.3227L82.4332 29.3897L82.3037 29.4616L82.1743 29.5479L82.0544 29.6437L81.9585 29.7299L81.8626 29.8593V29.9264L81.8914 29.9887H81.9681H82.0736H82.203L82.3325 29.9551L82.4812 29.912L82.6202 29.8593L82.7497 29.8018L82.8695 29.7491L82.9894 29.6868L83.0709 29.6245L83.1572 29.5574L83.21 29.4952L83.2531 29.4281L83.2771 29.3658L83.234 29.2891ZM82.5051 28.2302L82.4428 28.2063H82.3805H82.2942L82.1935 28.2398L82.088 28.2829L81.9681 28.3356L81.8626 28.4027L81.7427 28.489L81.6277 28.5848L81.5078 28.6902L81.4119 28.8004L81.3256 28.9058L81.2728 29.0016L81.2393 29.0783L81.2824 29.1646H81.3591L81.4646 29.131L81.5845 29.0879L81.714 29.0352L81.853 28.9729L81.9825 28.8962L82.0976 28.8196L82.2174 28.7477L82.3133 28.6615L82.3901 28.5848L82.462 28.5081L82.5051 28.4267L82.5387 28.3596V28.2734L82.5051 28.2302ZM75.4134 24.2821L75.3558 24.1863L75.2839 24.1432L75.1976 24.1767L75.1113 24.2534L75.0777 24.3156V24.3779V24.4546V24.5313V24.7133V24.8092V24.905V24.9817L75.1113 25.0439L75.1832 25.111L75.2503 25.0775L75.3127 25.0008L75.3462 24.9289L75.3798 24.8427V24.7565V24.6606V24.5744V24.4115L75.4134 24.2821ZM81.7763 27.5786L81.6996 27.5355H81.6277H81.5413L81.4454 27.569L81.3352 27.5978L81.2297 27.6648L81.1098 27.7271L80.9947 27.8134L80.8748 27.9092L80.6591 28.1248L80.5728 28.2302L80.52 28.3261L80.4864 28.4027L80.5392 28.489H80.6159L80.7118 28.465L80.8317 28.4219L80.9612 28.3692L81.1002 28.3069L81.2297 28.2302L81.3591 28.1584L81.4646 28.0817L81.5605 27.9954L81.6468 27.9188L81.7092 27.8373L81.7667 27.7607L81.7955 27.6936V27.6313L81.7763 27.5786Z" fill="#1F2C51"/>
</svg>
