<svg width="100" height="100" viewBox="0 0 100 100" fill="none" xmlns="http://www.w3.org/2000/svg">
<path d="M58.4722 77.2673C73.6754 77.2673 86 64.9514 86 49.759C86 34.5666 73.6754 22.2507 58.4722 22.2507C43.269 22.2507 30.9443 34.5666 30.9443 49.759C30.9443 64.9514 43.269 77.2673 58.4722 77.2673Z" fill="#F6921E"/>
<path d="M30.9011 50.0677C32.1925 50.3456 32.1925 51.5064 32.4953 52.4326C35.9555 63.0161 42.1532 71.3458 52.2683 76.4646C53.7822 77.3476 57.7121 78.6937 59.6833 79.4408C46.3611 82.1021 25.8218 63.615 25.0804 48.4191C27.0824 48.8451 28.8311 49.9751 30.9011 50.0677Z" fill="#2E3191"/>
<path d="M66.9375 60.1016C67.2465 60.0522 67.3886 60.5153 67.0858 60.6141C64.849 61.3242 59.603 62.4295 54.1654 57.4589C50.9275 54.4888 47.9863 51.2162 43.976 49.1662L42.2644 48.2832C41.7392 47.9313 41.3499 48.098 41.5971 48.3882L42.0852 48.7031C42.561 49.018 43.043 49.3206 43.5188 49.6293C50.1551 54.0442 55.259 59.9102 59.6524 66.4863C60.845 68.1519 62.1323 69.7476 63.5081 71.2655C63.8294 71.6422 65.2877 72.9944 64.7007 72.8771L64.2126 72.6486C61.778 71.2593 60.19 68.9994 58.6884 66.795C51.7988 56.6376 42.1656 49.9813 31.3027 44.7822C29.8012 43.6213 28.2132 42.5408 26.8167 41.2811C21.756 36.7612 20.7365 32.0191 23.3873 25.4615C24.1041 23.6955 24.9692 21.9913 24.0052 19.9043C26.0443 19.8302 27.0948 20.7132 27.311 22.4668C27.5088 23.9117 27.4902 25.3874 27.6756 26.8323C27.678 27.0723 27.728 27.3094 27.8227 27.53C27.9174 27.7505 28.0549 27.9501 28.2273 28.1172C28.3997 28.2843 28.6035 28.4156 28.827 28.5035C29.0505 28.5913 29.2892 28.634 29.5293 28.6291C30.586 28.6724 31.3831 28.3574 31.8094 27.3139C31.8928 27.1135 31.961 26.9071 32.0133 26.6965C33.7744 19.9228 39.1563 19.2621 44.2788 21.1886C46.182 21.9049 47.9863 22.862 49.84 23.7017C54.2951 26.1099 58.3733 29.3763 64.4288 29.6974C57.8481 33.359 54.0418 27.4251 49.0614 26.61C51.0758 29.1416 53.3744 31.2472 56.5876 32.229C55.3517 33.3281 54.1159 32.9638 53.016 32.4019C50.8657 31.309 48.7895 30.0617 46.6825 28.8823C45.3725 28.1475 44.0625 27.4004 41.7886 27.9746C45.9163 29.259 48.0357 32.6303 51.8606 33.4084C47.3684 35.9338 44.8967 30.1111 40.1944 31.3028C42.87 31.9203 43.6115 34.0814 45.6073 35.0076C44.1923 35.8474 43.0492 35.2608 41.9308 34.8224C39.0575 33.6862 36.2954 34.4889 35.3439 36.7859C34.2193 39.5028 35.2697 42.6025 38.3654 43.2879C45.8483 44.9612 50.841 50.1357 56.1736 54.8902C56.501 55.1804 56.8471 55.4521 57.1807 55.7423C58.639 57.0328 60.2703 57.9405 62.124 56.7796C63.9777 55.6188 63.4216 53.7726 62.9273 52.056C62.4824 50.8748 62.3422 49.6007 62.5195 48.3512L62.9458 46.0171C62.9431 46.0008 62.9431 45.9841 62.9458 45.9677C62.9891 45.8257 63.0756 45.7269 63.1806 45.7393C63.2857 45.7516 63.3598 45.8751 63.3722 46.0356C63.3722 46.0356 63.3042 47.6719 63.2486 48.7587C63.2369 49.0434 63.2661 49.3282 63.3351 49.6046C63.539 50.4506 63.712 51.3088 63.9963 52.1301C64.7254 54.2357 64.9726 56.2733 63.1312 57.9405C61.7162 59.2187 60.2579 58.9408 58.8059 58.3974C58.0902 58.132 57.4255 57.7456 56.8409 57.2551L54.6906 55.4397C54.5858 55.3536 54.4868 55.2608 54.394 55.1619C52.3751 53.0246 50.1936 51.0469 47.8689 49.2465C46.6894 48.3585 45.4507 47.5518 44.1614 46.8322C44.0008 46.7828 43.7227 47.0545 43.9637 47.2582L44.8102 47.814C47.3684 49.4626 52.0027 53.8405 54.0727 55.804C55.0014 56.7953 56.0236 57.6948 57.1251 58.49C60.0973 60.7747 64.7069 60.4412 66.9375 60.1016Z" fill="#2E3191"/>
<path d="M59.7822 80.3917C59.7822 80.3917 57.8234 81.886 50.3282 80.5338C30.0669 76.8969 12.7099 57.0637 14.0755 38.2308C16.0055 38.9784 17.6154 40.3732 18.6294 42.1765C19.7726 44.0289 20.5202 46.1221 22.6891 47.2274C23.5418 47.6596 23.3873 48.9378 23.616 49.8331C26.7426 62.0405 33.3975 71.4878 44.8967 77.1438C46.9589 78.1613 49.11 78.9881 51.323 79.6137C54.059 80.3523 56.8998 80.6257 59.7266 80.4226L59.7822 80.3917Z" fill="#2E3192"/>
</svg>
