<svg width="100" height="100" viewBox="0 0 100 100" fill="none" xmlns="http://www.w3.org/2000/svg">
<path d="M18.5284 55.5674C18.3423 55.6645 18.2003 55.8294 18.1315 56.0281C18.0627 56.2269 18.0723 56.4445 18.1583 56.6364C19.7202 62.2858 22.0518 67.5268 26.1229 71.8622C31.1409 77.4155 37.9603 81.0035 45.3681 81.988C46.3497 82.0749 47.298 82.3881 48.139 82.9032C48.98 83.4183 49.691 84.1213 50.2164 84.9575C46.9298 85.1393 43.6371 84.7372 40.4902 83.7697C33.6974 81.8499 27.6415 77.9166 23.1163 72.4853C18.5911 67.054 15.8076 60.3782 15.1309 53.3329C13.4285 32.9774 28.5211 15.5542 49.2023 15.0123C61.6525 14.7079 71.8672 20.0678 78.9065 30.5128C83.1684 36.6923 85.2968 44.1009 84.9667 51.6074C84.6365 59.1138 81.866 66.3057 77.0782 72.0849C72.5416 77.8251 66.285 81.9502 59.232 83.8513C57.796 84.2374 56.8856 84.1854 55.7309 82.8937C52.7108 79.5234 49.3873 76.4352 46.1823 73.243C44.8344 71.9724 43.6372 70.5501 42.6145 69.0041C40.2533 65.1884 40.8306 61.3801 43.6508 57.8687C50.7419 48.9604 59.4985 41.7372 67.2039 33.4748C68.1651 32.4951 69.0673 31.4589 69.9057 30.3717C71.808 27.766 71.4527 25.7988 68.8398 23.8835C63.9216 20.316 58.0998 18.2122 52.0431 17.8137C45.9865 17.4153 39.9405 18.7383 34.5998 21.6308C29.2591 24.5233 24.8402 28.868 21.8507 34.1659C18.8612 39.4637 17.4224 45.4999 17.6994 51.5809C17.6345 52.1311 17.7859 52.6849 18.1213 53.1251C17.9909 53.9619 18.1337 54.8186 18.5284 55.5674ZM77.4779 34.039C77.3373 36.4591 77.0856 38.5896 76.1011 40.5717C74.3797 43.8658 72.1289 46.8529 69.4393 49.4133L55.6198 63.1692C53.9791 64.7287 52.5078 66.4581 51.2304 68.3286C49.1653 71.5207 49.3873 73.9408 51.9706 76.6653C53.0403 77.6308 54.0489 78.6622 54.9907 79.7535C56.2712 81.4981 57.685 81.5426 59.5947 80.919C63.8515 79.5828 67.7855 77.3751 71.1478 74.4356C74.5101 71.4961 77.2275 67.8888 79.1282 63.8418C81.029 59.7948 82.0716 55.3963 82.1901 50.9244C82.3087 46.4526 81.5006 42.0047 79.8169 37.8621C79.3136 36.5407 79.0619 35.056 77.4779 34.0167V34.039Z" fill="#2A2F76"/>
<path d="M18.5284 55.5674C18.1336 54.8186 17.9908 53.9619 18.1213 53.125C23.584 54.5652 28.0918 57.6683 32.0444 61.5583C39.5723 68.9744 46.9743 76.5242 54.4281 84.0518C54.5505 84.2144 54.6571 84.3884 54.7464 84.5714C53.5842 85.3138 52.844 84.7422 52.0742 83.9701C48.8766 80.7557 45.5901 77.6304 42.4516 74.364C38.9756 70.7282 34.8955 67.7264 30.3938 65.4928C25.6713 63.1321 20.9415 60.7417 18.5284 55.5674Z" fill="#A5303C"/>
</svg>
