<svg width="100" height="100" viewBox="0 0 100 100" fill="none" xmlns="http://www.w3.org/2000/svg">
<path d="M22.4509 67.0862C21.7685 66.2705 21.0697 65.3978 20.3954 64.5413C17.6386 61.1819 15.3558 57.4574 13.6112 53.4727C12.1501 50.0092 11.2689 46.3272 11.0032 42.5754C10.9566 39.9071 11.42 37.2545 12.3681 34.7613C13.0643 32.53 13.6366 30.2617 14.0825 27.9668C14.2264 26.9668 14.0767 25.9463 13.6519 25.0304C12.8394 22.8118 13.2781 21.3599 15.3174 20.1364C15.5319 20.0435 15.7097 19.8818 15.8229 19.6766C15.9361 19.4715 15.9783 19.2344 15.943 19.0026C15.8675 18.4462 15.9529 17.8796 16.1892 17.3706C16.4254 16.8615 16.8025 16.4314 17.2755 16.1315C17.4115 16.0357 17.5763 15.99 17.742 16.0018C17.9077 16.0137 18.0643 16.0825 18.1855 16.1967C19.2092 17.0124 19.2417 18.1299 19.3473 19.2392C19.394 19.7382 19.6023 20.2081 19.9404 20.5769C20.5122 21.1415 20.9416 21.8349 21.1931 22.5995C21.4447 23.3641 21.511 24.1778 21.3866 24.9733C21.262 25.6752 20.9845 26.3409 20.5741 26.9227C18.9492 29.1414 19.9648 31.7678 22.6541 32.6324C24.1168 33.0628 25.6408 33.2447 27.1633 33.1708C28.5499 33.1165 29.9328 33.3498 31.2257 33.8559C33.3218 34.6716 34.1099 36.205 33.8175 38.6684C33.4193 41.9718 33.005 45.2753 32.615 48.5787C32.5223 50.306 32.6838 52.0375 33.0944 53.7174C33.6756 57.1426 34.8118 60.4491 36.458 63.5054C38.5217 67.2629 41.3344 70.5532 44.7208 73.1711C47.721 75.5261 51.0751 77.3873 54.6574 78.685C60.8322 80.9362 67.2345 81.5153 73.7262 81.2706C78.9498 81.0322 84.1425 80.3335 89.2444 79.1825C89.4933 79.1021 89.7634 79.1196 90 79.2315C89.805 79.5985 89.4394 79.6719 89.1307 79.8024C84.7681 81.6381 80.1846 82.8913 75.4973 83.53C74.0268 83.7258 72.5399 83.8074 71.0531 83.8889C66.7878 84.0981 62.5154 83.6637 58.3785 82.6002C53.4078 81.3503 48.6625 79.3275 44.3146 76.605C40.9108 74.5986 37.8132 72.1096 35.1174 69.2151C33.2549 67.1269 31.7007 64.7811 30.5026 62.2493C30.3552 61.8625 30.1266 61.5122 29.8321 61.2222C29.5377 60.9323 29.1844 60.7094 28.7964 60.569C28.6438 60.4961 28.4745 60.4656 28.3062 60.4809C28.1379 60.4962 27.9768 60.5566 27.8398 60.6558C27.7027 60.7551 27.5948 60.8895 27.5272 61.0449C27.4597 61.2004 27.435 61.3713 27.4558 61.5397C27.6331 62.8461 28.0905 64.0983 28.7964 65.2102C30.6985 68.7699 33.0616 72.0612 35.8243 74.9982C37.2867 76.6295 38.7167 78.2608 40.1547 79.8922C40.2604 80.0145 40.4554 80.1777 40.3172 80.3571C40.1791 80.5366 39.9598 80.3571 39.7973 80.3082C38.053 79.3038 36.4446 78.0784 35.0118 76.6621C29.3604 71.4263 24.8296 65.0905 21.6953 58.0404C21.3328 56.9404 20.8332 55.8907 20.2085 54.9164C19.8998 54.5249 19.5423 54.1579 19.0061 54.321C18.4698 54.4841 18.3967 55.0225 18.3723 55.5282C18.2992 57.1595 19.1848 58.4728 19.7292 59.892C20.6066 62.1922 21.5735 64.4679 22.5078 66.7518C22.538 66.8392 22.5598 66.9293 22.5728 67.0209L22.4509 67.0862Z" fill="#018DD2"/>
</svg>
