<svg width="100" height="100" viewBox="0 0 100 100" fill="none" xmlns="http://www.w3.org/2000/svg">
<path d="M63.0173 49.1767H55.5795C55.5215 48.6886 55.493 48.1975 55.4942 47.706H62.8647C62.8711 48.1998 62.9222 48.6921 63.0173 49.1767Z" fill="#F98E9B"/>
<path d="M85.6271 29.2009C69.0951 32.8463 63.6547 39.7605 62.9186 46.298C62.8916 46.5446 62.8692 46.8047 62.8647 47.0513H24.6162C38.4101 26.8109 54.7625 28.9049 85.6271 29.2009Z" fill="#F02037"/>
<path d="M80.9094 47.688C80.9131 50.2435 80.1436 52.7403 78.7018 54.8512C77.2599 56.962 75.2131 58.5883 72.8297 59.5166L72.6097 59.3911C67.6721 56.3599 64.9026 53.1494 64.0811 49.7775C63.8681 48.9309 63.7774 48.0582 63.8118 47.1858C63.8118 46.9527 63.8387 46.7061 63.8657 46.4639C64.2786 42.8006 66.2312 39.0072 70.9534 35.8012C71.1419 35.6712 71.3394 35.5456 71.5369 35.4156C74.2307 36.1506 76.6077 37.7503 78.3014 39.9681C79.9951 42.1858 80.9115 44.8986 80.9094 47.688Z" fill="#F02037"/>
<path d="M100 70L0 49.7506H63.1475C65.0417 57.3733 76.4117 64.2785 99.991 69.9731L100 70Z" fill="#F02037"/>
</svg>
