<svg width="100" height="100" viewBox="0 0 100 100" fill="none" xmlns="http://www.w3.org/2000/svg">
<path d="M29.7886 55.249C29.5698 54.5216 29.5149 53.7544 29.6279 53.0031C29.6968 51.8917 29.846 50.7803 29.978 49.6689C30.0032 49.3679 30.0609 49.0705 30.1501 48.782C30.1879 48.6539 30.2529 48.5354 30.3406 48.4347C30.4282 48.3341 30.5366 48.2537 30.6581 48.199C30.7797 48.1443 30.9116 48.1166 31.0448 48.1178C31.1781 48.1191 31.3094 48.1492 31.43 48.2062C31.8891 48.4365 32.0555 48.1256 32.1531 47.8434C32.3766 47.3059 32.557 46.7513 32.6926 46.1849C32.75 45.8509 32.836 45.609 33.3411 45.7703C34.3684 46.0582 35.2407 45.5169 36.0327 44.9583C37.2609 44.0648 38.3465 42.989 39.2524 41.768C40.4002 40.2938 41.6169 38.8887 42.8221 37.4491C44.1535 35.8827 45.5137 34.3394 46.9829 32.9055C49.3846 30.465 52.1614 28.4274 55.207 26.8705C57.1492 25.8985 59.2098 25.186 61.3364 24.7513C61.8253 24.6801 62.3177 24.6359 62.8114 24.6188C62.2546 24.9286 61.642 25.1243 61.0093 25.1947C59.0742 25.721 57.2147 26.4952 55.4768 27.4982C53.3416 28.7579 51.407 30.3322 49.7377 32.1684C48.3067 33.7362 47.0017 35.4153 45.8351 37.1899C43.9871 39.9713 42.2998 42.8391 40.5092 45.6436C39.5336 47.1408 38.535 48.6669 37.0084 49.7149C36.4345 50.1181 36.4 50.1353 36.159 49.4961C35.7056 48.2926 34.6266 48.0853 33.5133 49.0182C32.297 50.0838 31.3441 51.4184 30.7298 52.9167C30.3625 53.6654 30.0641 54.4428 29.7886 55.249Z" fill="#F0680C"/>
<path d="M73.5264 8.21249C73.865 8.53497 73.5666 8.82866 73.5723 9.11659C73.6632 10.9533 73.5457 12.7945 73.2222 14.6046C72.9255 16.0359 72.1936 17.3397 71.1274 18.3362C70.0594 19.4365 68.8627 20.4033 67.5635 21.2155C66.1087 21.9827 64.5896 22.6205 63.0238 23.1216C61.348 23.6974 59.632 24.1812 58.0021 24.9068C57.8988 24.9586 57.7783 25.1659 57.652 24.9759C57.5258 24.7858 57.7152 24.6822 57.8529 24.6015C59.5746 23.6111 61.1758 22.3787 62.8287 21.25C66.0311 19.0617 68.9753 16.5855 71.1332 13.3031C72.097 11.9612 72.8053 10.452 73.2222 8.85169C73.3023 8.62906 73.4042 8.41495 73.5264 8.21249Z" fill="#F0680C"/>
<path d="M65.6464 23.4959C72.0053 20.5475 77.3713 16.4473 81.4002 10.6657C80.5336 13.4586 79.8506 16.3091 78.3527 18.8544C77.1131 20.9678 75.2192 22.0677 72.8948 22.6551C70.6665 23.1455 68.3973 23.4251 66.117 23.4901C65.962 23.5016 65.8071 23.4959 65.6464 23.4959Z" fill="#F0680C"/>
<path d="M53.8011 36.9538C54.5444 36.8676 55.2964 37.0081 55.959 37.3569C58.1809 38.3715 60.2813 39.635 62.2203 41.1231C63.788 42.2542 65.5341 43.1127 67.3855 43.6626C68.9809 44.1696 70.6421 44.4373 72.3154 44.4573C72.4417 44.4573 72.6253 44.3709 72.677 44.561C72.677 44.6301 72.6081 44.751 72.5335 44.8086C71.6382 45.5342 70.7773 46.3519 69.6295 46.6629C68.4539 46.9814 67.21 46.9373 66.0598 46.5362C64.2742 45.8609 62.6396 44.8372 61.2504 43.5244C59.5861 42.0502 58.0997 40.386 56.4296 38.9175C55.7811 38.2924 55.0605 37.7472 54.2832 37.2936C54.1166 37.1889 53.9557 37.0755 53.8011 36.9538Z" fill="#F0680C"/>
<path d="M78.4562 35.8539C77.9913 36.3952 77.5379 36.9481 77.0444 37.4663C76.7118 37.8755 76.3257 38.2377 75.8965 38.5432C74.5249 39.3379 73.1303 39.2573 71.6611 38.8023C68.9695 37.9616 66.6107 36.4989 64.2003 35.0995C62.1801 33.9478 60.1829 32.7097 57.8299 32.2202C57.8299 32.2202 57.7897 32.1511 57.7438 32.0647C58.0014 31.9643 58.2829 31.9422 58.553 32.0014C60.8274 32.154 63.0747 32.5852 65.2448 33.2856C67.2248 33.9536 69.1072 34.8807 71.1101 35.4854C72.5057 35.9315 73.952 36.1985 75.4145 36.2801C76.4434 36.284 77.4677 36.1405 78.4562 35.8539Z" fill="#F0680C"/>
<path d="M55.6086 34.6101C56.4523 34.5525 57.0032 34.9498 57.6059 35.1226C58.8283 35.4739 59.9876 36.0324 61.2043 36.378C63.6204 37.0632 65.9562 38.0019 68.3667 38.6814C69.3795 38.9677 70.3758 39.3099 71.351 39.7064C72.4754 40.1625 73.6874 40.3593 74.8978 40.2823C75.0527 40.2823 75.2651 40.2132 75.3397 40.3975C75.4143 40.5818 75.2765 40.7315 75.1503 40.8582C74.0824 42.0301 72.6575 42.8139 71.0985 43.0868C70.1515 43.2307 69.2792 42.8046 68.4413 42.4245C66.1902 41.3276 64.072 39.975 62.1283 38.3935C60.1262 36.8564 57.9349 35.5847 55.6086 34.6101Z" fill="#F0680C"/>
<path d="M34.638 65.3669L36.7385 66.5186C38.618 67.507 40.5646 68.3614 42.5637 69.0755C45.1291 70.0602 47.7289 71.0161 50.3 71.9145C52.3232 72.5852 54.2521 73.5142 56.0391 74.6786C57.8544 75.8807 59.4993 77.3239 60.9288 78.9688C62.5358 80.7789 63.8875 82.8018 64.9462 84.9808C65.5059 86.1684 65.9703 87.3989 66.335 88.6606C66.3609 88.8514 66.3724 89.0439 66.3695 89.2364C66.0282 88.5689 65.744 87.8734 65.5201 87.1576C64.5282 84.7724 63.1364 82.5754 61.4052 80.6618C59.815 78.9451 57.998 77.4551 56.0047 76.2334C54.4463 75.2565 52.7704 74.4825 51.0174 73.93C49.0764 73.2895 47.1736 72.5377 45.3185 71.6784C43.3155 70.803 41.37 69.8241 39.4646 68.799C38.2364 68.1195 37.0886 67.296 35.9178 66.4956C35.4051 66.2309 34.9655 65.8431 34.638 65.3669Z" fill="#F0680C"/>
<path d="M62.3178 94.6668C62.0635 94.349 61.9293 93.9513 61.939 93.5439C61.6951 92.1484 61.2906 90.786 60.7338 89.484C59.9572 87.6317 58.9423 85.8893 57.715 84.3013C55.2506 81.182 52.1103 78.6671 48.5325 76.9475C46.397 75.8144 44.3397 74.5389 42.3744 73.1295C40.8541 72.1131 39.3922 71.0114 37.9955 69.8298C36.8114 68.9276 35.74 67.8855 34.8045 66.7259C34.764 66.654 34.7295 66.5789 34.7012 66.5013C35.6998 67.1981 36.5263 67.9525 37.456 68.5802C38.9769 69.6052 40.5379 70.5497 42.1219 71.4595C45.2038 73.1871 48.3488 74.8341 51.3676 76.6423C53.1384 77.7563 54.726 79.1395 56.0736 80.7424C57.6734 82.5687 59.0244 84.6 60.091 86.7832C60.979 88.6524 61.664 90.612 62.1341 92.6282C62.2446 93.3024 62.306 93.9837 62.3178 94.6668Z" fill="#F0680C"/>
<path d="M81.0559 31.2125C79.7876 32.1166 78.7603 33.1761 77.555 34.0112C76.8994 34.463 76.1486 34.7569 75.3611 34.8697C74.5737 34.9826 73.7709 34.9115 73.0154 34.6619C70.9462 34.0298 68.9449 33.1926 67.041 32.1626C65.6344 31.3526 64.1191 30.7494 62.5416 30.3717C62.4612 30.3717 62.3923 30.2968 62.3177 30.2796C62.2431 30.2623 62.0193 30.1989 62.0595 30.0147C62.0996 29.8304 62.2603 29.911 62.3694 29.9052C63.321 29.922 64.2695 30.0203 65.2045 30.1989C66.6852 30.3659 68.1429 30.6827 69.6121 30.8957C70.3123 30.9936 71.0067 31.1261 71.7012 31.2643C72.694 31.4601 73.7098 31.4543 74.7142 31.6098C76.5015 31.8866 78.3251 31.8162 80.086 31.4025C80.3729 31.3334 80.591 31.0339 81.0559 31.2125Z" fill="#F0680C"/>
<path d="M84 18.578C83.7932 19.1677 83.5517 19.7446 83.2769 20.3056C82.8235 21.417 82.3357 22.5112 81.7905 23.5765C81.4538 24.2942 80.9659 24.9299 80.3604 25.44C79.755 25.95 79.0465 26.3221 78.2839 26.5307C77.2291 26.781 76.1365 26.8279 75.0642 26.6689C73.6869 26.4904 72.3152 26.2543 70.9378 26.093C68.9694 25.8304 66.9886 25.6708 65.0036 25.6151C64.9306 25.6179 64.8581 25.6013 64.7936 25.5669C64.7291 25.5325 64.6748 25.4816 64.6363 25.4193C65.0552 25.0853 65.5775 25.235 66.0366 25.1429C68.8979 24.647 71.7936 24.3774 74.6969 24.3367C76.9007 24.2445 78.7143 23.2368 80.3959 21.8892C81.6558 20.8514 82.8589 19.746 84 18.578Z" fill="#F0680C"/>
<path d="M40.0903 57.3048C39.6083 56.5504 39.1377 55.7845 38.6269 55.0474C38.1702 54.2528 37.5888 53.5372 36.9051 52.9283C36.7158 52.7843 36.4977 52.5655 36.2165 52.8189C35.9352 53.0722 36.0558 53.2565 36.0845 53.5329C36.2452 54.9611 37.1003 56.1358 37.4331 57.5006C37.5788 57.9318 37.6316 58.3892 37.5881 58.8424C37.2616 58.3906 37.0239 57.8805 36.8879 57.3394C36.314 55.9976 35.7745 54.6271 34.7128 53.5675C34.6481 53.5039 34.5993 53.426 34.5704 53.3399C34.5415 53.2538 34.5332 53.1621 34.5464 53.0722C34.5707 52.9513 34.569 52.8266 34.5413 52.7064C34.5136 52.5862 34.4605 52.4733 34.3857 52.3754C34.1676 52.6346 33.4502 56.6138 33.4445 57.6849C33.4445 59.5334 34.2078 61.2207 34.5005 63.0289C33.8175 62.0211 33.1346 61.0134 32.4688 59.9941C32.3535 59.7543 32.3059 59.4875 32.3311 59.2225C32.3193 57.7326 32.4056 56.2437 32.5893 54.7653C32.5893 54.5983 32.7328 54.3679 32.4688 54.3046C32.2048 54.2412 32.1589 54.4946 32.1073 54.6443C31.8526 55.4296 31.6852 56.2408 31.608 57.063C31.5333 57.9383 31.5506 58.8251 31.4817 59.7004C31.4473 60.0862 31.7514 60.4375 31.4817 60.9097C31.0753 60.447 30.7789 59.8976 30.6151 59.3031C30.1994 58.1477 30.2096 56.8812 30.6438 55.7327C31.176 53.8398 32.1793 52.1138 33.5593 50.717C33.8244 50.4689 34.1341 50.2735 34.4718 50.1411C35.017 49.9223 35.3097 50.1411 35.4876 50.8149C35.7172 51.6671 35.7172 51.6671 36.5493 51.3907C37.3815 51.1143 37.3643 51.1085 37.7603 51.9666C38.4375 53.4523 39.1606 54.915 39.8608 56.3892C40.0385 56.6595 40.1195 56.9823 40.0903 57.3048Z" fill="#F0680C"/>
<path d="M60.9233 57.4488C60.3529 57.4814 59.7819 57.3961 59.2458 57.1979C58.7097 56.9998 58.2199 56.6932 57.8069 56.2971C55.7006 54.4872 53.8644 52.383 52.3548 50.0489C51.3107 48.4069 50.0758 46.8952 48.676 45.5457C48.5527 45.4373 48.4376 45.3199 48.3317 45.1944C48.3094 45.1739 48.2916 45.149 48.2795 45.1212C48.2673 45.0935 48.261 45.0635 48.261 45.0332C48.261 45.0029 48.2673 44.9729 48.2795 44.9451C48.2916 44.9174 48.3094 44.8924 48.3317 44.8719C48.3755 44.8505 48.4236 44.8394 48.4723 44.8394C48.521 44.8394 48.5691 44.8505 48.6129 44.8719C49.6746 45.8394 50.9085 46.5995 51.9588 47.5497C53.9847 49.4443 55.8155 51.5807 58.1111 53.1471C59.7995 54.4067 61.7702 55.2313 63.8502 55.5484C64.0052 55.5484 64.1601 55.5945 64.2175 55.7212C64.2749 55.8479 64.0626 55.917 63.9765 56.0034C63.1282 56.7844 62.0635 57.2885 60.9233 57.4488Z" fill="#F0680C"/>
<path d="M70.1803 48.5229C69.8532 48.8742 69.4285 48.8799 69.0784 49.0469C68.2004 49.4731 67.2993 49.8359 66.427 50.2735C65.5546 50.7112 64.6077 50.4866 63.7526 50.1468C61.17 49.0988 59.1326 47.3712 57.2674 45.3038C55.5456 43.415 53.9444 41.3937 51.8956 39.8274C51.8669 39.8274 51.8956 39.7525 51.8611 39.7122C52.0505 39.5337 52.2112 39.7122 52.3375 39.7871C53.3646 40.4748 54.4321 41.0998 55.5342 41.6586C56.6177 42.3162 57.6278 43.0884 58.5472 43.9621C60.0834 45.3317 61.8269 46.4474 63.7124 47.2675C65.5568 48.0939 67.5647 48.4878 69.5835 48.4192C69.7268 48.4106 69.8706 48.4106 70.0139 48.4192C70.0311 48.4135 70.0656 48.448 70.1803 48.5229Z" fill="#F0680C"/>
<path d="M46.2483 47.0199L47.7232 48.1716C49.973 49.9511 51.7406 52.1681 53.5943 54.3564C55.1985 56.4121 57.2953 58.0267 59.6893 59.0497C60.0221 59.1764 60.378 59.2512 60.7223 59.3549C60.8371 59.3895 61.0265 59.28 61.0437 59.5219C61.0488 59.5938 61.031 59.6655 60.9928 59.7266C60.9546 59.7876 60.8981 59.835 60.8313 59.8617C60.2444 60.2413 59.6041 60.5305 58.9317 60.7197C56.8771 61.1631 55.4481 60.259 54.1453 58.7387C52.4236 56.7002 51.1839 54.3679 49.841 52.0817C48.8715 50.4315 47.7328 48.8875 46.4434 47.4748C46.3573 47.3712 46.1794 47.3021 46.2483 47.0199Z" fill="#F0680C"/>
<path d="M63.1843 28.0107C63.2065 27.9438 63.2514 27.887 63.3112 27.8501C63.3711 27.8132 63.4419 27.7987 63.5114 27.8091C65.9952 27.6523 68.4853 27.6216 70.9722 27.717C72.694 27.8034 74.4673 27.9819 76.2235 27.9358C78.3341 27.9011 80.3978 27.305 82.2036 26.2082C82.3414 26.1218 82.4619 25.9836 82.6857 26.1333C82.1692 26.8474 81.6642 27.5615 81.1304 28.2583C80.769 28.7887 80.366 29.2894 79.9252 29.7555C78.9381 30.7057 77.7157 30.5387 76.5334 30.4408C75.1635 30.3441 73.8008 30.1633 72.4529 29.8995C71.3051 29.6691 70.2491 29.3236 69.1529 29.0587C67.5261 28.5507 65.8436 28.2432 64.1427 28.1431C63.8205 28.1219 63.5002 28.0777 63.1843 28.0107Z" fill="#F0680C"/>
<path d="M50.0935 42.0848C50.7478 42.557 51.3848 43.0637 52.0677 43.4956C53.4454 44.419 54.7277 45.4781 55.8957 46.6571C56.7958 47.5604 57.7775 48.3778 58.8284 49.0988C60.5099 50.2141 62.3555 51.0574 64.2978 51.598C64.9617 51.8069 65.6384 51.9724 66.3237 52.0933C66.691 52.1508 66.8517 52.2948 66.5073 52.6691C65.74 53.5052 64.7037 54.0434 63.5804 54.1894C62.4958 54.2414 61.4311 53.8839 60.596 53.1874C58.6132 51.669 56.8379 49.8955 55.3161 47.9125C54.1683 46.5304 52.9917 45.1887 51.775 43.8815C51.2011 43.3056 50.5584 42.7873 49.9443 42.2402L50.0935 42.0848Z" fill="#F0680C"/>
<path d="M57.979 62.5221C56.6016 63.4378 55.3218 64.1173 53.7607 63.4378C53.0778 63.0734 52.4884 62.5549 52.039 61.9232C50.1896 59.5866 48.6733 57.0031 47.5338 54.247C46.6632 52.3201 45.4562 50.5649 43.9698 49.0642C43.8943 49.0037 43.8352 48.9249 43.7981 48.8353C43.7609 48.7457 43.747 48.6482 43.7575 48.5517C44.3658 49.1276 44.9053 49.5652 45.4218 50.072C47.6658 52.3006 49.3588 54.9668 51.27 57.4661C52.7464 59.4748 54.6941 61.0869 56.9402 62.1593C57.2329 62.2918 57.5428 62.3724 57.979 62.5221Z" fill="#F0680C"/>
<path d="M39.8435 23.6744C40.3494 23.4236 40.9036 23.2861 41.4677 23.2713C42.6958 23.1273 43.9412 23.1158 45.1694 22.9949C47.2125 22.7933 49.2786 22.8855 51.3045 22.5112C53.0219 22.275 54.7019 21.8183 56.3032 21.1521C56.7566 20.9448 57.2158 20.7548 57.6519 20.5129C58.0881 20.2711 58.1857 20.3862 58.2258 20.7836C58.2905 21.5161 58.2421 22.2542 58.0824 22.9719C58.0265 23.2722 57.8825 23.5489 57.6688 23.7664C57.455 23.984 57.1814 24.1324 56.8829 24.1927C55.82 24.4415 54.7318 24.5652 53.6403 24.5612C51.2414 24.5612 48.8539 24.2388 46.4607 24.0718C44.5955 23.9393 42.7188 23.9451 40.8536 23.7781C40.5092 23.7608 40.1993 23.9623 39.8435 23.6744Z" fill="#F0680C"/>
<path d="M26.4369 42.0905C26.9018 42.4188 26.9075 43.0004 27.2117 43.4092C27.5206 43.8782 27.7802 44.3781 27.9865 44.9007C28.0668 45.0677 28.1013 45.3096 28.3079 45.2866C28.4077 45.2607 28.4945 45.1988 28.5516 45.1127C28.6088 45.0267 28.6324 44.9225 28.6178 44.8201C28.6512 44.3146 28.7555 43.8164 28.9277 43.3401C28.9564 43.225 28.9277 42.9774 29.163 42.9774C29.3983 42.9774 29.4155 43.2192 29.4614 43.3632C29.5074 43.5071 29.4614 43.8354 29.7484 43.8124C30.0354 43.7893 29.932 43.4726 29.978 43.271C30.1846 42.2863 29.4959 41.7796 28.9047 41.2325C28.6006 40.9503 28.5834 41.2786 28.4628 41.4571C28.3423 41.6356 28.4628 42.2518 28.0554 42.1999C27.7282 42.1539 27.9922 41.6759 27.9004 41.3995C27.7951 41.1377 27.6249 40.9071 27.406 40.7298C27.187 40.5524 26.9266 40.4341 26.6493 40.386C26.3218 40.3601 25.9939 40.4288 25.704 40.5839C25.4142 40.739 25.1747 40.974 25.0136 41.2613C24.7548 41.8623 24.4457 42.4402 24.0896 42.9889C23.9863 43.1386 23.9117 43.3114 23.6936 43.3229C23.3723 41.4456 24.6004 39.7525 26.6608 39.2918C27.3318 39.1276 28.0363 39.1669 28.685 39.4047C29.3338 39.6426 29.8976 40.0682 30.3051 40.6278C31.2922 41.7796 31.4529 43.2998 32.0785 44.8259C31.3611 44.3709 31.1774 44.5552 31.0799 45.1714C30.9421 46.0121 30.6609 46.8241 30.4084 47.7628C30.2421 47.4167 30.1465 47.0408 30.1272 46.6571C30.1272 46.5074 30.1272 46.3404 29.9493 46.3116C29.7714 46.2828 29.6967 46.4901 29.6508 46.6226C29.4213 47.2618 29.2319 47.9183 28.9966 48.5517C28.9507 48.6784 28.9507 48.903 28.7268 48.9145C28.503 48.926 28.5088 48.6957 28.4399 48.5747C27.9004 47.6418 27.3954 46.6859 26.8559 45.7473C26.4484 45.0332 26.1213 44.3421 26.5115 43.4899C26.6722 43.058 26.2648 42.5915 26.4369 42.0905Z" fill="#F0680C"/>
<path d="M52.7449 64.123C51.5282 64.3131 50.3918 64.4685 49.2612 63.9388C48.1407 63.4055 47.2341 62.5059 46.6901 61.3877C45.892 59.673 45.1925 57.9137 44.5953 56.1185C44.0856 54.5541 43.3384 53.0778 42.38 51.742C42.3244 51.645 42.2783 51.5427 42.2423 51.4368C42.7416 51.4368 42.8851 51.8802 43.1089 52.122C44.352 53.4026 45.4089 54.8527 46.2482 56.4295C46.7475 57.443 47.6313 58.1571 48.3315 59.0382C49.4357 60.5397 50.6277 61.9742 51.9012 63.3341C52.1537 63.5817 52.5268 63.7027 52.7449 64.123Z" fill="#F0680C"/>
<path d="M40.6182 20.9794C41.3471 20.6051 42.1793 20.6454 42.9598 20.4035C44.8546 19.9703 46.7701 19.634 48.6989 19.3958C50.335 19.1605 51.9317 18.7033 53.4451 18.0367C54.6307 17.46 55.6751 16.6283 56.5041 15.6008C56.6188 15.4626 56.682 15.2841 56.9517 15.2495C57.0148 16.2573 57.5256 17.2017 57.2444 18.2555C57.0657 18.6854 56.7921 19.0689 56.4441 19.3772C56.0962 19.6854 55.683 19.9104 55.2357 20.035C52.7794 20.6108 50.2657 20.5705 47.7749 20.7778C45.3947 20.9745 43.0057 21.0418 40.6182 20.9794Z" fill="#F0680C"/>
<path d="M39.5566 16.4819C38.7186 17.2017 37.9439 17.8179 37.2207 18.4916C34.8448 20.703 33.123 23.2886 32.6696 26.594C32.4297 28.1651 32.49 29.7677 32.8475 31.3161C32.9142 31.4843 32.9125 31.672 32.8428 31.8389C32.773 32.0058 32.6408 32.1386 32.4745 32.2087C31.9924 32.4851 31.4759 32.6924 30.9766 32.9285C30.6896 33.061 30.5634 32.8882 30.5978 32.6579C30.8216 31.247 30.5978 29.8362 30.7069 28.431C30.8159 26.9165 30.879 25.4078 31.5276 23.9739C32.0822 22.831 32.7867 21.7678 33.6223 20.8124C34.9518 19.3495 36.5009 18.104 38.2136 17.1211C38.5843 16.7733 39.0536 16.5499 39.5566 16.4819Z" fill="#F0680C"/>
<path d="M27.0625 49.1967C27.1035 50.8932 26.6247 52.5615 25.6909 53.9763C25.5302 54.2182 25.3236 54.4946 24.9907 54.08C24.7667 53.8461 24.5228 53.6322 24.2618 53.4408C24.2225 53.3943 24.1712 53.3595 24.1135 53.3403C24.0558 53.321 23.994 53.3179 23.9347 53.3314C23.7625 53.3774 23.7912 53.5387 23.8314 53.6308C24.3594 54.9899 23.6879 56.2337 23.4584 57.5121C23.2288 58.7906 22.9878 59.9999 22.741 61.2437C22.741 61.3474 22.7812 61.5259 22.6262 61.5547C22.4712 61.5835 22.4311 61.4165 22.345 61.3013C21.5702 60.2878 21.5702 59.1361 21.6965 57.944C21.8095 56.9455 22.0249 55.9613 22.3392 55.0071C22.3617 54.8158 22.3617 54.6226 22.3392 54.4313C21.7653 54.7768 21.7998 55.4678 21.3177 55.8594L22.6205 50.8264H22.85C22.85 51.0797 22.85 51.3274 22.85 51.5807C22.85 52.0645 23.1025 52.1566 23.533 51.9493C24.1069 51.6614 24.2102 51.0452 24.5086 50.5557C24.6693 50.2908 24.5775 49.7783 24.9104 49.7668C25.2432 49.7553 25.2203 50.2678 25.4097 50.5212C25.5991 50.7745 25.5876 51.2928 25.9836 51.2813C26.3796 51.2698 26.4427 50.74 26.5862 50.406C26.7297 50.072 26.9018 49.6113 27.0625 49.1967Z" fill="#F0680C"/>
<path d="M33.5018 67.5264C34.0757 67.941 34.6497 68.3211 35.2236 68.7702C37.2724 70.4633 38.9655 72.5191 40.8421 74.3907C42.2841 75.863 44.0875 76.9277 46.0705 77.4773C46.2139 77.5118 46.3976 77.5349 46.4263 77.6616C46.455 77.7883 46.2828 77.9322 46.1278 77.9956C45.7736 78.1869 45.4306 78.3983 45.1005 78.629C43.7002 79.3661 42.6786 78.7327 41.6915 77.8343C39.614 75.9513 38.1448 73.6075 36.6928 71.2407C35.9794 70.0955 35.0702 69.0857 34.0069 68.2577C33.8786 68.1755 33.7678 68.0685 33.6811 67.943C33.5944 67.8174 33.5335 67.6758 33.5018 67.5264Z" fill="#F0680C"/>
<path d="M39.1032 26.6689C39.5509 26.2658 40.119 26.3925 40.5782 26.3752C42.1794 26.3061 43.7634 26.0585 45.3646 25.9376C47.2413 25.7936 49.1237 25.9376 50.9946 25.8224C52.3433 25.736 53.6863 25.7302 55.012 25.7187C55.121 25.7187 55.2817 25.6439 55.3276 25.7936C55.3736 25.9433 55.2358 26.0182 55.1153 26.1046C54.4596 26.5609 53.7502 26.9342 53.0033 27.216C52.4775 27.4177 51.9887 27.7057 51.5571 28.0682C50.9831 28.5635 50.3748 28.2583 49.8353 28.1661C47.9759 27.8552 46.1164 27.5154 44.2627 27.1699C42.5409 26.8301 40.8249 26.9396 39.1032 26.6689Z" fill="#F0680C"/>
<path d="M25.7082 64.6471C24.5029 63.4954 23.6306 62.2976 23.4642 60.6851C23.5009 60.2692 23.5877 59.8593 23.7224 59.4643C23.819 58.8456 23.9629 58.2353 24.1529 57.6388C24.1988 59.09 25.1974 58.8942 26.0869 58.8712C26.148 58.8654 26.2095 58.8654 26.2706 58.8712C26.6379 58.8712 27.1372 58.756 27.3323 58.946C27.5275 59.1361 27.1315 59.5219 27.0568 59.8617C27.0172 60.0312 27.0205 60.2081 27.0664 60.376C27.1124 60.544 27.1996 60.6977 27.3201 60.8231C27.4405 60.9485 27.5903 61.0417 27.7559 61.094C27.9215 61.1464 28.0975 61.1563 28.2678 61.1228C28.4457 61.0825 28.6179 61.0249 28.7728 61.1919C28.9278 61.3589 28.7728 61.5029 28.7154 61.6411C28.3137 63.1786 27.7742 64.6816 27.4586 66.248C27.0568 66.248 27.097 65.8506 27.0511 65.6721C26.7285 64.5363 26.4717 63.3826 26.2821 62.2169C26.1574 61.7952 25.9484 61.4033 25.668 61.0652C25.5819 60.927 25.4671 60.7715 25.2835 60.8521C25.0998 60.9328 25.1515 61.1689 25.1916 61.2898C25.3781 62.0141 25.5105 62.7513 25.5876 63.4954C25.7505 63.8562 25.7928 64.2602 25.7082 64.6471Z" fill="#F0680C"/>
<path d="M39.7746 53.602C40.4518 53.9936 40.6469 54.6271 41.02 55.1108C41.8464 56.1992 42.6728 57.2991 43.4534 58.422C43.8792 59.1016 44.2387 59.8209 44.5266 60.57C45.064 61.8068 45.8138 62.9393 46.7419 63.9157C46.8566 64.0367 47.0001 64.1518 46.9198 64.3361C46.8394 64.5204 46.6902 64.4455 46.5525 64.4743C45.6696 64.6065 44.7686 64.5436 43.9125 64.29C43.6125 64.1959 43.3453 64.0182 43.1421 63.7776C42.9389 63.537 42.808 63.2434 42.7647 62.931C42.2596 60.9788 41.9727 58.9748 41.2955 57.063C40.9709 56.1259 40.5875 55.2103 40.1476 54.3218C40.0156 54.1203 39.9353 53.913 39.7746 53.602Z" fill="#F0680C"/>
<path d="M41.9439 18.2786C42.5178 18.0828 43.0401 17.8697 43.6025 17.7027C44.8823 17.3226 46.1507 16.9138 47.4534 16.6258C48.4688 16.4202 49.4294 16.0015 50.2721 15.3971C51.1148 14.7927 51.8206 14.0163 52.3432 13.1188C52.7592 12.4911 53.0875 11.8091 53.3188 11.0918C53.3438 11 53.3872 10.9144 53.4464 10.8401C53.5057 10.7658 53.5794 10.7045 53.6631 10.6599C53.8066 12.1284 54.0247 13.5392 53.6345 14.9616C53.3475 15.9924 52.4866 16.5625 51.5569 16.9829C50.2484 17.5587 48.848 17.5587 47.4649 17.6797C45.9732 17.7449 44.4913 17.9551 43.0401 18.3074C42.7072 18.4053 42.3227 18.3707 41.9669 18.4628L41.9439 18.2786Z" fill="#F0680C"/>
<path d="M28.0553 50.285C28.1798 50.4317 28.2506 50.6166 28.2562 50.8091C28.216 54.0224 29.14 57.0572 30.0296 60.092C30.0755 60.2475 30.2075 60.4145 30.0755 60.5354C29.9435 60.6563 29.7828 60.426 29.6279 60.3742C29.5934 60.3742 29.5647 60.3051 29.5303 60.2993C28.3308 60.0978 28.2275 59.0382 27.8889 58.1744C27.6536 57.5985 27.447 56.9823 27.2174 56.3892C27.183 56.3028 27.1141 56.1876 27.0395 56.1704C26.9649 56.1531 26.8444 56.274 26.7755 56.3719C26.4886 56.7981 26.7755 57.1378 26.942 57.4891C27.0166 57.6503 27.2461 57.7022 27.2576 57.9728C26.7181 58.0247 26.1787 58.1456 25.7712 57.6388C25.5996 57.4066 25.4967 57.1305 25.4743 56.8422C25.452 56.5539 25.5111 56.2652 25.6449 56.0091C25.8356 55.5018 26.0881 55.0202 26.3967 54.5752C27.1198 53.491 27.5888 52.2566 27.7684 50.9646C27.7744 50.7097 27.877 50.4667 28.0553 50.285Z" fill="#F0680C"/>
<path d="M36.4517 16.7929C37.6188 15.1499 38.4508 13.2917 38.9 11.3251C39.3491 9.35844 39.4064 7.32212 39.0687 5.33318C39.1926 5.4142 39.2971 5.52184 39.3745 5.64832C39.4519 5.7748 39.5004 5.91696 39.5163 6.06452C39.7344 7.41204 40.337 8.65015 40.6068 9.97463C40.9755 11.3524 40.8641 12.8152 40.2911 14.1208C39.7172 15.2726 38.5694 15.8484 37.5077 16.4243C37.2035 16.551 36.9452 16.9368 36.4517 16.7929Z" fill="#F0680C"/>
<path d="M40.0845 37.927C39.6178 39.0188 39.0142 40.0464 38.2882 40.9849C37.8999 41.4802 37.4613 41.9337 36.9797 42.3381C36.8353 42.4654 36.6613 42.5542 36.4738 42.5965C36.2863 42.6387 36.0912 42.6331 35.9065 42.58C34.7587 42.2345 33.674 41.8314 32.5663 41.4283C32.3757 41.3693 32.199 41.272 32.047 41.1423C31.8951 41.0126 31.7711 40.8533 31.6825 40.6739C31.4246 40.2831 31.1114 39.932 30.7528 39.6316C30.6896 39.5625 30.5634 39.5107 30.615 39.384C30.6249 39.36 30.6396 39.3383 30.6582 39.3202C30.6768 39.3022 30.6989 39.2881 30.7231 39.279C30.7472 39.2698 30.7731 39.2657 30.7989 39.2669C30.8247 39.2681 30.8501 39.2747 30.8733 39.2861C32.0211 39.6604 33.2091 39.6431 34.3627 39.9368C35.2139 40.2147 36.1254 40.2493 36.9951 40.0367C37.8648 39.8241 38.6583 39.3728 39.2868 38.7332C39.4992 38.5202 39.6771 38.2726 39.8607 38.0422C39.9292 37.9929 40.0046 37.9541 40.0845 37.927Z" fill="#F0680C"/>
<path d="M25.9261 49.7092C25.7293 49.2561 25.6408 48.7631 25.6679 48.2695C25.6679 48.068 25.6392 47.8376 25.4096 47.7858C25.1801 47.734 25.1399 48.0219 25.0653 48.1831C24.6482 49.0239 24.2484 49.8647 23.8658 50.7054L23.7166 50.6594C23.8142 49.9856 23.883 49.3118 24.0208 48.6438C24.0667 48.425 24.0609 48.2522 23.8945 48.1716C23.7281 48.091 23.619 48.2868 23.5157 48.4077C23.0697 49.0147 22.6852 49.6648 22.3679 50.3484C22.2089 50.6873 22.0021 51.0015 21.7538 51.2813C21.6978 50.9033 21.7927 50.5184 22.0178 50.2102C22.6663 49.2773 22.5286 48.258 22.3277 47.2906C22.167 46.4901 22.7696 46.1043 22.9762 45.5169C23.0222 45.3787 23.1656 45.4305 23.2288 45.5918C23.3011 45.755 23.3815 45.9146 23.4698 46.0697C23.5329 46.2022 23.6248 46.3404 23.7855 46.277C23.8421 46.2536 23.8896 46.2122 23.9207 46.1592C23.9518 46.1062 23.9648 46.0444 23.9576 45.9833C23.949 45.901 23.949 45.818 23.9576 45.7357C23.9863 45.5515 23.8486 45.2635 24.1298 45.2232C24.3192 45.2232 24.4168 45.442 24.434 45.6206C24.4512 45.7991 24.6004 45.8048 24.7381 45.8163C24.8759 45.8279 24.9333 45.7184 24.9448 45.586C25.0107 45.2914 25.0301 44.9883 25.0021 44.6877C24.8601 44.0105 24.9159 43.3067 25.1628 42.6606C25.2088 42.5397 25.2547 42.413 25.3809 42.4303C25.5072 42.4475 25.5244 42.58 25.5359 42.6664C25.6332 43.0619 25.6795 43.4683 25.6736 43.8757C25.6588 44.6068 25.7398 45.3367 25.9147 46.0467C25.9147 46.1388 25.9147 46.3231 26.0237 46.2828C26.7296 46.0467 26.4025 46.6456 26.391 46.8126C26.3451 47.6188 26.15 48.4077 26.1385 49.2255C26.1614 49.3637 26.0237 49.4961 25.9261 49.7092Z" fill="#F0680C"/>
<path d="M37.9037 34.7771C37.5394 35.5408 37.0549 36.2408 36.4689 36.8502C35.9239 37.558 35.2573 38.1626 34.5004 38.6353C34.2893 38.8036 34.0396 38.9164 33.7741 38.9637C33.5086 39.0109 33.2355 38.9911 32.9796 38.906C31.8318 38.405 30.5978 38.549 29.3926 38.5317C28.9737 38.5317 28.4285 38.6526 28.2965 38.1343C28.1989 37.7082 28.7499 37.6449 29.0253 37.4491C29.418 37.1701 29.8636 36.975 30.3345 36.8759C30.8054 36.7768 31.2916 36.7759 31.7629 36.8732C32.9451 37.069 34.093 36.6774 35.2063 36.2973C36.1789 35.9347 37.089 35.4217 37.9037 34.7771Z" fill="#F0680C"/>
<path d="M41.5079 78.7672C39.2581 79.4468 37.5536 77.9553 36.8362 76.2565C36.1188 74.5577 35.6253 72.7092 34.7702 71.0392C34.4947 70.5094 34.1962 70.0026 33.9437 69.4498C34.6655 70.0397 35.2909 70.7392 35.7975 71.5229C36.7903 72.9625 37.7143 74.454 38.7474 75.8649C39.3895 76.8738 40.2386 77.7336 41.2381 78.3872C41.307 78.4281 41.3666 78.4831 41.4131 78.5486C41.4595 78.614 41.4918 78.6885 41.5079 78.7672Z" fill="#F0680C"/>
<path d="M37.72 55.7097C38.1676 56.0207 38.2365 56.5159 38.4661 56.9017C39.4951 58.4782 40.2843 60.1997 40.8076 62.0096C41.02 62.8619 41.6398 63.5529 42.1161 64.3131C42.2022 64.434 42.3744 64.5377 42.2711 64.7047C42.2211 64.768 42.1559 64.8176 42.0817 64.8488C42.0074 64.8801 41.9264 64.8919 41.8464 64.8832C41.0166 64.8848 40.2193 64.5591 39.6267 63.9763C39.034 63.3935 38.6935 62.6003 38.6784 61.7678C38.5867 60.2898 38.4201 58.8176 38.1791 57.3567C38.0988 56.8096 37.8175 56.3028 37.72 55.7097Z" fill="#F0680C"/>
<path d="M38.7874 29.3754C39.4875 28.8802 40.2623 28.9839 40.9797 28.9551C43.0228 28.8687 45.0717 28.8975 47.1148 28.9551C47.8207 28.9551 48.5323 29.053 49.2497 29.0472C49.3645 29.0472 49.5137 29.0127 49.5769 29.1451C49.64 29.2775 49.4736 29.3927 49.3817 29.4733C48.9054 29.9225 48.4233 30.3602 47.9355 30.7978C47.7877 30.9231 47.61 31.0075 47.4198 31.0429C47.2296 31.0782 47.0335 31.0632 46.8508 30.9994C46.0244 30.7921 45.2094 30.5272 44.3772 30.3544C43.0138 30.0341 41.6319 29.7995 40.2393 29.6519C39.75 29.591 39.265 29.4986 38.7874 29.3754Z" fill="#F0680C"/>
<path d="M42.6384 15.5663C43.2684 15.0411 44.0241 14.6898 44.8307 14.547C45.5405 14.3217 46.1969 13.9532 46.7594 13.464C47.322 12.9747 47.7789 12.3752 48.102 11.7022C48.6721 10.5741 48.9858 9.33301 49.0202 8.06854C49.0202 7.95336 48.9801 7.82092 49.1924 7.7115C49.3875 8.63288 49.4392 9.56002 49.6745 10.4526C49.8552 11.1688 49.8552 11.9189 49.6745 12.6351C49.5236 13.129 49.255 13.5784 48.892 13.9447C48.529 14.3109 48.0825 14.5829 47.5912 14.737C46.0187 15.382 44.3027 15.3244 42.6384 15.5663Z" fill="#F0680C"/>
<path d="M33.5706 32.0993C33.4362 32.697 33.1824 33.2612 32.8245 33.7578C32.4649 34.4489 32.0088 35.0849 31.4701 35.6466C30.9994 36.09 30.437 35.8885 29.9262 36.0382C29.0357 36.3283 28.2416 36.8581 27.6306 37.57C27.529 37.7013 27.3933 37.8019 27.2383 37.8608C27.0834 37.9198 26.9153 37.9347 26.7525 37.904C26.498 37.8339 26.2359 37.7952 25.972 37.7888C25.8572 37.7888 25.708 37.8291 25.6965 37.6449C25.6927 37.5954 25.7044 37.5459 25.7302 37.5035C25.756 37.4611 25.7944 37.428 25.84 37.4087C27.0739 36.7407 27.929 35.6524 28.876 34.6676C29.2197 34.334 29.6363 34.0855 30.0927 33.9421C31.3472 33.529 32.5231 32.9059 33.5706 32.0993Z" fill="#F0680C"/>
<path d="M33.0483 65.0675V66.1616C33.0483 66.2422 33.0483 66.3286 32.9507 66.3631C32.8532 66.3977 32.8015 66.3286 32.7499 66.2652C32.6064 66.0925 32.5949 65.6894 32.2161 65.8909C32.0414 65.9692 31.8905 66.0925 31.7786 66.2483C31.6667 66.404 31.5979 66.5867 31.5791 66.7778C31.5326 67.4498 31.5849 68.125 31.7341 68.7818C31.8105 69.5316 31.8411 70.2855 31.8259 71.0391C31.8259 71.1255 31.8718 71.258 31.7398 71.2983C31.6078 71.3386 31.5389 71.2983 31.4528 71.1716C30.9363 70.4172 30.4026 69.6801 29.8689 68.9372C29.7311 68.7472 29.777 68.5975 29.8689 68.3614C30.4083 66.7605 31.1602 65.2402 31.6595 63.622C31.7915 63.2074 32.1071 62.8619 32.1071 62.3897C32.1071 62.2975 32.2161 62.1881 32.308 62.2227C32.4164 62.274 32.5036 62.3615 32.5548 62.4703C32.9793 63.2653 33.1516 64.1715 33.0483 65.0675Z" fill="#F0680C"/>
<path d="M44.6529 6.05877C44.8035 6.58792 44.8522 7.14102 44.7964 7.68846C44.871 8.74229 44.9169 9.80188 44.9628 10.8615C45.0024 11.5126 44.866 12.1624 44.568 12.7422C44.27 13.3219 43.8214 13.8102 43.2698 14.1554C42.736 14.524 42.0875 14.4836 41.4907 14.6219C41.2037 14.691 41.2381 14.4088 41.3874 14.213C42.4295 12.6986 43.2418 11.0374 43.7978 9.2836C44.1533 8.36958 44.3793 7.41007 44.4693 6.43308C44.4817 6.28966 44.5472 6.15612 44.6529 6.05877Z" fill="#F0680C"/>
<path d="M29.0826 62.597C29.1802 62.954 28.9047 63.242 28.9851 63.5702C29.0195 63.7084 28.9851 63.8639 29.1572 63.9273C29.2346 63.9563 29.32 63.956 29.3971 63.9263C29.4743 63.8966 29.538 63.8396 29.5762 63.766C29.8172 63.3514 30.2247 63.0404 30.3108 62.5394C30.3567 62.2457 30.437 62.0269 30.8043 62.0787C30.9613 62.0795 31.1123 62.1389 31.228 62.2454C31.3437 62.3519 31.4156 62.4978 31.4299 62.6546C31.4961 63.0809 31.4363 63.5174 31.2577 63.91C30.6551 65.1999 29.8115 66.3631 29.1802 67.6416C29.0482 67.9065 28.9219 68.1771 28.7899 68.4478C28.7096 68.6205 28.6235 68.7991 28.3939 68.753C28.1644 68.7069 28.1471 68.4881 28.1414 68.3268C28.1012 67.5288 28.1012 66.7293 28.1414 65.9313C28.1988 65.125 28.3652 64.3246 28.4915 63.5241C28.5162 63.3355 28.5819 63.1547 28.6841 62.9945C28.7862 62.8342 28.9223 62.6985 29.0826 62.597Z" fill="#F0680C"/>
<path d="M24.0495 37.3569C24.5328 36.6894 24.8728 35.9286 25.0481 35.1226C25.1973 34.3279 25.9032 34.0227 26.3796 33.5217C27.2211 32.6535 27.9553 31.6868 28.5662 30.6424C28.6293 30.5329 28.6178 30.3429 28.8244 30.3602C29.031 30.3775 28.9851 30.5617 29.0253 30.6827C29.1867 31.4684 29.0604 32.2863 28.6695 32.9861C28.0554 34.4488 26.9076 35.4739 25.6966 36.4413C25.3178 36.7408 24.9104 37.0172 24.5488 37.2878C24.3881 37.3742 24.2618 37.4779 24.0495 37.3569Z" fill="#F0680C"/>
<path d="M58.4095 42.2748C57.6863 42.1539 57.342 41.6644 56.8943 41.3534C54.4898 39.6368 51.8566 38.2681 49.0719 37.2878C48.8617 37.2109 48.6582 37.1165 48.4636 37.0057C48.2685 36.8905 47.9586 36.8444 48.0389 36.5046C48.0656 36.354 48.1406 36.2163 48.2525 36.1124C48.3644 36.0084 48.507 35.944 48.6587 35.9288C49.1606 35.9059 49.6585 36.0278 50.0935 36.2801C52.3709 37.2966 54.4804 38.6559 56.3491 40.3111C57.0931 40.9024 57.7827 41.5596 58.4095 42.2748Z" fill="#F0680C"/>
<path d="M23.5331 30.1471C23.9527 30.8334 24.2296 31.5978 24.3472 32.3943C24.4649 33.1907 24.4208 34.0028 24.2176 34.7818C24.0144 35.5607 23.6563 36.2903 23.1649 36.9268C22.6735 37.5633 22.0588 38.0936 21.358 38.4856C22.5632 35.8539 22.9821 32.9746 23.5331 30.1471Z" fill="#F0680C"/>
<path d="M35.344 56.0091C35.7687 57.2588 36.4919 58.3932 36.6296 59.7407C36.6977 61.0875 37.0706 62.4011 37.72 63.5817C37.8119 63.7372 37.9496 63.8639 37.7774 64.0655C37.6053 64.267 37.4733 64.0655 37.347 64.0251C35.74 63.4493 35.1661 62.2515 35.1661 60.6563C35.1661 59.0612 35.1661 57.587 35.1661 56.0494L35.344 56.0091Z" fill="#F0680C"/>
<path d="M53.7779 47.8722C53.049 47.59 52.6014 46.9681 52.0275 46.5016C50.3406 45.0803 48.5593 43.7758 46.6958 42.5973C46.185 42.2808 45.6943 41.9327 45.2266 41.555C44.8823 41.2728 44.6527 40.9388 45.0372 40.4666C45.284 40.1671 45.5079 40.1729 45.7432 40.3802C47.5452 41.935 49.6228 43.1616 51.2757 44.8892C52.2098 45.7945 53.0484 46.7941 53.7779 47.8722Z" fill="#F0680C"/>
<path d="M55.8727 45.1541C55.4716 45.0094 55.1195 44.7538 54.8569 44.417C53.0452 42.7535 51.0391 41.3168 48.8825 40.1383C48.2352 39.8779 47.6079 39.5699 47.0058 39.2169C46.7418 39.0154 46.2655 38.8254 46.5122 38.3704C46.6218 38.2 46.7877 38.0738 46.9808 38.0138C47.1739 37.9537 47.3818 37.9638 47.5682 38.0422C48.3677 38.3559 49.1103 38.7995 49.7663 39.3552C51.0036 40.2018 52.1567 41.166 53.2098 42.2345C54.2014 43.1068 55.0944 44.0859 55.8727 45.1541Z" fill="#F0680C"/>
<path d="M60.9003 38.9118C60.5043 38.9751 60.1887 38.572 59.8271 38.3704C57.716 37.1697 55.4694 36.2263 53.1353 35.5602C52.2687 35.3241 51.3791 35.1744 50.5068 34.9556C50.1969 34.875 49.6976 34.9556 49.7091 34.4431C49.7091 34.0918 50.4838 33.752 50.9257 33.8672C52.0736 34.1839 53.2214 34.5985 54.3233 35.0189C56.5199 35.8164 58.5931 36.9214 60.4813 38.3013C60.6492 38.4838 60.7902 38.6894 60.9003 38.9118Z" fill="#F0680C"/>
<path d="M19.5902 42.5339C19.7739 43.6454 20.1067 43.8987 21.2431 43.9736C21.5243 43.9736 21.9777 43.8066 22.0638 44.1464C22.1498 44.4861 21.6792 44.6301 21.4325 44.8431C21.2659 44.976 21.071 45.0685 20.8629 45.1135C20.6549 45.1584 20.4393 45.1546 20.233 45.1023C18.5112 44.7913 18.0693 45.7645 17.8111 47.1984C17.8111 47.279 17.8111 47.3597 17.8111 47.446C17.8111 47.7282 17.8111 48.1774 17.5528 48.1889C17.2085 48.1889 17.1224 47.7225 17.1052 47.4518C16.9799 46.7947 16.9663 46.121 17.065 45.4593C17.0923 45.3023 17.153 45.1531 17.2429 45.0217C17.9662 44.1382 18.7506 43.3069 19.5902 42.5339Z" fill="#F0680C"/>
<path d="M63.1213 35.589C61.8645 35.1283 60.6248 34.6619 59.3852 34.2185C57.8666 33.6967 56.29 33.3641 54.6906 33.228C53.7092 33.1301 52.7164 32.9746 51.7235 32.9746C51.4767 32.9746 51.1496 32.9746 51.2414 32.6003C51.3332 32.226 51.3792 32.0244 51.7866 32.0244C52.5551 31.9825 53.3257 32.0328 54.0823 32.1742C55.804 32.5773 57.5257 32.9516 59.1614 33.5217C60.455 33.946 61.7043 34.4956 62.8918 35.1629C62.9721 35.1978 63.0385 35.2588 63.0801 35.3361C63.1218 35.4134 63.1363 35.5025 63.1213 35.589Z" fill="#F0680C"/>
<path d="M23.1485 38.9521C22.7295 39.2976 22.322 39.6604 21.8858 39.9829C21.6046 40.1902 21.5243 40.386 21.7366 40.6912C21.949 40.9964 22.1269 41.0424 22.4081 40.7775C22.5733 40.6597 22.7503 40.5593 22.9361 40.4781C23.0566 40.4032 23.137 40.1499 23.3206 40.3169C23.5043 40.4839 23.2862 40.5645 23.2403 40.6912C23.067 41.1717 22.974 41.6775 22.9648 42.1884C22.9679 42.5174 22.8422 42.8346 22.6146 43.0715C22.3871 43.3084 22.0759 43.4463 21.7481 43.4553C21.4175 43.4528 21.0995 43.328 20.8549 43.1049C20.6103 42.8818 20.4563 42.576 20.4224 42.246C20.4224 41.9581 20.4224 41.6989 20.0838 41.5492C19.7452 41.3995 19.9747 41.2152 20.0838 41.0309C20.6921 39.7755 21.8285 39.2457 23.1485 38.9521Z" fill="#F0680C"/>
<path d="M43.7749 56.9593C43.3329 56.3834 42.9197 55.8076 42.5237 55.2317C41.4065 53.65 40.2166 52.1144 38.954 50.6248C38.7933 50.429 38.4949 50.2217 38.6441 49.8359C38.8679 49.26 39.3902 49.1564 39.8952 49.6516C40.5603 50.3368 41.1263 51.1122 41.5768 51.9551C42.406 53.4263 43.144 54.9476 43.7863 56.5101C43.8239 56.5794 43.8426 56.6574 43.8406 56.7363C43.8386 56.8151 43.8159 56.892 43.7749 56.9593Z" fill="#F0680C"/>
<path d="M48.9859 52.7267C48.4808 52.1508 48.016 51.7189 47.6028 51.2237C46.3471 49.7279 44.9305 48.3761 43.3788 47.1927C42.9536 46.8403 42.5564 46.4552 42.1908 46.0409C42.0681 45.9285 41.9935 45.7727 41.9828 45.6062C41.9721 45.4398 42.0261 45.2757 42.1334 45.1483C42.3744 44.8431 42.6097 44.9641 42.9197 45.1483C44.0675 45.8394 44.8882 46.9105 45.7318 47.9125C46.7927 49.1917 47.7704 50.5382 48.6588 51.9435C48.831 52.1732 48.9435 52.4424 48.9859 52.7267Z" fill="#F0680C"/>
<path d="M38.0873 32.1857C39.7956 32.1279 41.5059 32.1857 43.2066 32.3584C44.0215 32.4218 44.8422 32.3584 45.6629 32.3584C45.8293 32.3584 46.0646 32.249 46.1507 32.4678C46.2368 32.6867 45.9843 32.7155 45.8925 32.8364C45.5676 33.2499 45.2086 33.6351 44.8192 33.9881C44.7304 34.0854 44.6129 34.1517 44.484 34.1776C44.355 34.2035 44.2212 34.1876 44.1019 34.1321C42.1463 33.339 40.1362 32.6885 38.0873 32.1857Z" fill="#F0680C"/>
<path d="M55.0693 30.1471C56.9825 30.1879 58.8847 30.4468 60.7396 30.9188C61.6234 31.1434 62.513 31.3507 63.3968 31.5925C63.523 31.6271 63.8444 31.5407 63.7641 31.8517C63.6837 32.1626 63.5058 31.8862 63.3738 31.8517C61.7439 31.7653 60.1829 31.247 58.553 31.1606C57.1239 31.1031 55.6834 31.1203 54.2659 31.1606C53.8297 31.1606 53.4337 30.9821 53.0033 31.0109C52.9311 31.0157 52.86 30.9918 52.8052 30.9444C52.7504 30.897 52.7164 30.8299 52.7106 30.7575C52.7106 30.5617 52.7967 30.4754 52.9746 30.4063C53.6483 30.1791 54.3608 30.091 55.0693 30.1471Z" fill="#F0680C"/>
<path d="M46.6556 55.1453C46.2805 54.8253 45.9723 54.4339 45.7489 53.9936C44.3572 52.0401 42.7368 50.2614 40.9223 48.6957C40.6238 48.448 40.3139 48.1831 40.423 47.7225C40.4343 47.6204 40.4759 47.5241 40.5424 47.4461C40.609 47.368 40.6973 47.3119 40.796 47.2848C40.9797 47.2387 41.083 47.3481 41.2035 47.4806C42.4552 48.7148 43.6067 50.0474 44.647 51.4656C45.3777 52.5751 46.0569 53.7057 46.6843 54.8574C46.7245 54.938 46.8221 55.0244 46.6556 55.1453Z" fill="#F0680C"/>
<path d="M33.1517 69.8702C33.5419 70.0372 33.5993 70.3654 33.7256 70.6188C34.4375 71.8645 34.9945 73.1932 35.3842 74.575C35.5213 75.0342 35.739 75.4651 36.027 75.8476C36.113 75.9686 36.2508 76.0895 36.1245 76.2795C35.9983 76.4696 35.8835 76.2795 35.763 76.2795C35.6424 76.2795 35.5162 76.2795 35.3957 76.2795C34.1388 75.9743 34.0011 75.8879 33.9207 74.6786C33.8861 73.0479 33.6274 71.4298 33.1517 69.8702Z" fill="#F0680C"/>
<path d="M67.0524 29.6404C65.7783 29.721 64.6936 29.41 63.609 29.3236C62.8399 29.2603 62.0651 29.2257 61.3133 29.1912C59.2587 29.0982 57.1999 29.1636 55.1553 29.387C55.0871 29.3974 55.0174 29.389 54.9537 29.3626C54.89 29.3362 54.8347 29.2929 54.7937 29.2373C54.7478 29.1048 54.8511 29.0012 55.006 28.8975C55.93 28.2813 56.9631 28.385 57.9559 28.4829C58.8455 28.5635 59.7408 28.5635 60.6304 28.6499C62.6796 28.8047 64.7196 29.0642 66.7425 29.4273C66.7999 29.4446 66.8688 29.5194 67.0524 29.6404Z" fill="#F0680C"/>
<path d="M67.9879 26.7207C67.0552 26.6904 66.1214 26.7231 65.193 26.8186C63.451 26.8708 61.7187 27.0985 60.0221 27.4981C59.3102 27.6682 58.5773 27.7322 57.8469 27.6882C57.7207 27.6882 57.5829 27.6882 57.5829 27.5154C57.5829 27.3427 57.692 27.3599 57.7953 27.3254C59.3709 26.8032 60.9992 26.4575 62.6506 26.2946C64.0924 26.2148 65.538 26.2302 66.9779 26.3407C67.3508 26.3319 67.7127 26.4681 67.9879 26.7207Z" fill="#F0680C"/>
<path d="M39.459 34.4834C40.4824 34.6207 41.4978 34.813 42.5007 35.0592C42.782 35.1168 43.2468 34.8807 43.3387 35.3184C43.4305 35.756 42.9886 35.8942 42.7647 36.1188C41.9785 36.9423 41.99 36.9077 41.043 36.2628C40.5594 35.8761 40.006 35.5867 39.4131 35.4105C39.2803 35.3905 39.1607 35.3189 39.0802 35.2112C38.9996 35.1034 38.9646 34.9681 38.9827 34.8346C39.0036 34.7268 39.0642 34.6308 39.1525 34.5657C39.2408 34.5006 39.3502 34.4712 39.459 34.4834Z" fill="#F0680C"/>
<path d="M50.128 49.26C49.5541 48.7245 48.9056 48.2177 48.3489 47.6533C47.1107 46.4421 45.7789 45.331 44.366 44.3306C44.0601 44.0955 43.7759 43.8334 43.5166 43.5474C43.4537 43.4867 43.4043 43.4133 43.3716 43.3321C43.3389 43.2509 43.3237 43.1637 43.327 43.0761C43.3302 42.9886 43.3519 42.9028 43.3905 42.8242C43.4291 42.7457 43.4838 42.6762 43.551 42.6203C43.8839 42.269 44.0503 42.6203 44.2627 42.8161C46.036 44.7107 47.8209 46.588 49.5943 48.4768C49.8066 48.7014 49.996 48.949 50.1969 49.1851L50.128 49.26Z" fill="#F0680C"/>
<path d="M32.5547 42.8737C32.4629 42.3957 32.5547 42.2978 33.0253 42.4763C33.7197 42.7355 34.3912 43.0522 35.0627 43.3516C35.3726 43.4899 35.5275 43.6684 35.1889 43.9736C34.9191 44.2986 34.5797 44.5584 34.1961 44.7337C33.4557 44.9698 32.8531 44.7337 32.7154 43.9909C32.5949 43.6313 32.5404 43.2528 32.5547 42.8737Z" fill="#F0680C"/>
<path d="M32.6582 70.6764C32.8518 71.1155 32.9136 71.6018 32.8361 72.0757C32.6949 72.5467 32.7152 73.0515 32.8935 73.5096C32.9098 73.5354 32.9207 73.5644 32.9255 73.5946C32.9304 73.6248 32.9289 73.6557 32.9214 73.6854C32.9139 73.715 32.9004 73.7428 32.8818 73.7671C32.8632 73.7913 32.8398 73.8115 32.8131 73.8263C32.6697 73.9185 32.5778 73.7918 32.509 73.7227C32.3675 73.597 32.2556 73.4414 32.1812 73.2672C32.1068 73.093 32.0717 72.9044 32.0785 72.7149C32.1718 72.0107 32.3671 71.3239 32.6582 70.6764Z" fill="#F0680C"/>
</svg>
