<svg width="100" height="100" viewBox="0 0 100 100" fill="none" xmlns="http://www.w3.org/2000/svg">
<path d="M2.45166 63.1565C7.05124 57.9092 13.2108 61.5576 16.6025 63.1565C26.0334 67.5999 34.1986 66.3455 40.2957 60.418C36.7301 65.4356 29.2513 68.6247 22.5837 67.3747C27.0674 70.3384 38.1118 72.9577 56.6304 49.5877C75.1491 26.2178 86.4252 23.1437 96.7742 20.52C87.5751 23.3689 75.265 27.9316 61.1186 49.1328C46.9722 70.334 42.2523 78.5451 27.6424 78.5451C17.7524 78.5451 13.1484 72.5027 11.3076 70.1087C9.46691 67.7148 5.57153 62.812 2.45166 63.1565Z" fill="#0C0D51"/>
<path d="M34.5417 79C48.2291 74.0972 53.2922 65.4356 58.8099 57.7988C64.3276 50.1619 73.0721 41.9509 82.3916 41.6108C76.758 42.5207 67.4385 47.8784 58.8099 60.9878C50.1812 74.0972 48.9243 79 34.5417 79Z" fill="#B98A42"/>
<path d="M47.0835 78.2005C60.5435 66.4603 60.08 56.1998 72.1583 53.4658C60.4276 58.5938 59.3892 75.9214 47.0835 78.2005Z" fill="#B98A42"/>
<path d="M56.7463 74.2121C63.5343 67.5867 62.2685 63.4966 68.477 61.7873C63.5343 63.9516 62.6206 74.2121 56.7463 74.2121Z" fill="#B98A42"/>
<path d="M53.0649 77.2906C57.3213 73.7571 60.312 76.4912 65.6024 75.5813C61.2301 79.2297 57.5531 76.3763 53.0649 77.2906Z" fill="#B98A42"/>
</svg>
