<svg width="100" height="100" viewBox="0 0 100 100" fill="none" xmlns="http://www.w3.org/2000/svg">
<path d="M47.8701 30.8527L58.2551 19L65.4499 26.9506C65.0528 27.078 64.6273 27.0897 64.2237 26.9842C63.8201 26.8787 63.4554 26.6606 63.1727 26.3555C62.5641 25.7946 61.5629 25.7409 60.3262 27.5896C59.0894 29.4382 57.1115 29.6382 55.6048 28.0481C54.0981 26.458 51.9436 25.6092 51.443 28.6919C51.1583 30.4333 49.9215 30.9991 47.8701 30.8527Z" fill="#7E2249"/>
<path d="M93.2479 57.6702H24.3664L46.5302 32.3843C49.892 33.1452 51.9288 32.916 52.2969 30.5893C52.7877 27.5115 54.903 28.3602 56.3753 29.9504C57.8477 31.5405 59.7813 31.3356 60.9936 29.487C62.2058 27.6384 63.1874 27.6969 63.7812 28.2578C63.967 28.4655 64.1922 28.6346 64.444 28.7555C64.6958 28.8763 64.9692 28.9464 65.2483 28.9619C65.5275 28.9773 65.807 28.9376 66.0707 28.8453C66.3344 28.7529 66.5771 28.6096 66.7848 28.4237L93.2479 57.6702Z" fill="url(#paint0_linear)"/>
<path d="M5 40.5739C8.38641 45.0029 11.8121 47.1246 14.1531 48.2367C22.732 52.3047 29.5049 48.7977 37.3378 53.4998C39.8742 55.057 42.0489 57.1319 43.718 59.5871C41.9865 58.8037 40.212 58.1181 38.4028 57.5336C27.5172 53.9924 21.986 56.2117 15.9887 53.6315C12.6857 52.1974 8.3766 48.944 5 40.5739Z" fill="#7E2249"/>
<path d="M10.6293 54.9094C14.5163 58.9091 18.1726 60.6163 20.6265 61.4406C29.6324 64.4745 35.9439 60.2017 44.2627 63.9477C46.9771 65.1927 49.3944 66.9966 51.3545 69.24C49.5334 68.6654 47.682 68.1899 45.8087 67.8157C34.5795 65.5769 29.3527 68.4303 23.0952 66.5719C19.6401 65.5476 14.9776 62.8259 10.6293 54.9094Z" fill="#7E2249"/>
<path d="M17.991 68.3767C22.1774 72.0691 25.9515 73.4885 28.4643 74.1177C37.6763 76.4541 43.6345 71.713 52.2379 74.8152C55.0358 75.8503 57.5803 77.4648 59.7027 79.5514C57.842 79.126 55.9596 78.8003 54.0636 78.5759C42.6922 77.2004 37.7009 80.444 31.3158 79.0636C27.7969 78.2978 22.9381 75.9371 17.991 68.3767Z" fill="#7E2249"/>
<path d="M38.8641 49.6025C53.8723 44.4029 63.3003 71.552 73.5528 71.552C81.8077 71.552 82.6372 56.9873 87.7266 56.9873C92.816 56.9873 95 60.4602 95 60.4602C83.6776 60.6163 92.0553 82 77.4545 82C61.4402 82.0146 63.4033 60.3382 38.8641 49.6025Z" fill="#7E2249"/>
<defs>
<linearGradient id="paint0_linear" x1="58.8096" y1="65.3671" x2="58.8096" y2="47.9636" gradientUnits="userSpaceOnUse">
<stop offset="0.48" stop-color="#7E2249" stop-opacity="0"/>
<stop offset="1" stop-color="#7E2249"/>
</linearGradient>
</defs>
</svg>
