<svg width="100" height="100" viewBox="0 0 100 100" fill="none" xmlns="http://www.w3.org/2000/svg">
<path d="M48.3771 56.2898C43.7308 54.2413 42.3369 49.7486 41.9364 47.7697C54.46 52.4336 56.8152 59.3277 57.0822 63.1198C55.7204 60.7558 53.5361 58.5682 48.3771 56.2898Z" fill="#F3BC4B"/>
<path d="M63.1865 74.9666C53.6322 83.1711 38.9404 91.8463 18 94.5205C19.7143 94.1622 55.8806 86.423 57.7552 64.3232L57.7231 64.3606L57.6377 64.1788C57.7231 60.5579 56.169 52.4122 41.8349 47.16C41.7976 46.9246 41.7869 46.7963 41.7869 46.7963C41.662 46.6164 41.5664 46.4179 41.5038 46.2079L40.2007 41.7099C41.9524 42.7796 44.1474 44.0151 46.0113 44.919C55.1223 49.4117 57.846 52.4442 59.4535 55.081C60.8794 57.413 64.4629 63.3444 63.1865 74.9666Z" fill="#F3BC4B"/>
<path d="M63.8381 74.3997L63.774 74.4531C64.9009 63.0235 61.3334 57.1402 59.9021 54.7815C58.2999 52.1073 55.5015 48.9945 46.2676 44.443C44.2436 43.4535 41.8136 42.0255 40.0032 40.9397L37.9524 33.8798C39.6181 34.9348 41.3364 35.9041 43.1007 36.784C46.9512 38.7843 51.3145 41.0627 56.6283 46.0154C65.7233 54.4927 64.463 69.9176 63.8381 74.3997Z" fill="#F3BC4B"/>
<path d="M82.9999 53.4391C82.9999 53.4391 78.6367 56.1133 77.4831 58.3436C76.949 59.4133 72.8849 66.2967 64.4414 73.8541C65.0609 68.6447 65.8941 53.9044 57.0127 45.6089C51.6454 40.6081 47.2502 38.3243 43.3676 36.308C41.3904 35.333 39.4765 34.2344 37.6371 33.0187C37.4601 32.6855 37.2186 32.391 36.9269 32.1522C34.4328 30.1144 26.0535 21.926 28.2591 5.47945C28.2591 5.47945 27.191 19.2089 50.4225 28.0339C72.5805 36.4524 71.0157 48.4383 70.2787 57.8943C70.2737 57.9445 70.2865 57.9949 70.315 58.0365C70.3435 58.0782 70.3858 58.1084 70.4343 58.1218C70.4829 58.1353 70.5347 58.1311 70.5805 58.11C70.6262 58.0889 70.6631 58.0523 70.6846 58.0066C71.6512 55.9314 74.0758 52.1233 78.4017 53.5942C78.9444 53.7849 79.5226 53.8525 80.0946 53.7921L82.9999 53.4391Z" fill="#F3BC4B"/>
</svg>
