<svg width="100" height="100" viewBox="0 0 100 100" fill="none" xmlns="http://www.w3.org/2000/svg">
<path fill-rule="evenodd" clip-rule="evenodd" d="M24.5379 43.0357C25.1478 41.251 25.4271 39.0444 26.037 37.2541C27.616 34.272 35.2769 34.6598 36.0693 38.1664C36.132 43.5032 33.9944 46.0348 30.8593 47.2892C16.4209 53.048 14.0097 59.2516 15.8509 65.2783C19.8695 72.2744 30.466 69.2696 36.2517 60.6713C53.0956 33.1488 57.2909 28.4733 87 27.39C85.5294 29.3514 85.8144 35.5892 76.5687 39.6431C72.8522 40.43 67.6081 41.8839 61.6401 43.0927C51.7617 45.2822 46.4093 49.5642 34.2566 66.1621C17.2873 83.0166 1.50932 58.2081 24.5379 43.0357Z" fill="#004846"/>
<path fill-rule="evenodd" clip-rule="evenodd" d="M31.6004 70.5582C37.996 64.7139 42.14 57.1248 47.2017 52.4436C54.6119 45.4533 63.8119 44.4041 72.9093 42.6708C71.5413 47.6655 69.7286 52.934 58.5564 54.1599C41.2621 54.1884 38.7655 70.6437 31.6004 70.5582Z" fill="#004846"/>
<path fill-rule="evenodd" clip-rule="evenodd" d="M58.6019 64.0125C55.8373 62.0397 53.2894 62.2564 51.1917 65.8599C46.9223 76.3455 36.1034 73.3293 40.6692 64.674C43.8556 59.0748 57.0913 56.4121 58.6019 64.0125Z" fill="#004846"/>
</svg>
