<svg width="100" height="100" viewBox="0 0 100 100" fill="none" xmlns="http://www.w3.org/2000/svg">
<path d="M82.6748 57.369C78.9862 56.5762 75.3437 56.5196 71.9012 58.0692C69.6285 59.0988 67.4533 60.324 65.1652 61.3331C64.648 61.6105 64.0738 61.7639 63.4876 61.7809C61.83 61.722 60.1723 61.8952 58.5625 62.2958C57.6873 62.5009 56.7669 62.355 55.9973 61.8891C52.7601 60.2777 49.7897 58.203 46.6705 56.3857C40.114 52.5452 33.0957 50.4808 25.426 51.0317C23.2662 51.1583 21.1228 51.4858 19.0234 52.0098C18.0383 52.2724 17.8383 51.9789 18.0537 51.0523C20.6753 39.9838 27.0574 31.9219 37.5129 27.51C57.1465 19.273 78.863 31.4998 82.4029 52.6276C82.7483 54.183 82.8401 55.7842 82.6748 57.369Z" fill="#FEDC21"/>
<path d="M11.9999 57.6419C15.5091 54.4912 19.4029 53.0549 23.7278 52.5246C31.5104 51.562 38.6056 53.6521 45.3827 57.2558C49.8461 59.629 54.0375 62.4708 58.4342 64.9779C62.3691 67.2122 66.4272 69.1273 71.0136 69.5752C72.0038 69.673 73.0042 69.6833 74.2303 69.7451C71.6732 72.1531 68.511 73.8171 65.083 74.5586C59.1575 75.8301 53.5553 74.6564 48.0659 72.3346C44.2181 70.7026 40.8014 68.2985 37.2153 66.1929C31.8952 63.104 26.5187 60.0924 20.47 58.5994C17.7002 57.9116 14.8528 57.5897 11.9999 57.6419Z" fill="#E21E24"/>
<path d="M58.4957 63.5467C59.4934 63.8097 60.5461 63.7721 61.5226 63.4386C62.7441 63.0596 64.0366 62.9707 65.2983 63.1788C66.5599 63.387 67.756 63.8866 68.7922 64.6382C70.4544 65.7553 72.1885 66.7489 74.2354 66.9754C75.0666 67.0681 75.9028 67.0938 76.8006 67.1504C72.2859 70.3731 64.0057 67.9278 58.4957 63.5467Z" fill="#E31F24"/>
<path d="M70.6954 60.1644C74.5893 56.8542 82.0334 57.4874 87.9999 60.0666C86.6711 60.3755 85.6553 61.0962 84.5575 61.6111C82.6593 62.4965 80.7867 62.7076 78.8629 61.575C77.0262 60.4991 74.9587 60.2365 72.8655 60.1902C72.2448 60.149 71.624 60.1644 70.6954 60.1644Z" fill="#E31F25"/>
<path d="M81.6796 63.2018C80.7856 64.1987 79.6412 64.9364 78.366 65.3376C77.0908 65.7387 75.7316 65.7888 74.4305 65.4824C72.9823 65.1562 71.5748 64.6693 70.2339 64.0307C68.7394 63.317 67.1602 62.798 65.5345 62.4862C66.4609 61.8039 67.5222 61.3286 68.6469 61.0924C69.7717 60.8562 70.9339 60.8645 72.0551 61.1168C73.8918 61.4669 75.6104 62.2134 77.3958 62.7385C78.7774 63.1839 80.2351 63.3416 81.6796 63.2018Z" fill="#E31E24"/>
</svg>
