<svg width="100" height="100" viewBox="0 0 100 100" fill="none" xmlns="http://www.w3.org/2000/svg">
<path d="M81.6648 57.646L42.3022 17.9931C38.8468 14.518 37.9803 9 37.9803 9V21.5596C37.9803 25.0633 39.3622 28.4187 41.8152 30.8894L68.4779 57.7547C68.5687 57.8461 68.6194 57.9714 68.6194 58.0914C68.6194 58.2112 68.5684 58.3368 68.4779 58.4282C68.2968 58.6107 68.0022 58.6107 67.821 58.4282C65.1701 55.7805 47.2647 37.8799 41.0847 31.4946C38.9831 29.3206 37.9806 26.7984 37.9806 26.7984V35.5689C37.9806 38.5876 39.1701 41.4806 41.2888 43.6149L55.3254 57.755C55.4161 57.8465 55.4668 57.9717 55.4668 58.0918C55.4668 58.2115 55.4158 58.3371 55.3254 58.4285C55.1442 58.6111 54.8496 58.6111 54.6626 58.4285C52.8217 56.5909 43.8096 47.5924 40.6487 44.3057C39.1078 42.7023 37.9806 40.0487 37.9806 40.0487V48.8821C37.9806 52.186 39.2835 55.3585 41.6059 57.6981L45.8882 62.012H80.9853L81.6651 61.3271C82.6731 60.311 82.6731 58.6676 81.6648 57.646Z" fill="#005AAB"/>
<path d="M63.3401 79.5923H63.5384L80.9849 62.0113H31.3245C27.6481 62.0796 24.0344 62.7303 23.4111 66.3651C19.5594 66.3651 17.2085 70.5306 18.2452 74.4166C19.7577 72.7274 22.2387 71.8659 25.0256 74.0571L25.0993 74.0457L25.4674 74.4225C25.5013 74.4567 25.5411 74.4908 25.5808 74.5308L26.0452 74.9932L41.6453 90.6H54.7417L44.4096 80.1861C44.2226 80.0036 44.2226 79.7069 44.4041 79.5185C44.5004 79.4271 44.6192 79.3815 44.7384 79.3815C44.8631 79.3815 44.9819 79.4271 45.0727 79.5185L56.073 90.6H70.3079L59.5908 79.621L63.3401 79.5923ZM29.8007 68.4481C28.8095 69.2354 26.9515 68.4481 26.9515 68.4481L30.084 65.4236C30.2425 65.7375 30.8032 67.6607 29.8007 68.4481Z" fill="#C7AB73"/>
<path d="M45.8878 62.0113H80.9849L81.6648 61.3264C82.6731 60.3107 82.6731 58.6673 81.6648 57.6457L80.079 56.1435C81.2771 60.901 79.3505 60.3331 45.8878 62.0113Z" fill="#014282"/>
</svg>
